<?xml version="1.0" encoding="UTF-8"?>
<!DOCTYPE svg PUBLIC "-//W3C//DTD SVG 1.1//EN" "http://www.w3.org/Graphics/SVG/1.1/DTD/svg11.dtd">
<!-- Creator: CorelDRAW X7 -->
<svg xmlns="http://www.w3.org/2000/svg" xml:space="preserve" width="8.26772in" height="11.6929in" version="1.1" style="shape-rendering:geometricPrecision; text-rendering:geometricPrecision; image-rendering:optimizeQuality; fill-rule:evenodd; clip-rule:evenodd"
viewBox="0 0 8268 11693"
 xmlns:xlink="http://www.w3.org/1999/xlink">
 <defs>
  <style type="text/css">
   <![CDATA[
    .str2 {stroke:#373435;stroke-width:3}
    .str1 {stroke:black;stroke-width:3}
    .str0 {stroke:black;stroke-width:3}
    .fil1 {fill:none}
    .fil0 {fill:none;fill-rule:nonzero}
   ]]>
  </style>
 </defs>
 <g id="Layer_x0020_1">
  <metadata id="CorelCorpID_0Corel-Layer"/>
  <polygon class="fil0 str0" points="2152,7945 2013,7945 2013,7111 2152,7111 "/>
  <path id="1" class="fil0 str0" d="M2847 7806l-145 139 -272 0 -139 -139 0 -556 139 -139 278 0 139 139 0 556zm-139 -57l0 -442 -57 -57 -164 0 -57 57 0 442 57 57 164 0 57 -57z"/>
  <path id="2" class="fil0 str0" d="M3541 7806l-139 139 -278 0 -138 -139 0 -70 138 0 0 13 57 57 164 0 57 -57 0 -151 -272 0 -144 -139 0 -209 138 -139 278 0 139 139 0 556zm-139 -347l0 -152 -57 -57 -164 0 -57 57 0 95 57 57 221 0z"/>
  <path id="3" class="fil0 str0" d="M4236 7806l-139 139 -278 0 -139 -139 0 -70 139 0 0 13 57 57 164 0 57 -57 0 -151 -273 0 -144 -139 0 -209 139 -139 278 0 139 139 0 556zm-139 -347l0 -152 -57 -57 -164 0 -57 57 0 95 57 57 221 0z"/>
  <path id="4" class="fil0 str0" d="M4930 7736l-69 0 0 209 -139 0 0 -209 -348 0 0 -138 348 -487 139 0 0 487 69 0 0 138zm-208 -138l0 -242 -175 242 175 0z"/>
  <polygon class="fil0 str0" points="5702,7945 5563,7945 5563,7111 5702,7111 "/>
  <path id="1" class="fil0 str0" d="M6396 7806l-144 139 -272 0 -139 -139 0 -556 139 -139 277 0 139 139 0 556zm-139 -57l0 -442 -56 -57 -164 0 -57 57 0 442 57 57 164 0 56 -57z"/>
  <path id="2" class="fil0 str0" d="M7091 7806l-139 139 -278 0 -139 -139 0 -70 139 0 0 13 57 57 164 0 57 -57 0 -151 -272 0 -145 -139 0 -209 139 -139 278 0 139 139 0 556zm-139 -347l0 -152 -57 -57 -164 0 -57 57 0 95 57 57 221 0z"/>
  <path id="3" class="fil0 str0" d="M7785 7806l-139 139 -277 0 -139 -139 0 -70 139 0 0 13 57 57 163 0 57 -57 0 -151 -272 0 -144 -139 0 -209 139 -139 277 0 139 139 0 556zm-139 -347l0 -152 -57 -57 -163 0 -57 57 0 95 57 57 220 0z"/>
  <path id="4" class="fil0 str0" d="M8480 7736l-70 0 0 209 -139 0 0 -209 -347 0 0 -138 347 -487 139 0 0 487 70 0 0 138zm-209 -138l0 -242 -175 242 175 0z"/>
  <path class="fil0 str1" d="M-216 9939l9769 0 98 0 0 98 0 333 1005 -1044 -1005 -1045 0 334 0 98 -98 0 -9769 0 0 1226zm9671 196l-9770 0 -98 0 0 -98 0 -1422 0 -99 98 0 9770 0 0 -479 0 -244 169 176 1239 1289 65 68 -65 68 -1239 1288 -169 176 0 -244 0 -479z"/>
  <path class="fil0 str2" d="M150 9744l0 -837 356 0c89,0 154,8 195,23 41,15 73,42 97,80 25,39 37,82 37,132 0,63 -18,115 -55,156 -37,40 -92,66 -165,77 36,21 66,44 90,70 24,26 56,71 96,136l102 163 -202 0 -121 -183c-44,-64 -74,-105 -90,-122 -16,-17 -33,-29 -51,-35 -18,-6 -46,-9 -85,-9l-34 0 0 349 -170 0zm170 -483l125 0c81,0 131,-3 151,-10 20,-7 36,-19 48,-35 11,-17 17,-38 17,-63 0,-28 -8,-51 -23,-69 -15,-17 -36,-28 -63,-32 -14,-2 -55,-3 -124,-3l-131 0 0 212z"/>
  <polygon id="1" class="fil0 str2" points="994,9744 994,8907 1614,8907 1614,9049 1164,9049 1164,9235 1582,9235 1582,9376 1164,9376 1164,9603 1630,9603 1630,9744 "/>
  <path id="2" class="fil0 str2" d="M1729 9473l165 -16c10,55 30,95 60,121 30,26 71,39 122,39 54,0 95,-12 123,-35 27,-23 41,-50 41,-80 0,-20 -6,-37 -17,-51 -12,-14 -32,-26 -61,-36 -20,-7 -64,-19 -135,-37 -90,-22 -153,-50 -189,-83 -52,-46 -77,-102 -77,-169 0,-42 12,-82 36,-120 24,-37 59,-65 104,-85 45,-19 100,-29 164,-29 105,0 184,23 237,70 52,46 80,108 83,186l-170 6c-7,-43 -22,-74 -46,-93 -23,-19 -59,-29 -106,-29 -49,0 -87,11 -114,31 -18,13 -27,30 -27,52 0,20 8,37 25,51 21,18 73,37 155,56 82,19 143,40 182,60 39,21 70,49 92,85 22,37 33,81 33,134 0,48 -13,93 -40,134 -26,42 -64,74 -112,94 -49,20 -110,30 -183,30 -105,0 -187,-24 -243,-73 -57,-49 -91,-120 -102,-213z"/>
  <path id="3" class="fil0 str2" d="M3088 9436l164 50c-25,92 -67,160 -125,205 -59,45 -133,67 -223,67 -111,0 -202,-38 -274,-114 -71,-76 -107,-180 -107,-311 0,-140 36,-248 108,-325 72,-77 166,-116 284,-116 102,0 185,31 249,91 38,36 67,87 86,155l-167 39c-10,-43 -31,-77 -62,-102 -32,-25 -70,-38 -115,-38 -62,0 -112,22 -151,67 -39,44 -58,116 -58,216 0,106 19,181 57,226 38,45 88,67 149,67 45,0 83,-14 116,-43 32,-28 55,-73 69,-134z"/>
  <path id="4" class="fil0 str2" d="M3397 8907l170 0 0 454c0,72 2,118 6,140 7,34 24,62 51,82 27,21 64,31 111,31 47,0 83,-9 107,-29 24,-20 38,-44 43,-72 5,-29 8,-76 8,-142l0 -464 169 0 0 440c0,101 -4,172 -13,214 -10,41 -26,76 -51,105 -24,28 -57,51 -98,68 -41,17 -94,25 -160,25 -80,0 -140,-9 -182,-27 -41,-19 -73,-43 -97,-72 -24,-30 -40,-61 -47,-93 -11,-48 -17,-119 -17,-213l0 -447z"/>
  <polygon id="5" class="fil0 str2" points="4241,9744 4241,8907 4861,8907 4861,9049 4411,9049 4411,9235 4829,9235 4829,9376 4411,9376 4411,9603 4877,9603 4877,9744 "/>
  <polygon class="fil0 str2" points="5356,9232 5356,8898 5457,8898 5517,9126 5576,8898 5678,8898 5678,9232 5615,9232 5615,8969 5549,9232 5484,9232 5418,8969 5418,9232 "/>
  <path id="1" class="fil0 str2" d="M6046 9232l-73 0 -29 -76 -134 0 -27 76 -72 0 130 -334 71 0 134 334zm-124 -132l-46 -124 -45 124 91 0z"/>
  <polygon id="2" class="fil0 str2" points="6082,9232 6082,8898 6147,8898 6285,9122 6285,8898 6347,8898 6347,9232 6280,9232 6145,9013 6145,9232 "/>
  <path id="3" class="fil0 str2" d="M6419 8898l68 0 0 181c0,29 0,48 2,56 3,14 10,25 20,33 11,8 26,12 45,12 18,0 33,-3 42,-11 10,-8 16,-18 18,-29 2,-12 3,-30 3,-57l0 -185 67 0 0 176c0,40 -1,68 -5,85 -4,16 -10,30 -20,42 -10,11 -23,20 -39,27 -17,7 -38,10 -64,10 -32,0 -56,-3 -73,-11 -16,-7 -29,-17 -39,-29 -9,-11 -15,-24 -19,-37 -4,-19 -6,-47 -6,-84l0 -179z"/>
  <path id="4" class="fil0 str2" d="M7057 9232l-73 0 -29 -76 -134 0 -28 76 -71 0 129 -334 72 0 134 334zm-124 -132l-46 -124 -46 124 92 0z"/>
  <polygon id="5" class="fil0 str2" points="7094,9232 7094,8901 7162,8901 7162,9176 7330,9176 7330,9232 "/>
  <path id="6" class="fil0 str2" d="M7712 9109l66 20c-10,37 -27,64 -50,82 -24,18 -53,27 -89,27 -45,0 -81,-15 -110,-46 -28,-30 -42,-71 -42,-124 0,-56 14,-99 43,-130 28,-30 66,-46 113,-46 41,0 74,12 100,36 15,15 26,35 34,62l-67 16c-4,-17 -12,-31 -25,-41 -12,-10 -28,-15 -45,-15 -25,0 -45,9 -61,27 -15,17 -23,46 -23,86 0,42 8,72 23,90 15,18 35,27 59,27 18,0 34,-6 47,-17 12,-12 22,-29 27,-54z"/>
  <path id="7" class="fil0 str2" d="M8136 9232l-72 0 -29 -76 -134 0 -28 76 -71 0 129 -334 72 0 133 334zm-123 -132l-47 -124 -45 124 92 0z"/>
  <polygon id="8" class="fil0 str2" points="8172,9232 8172,8898 8238,8898 8375,9122 8375,8898 8438,8898 8438,9232 8370,9232 8235,9013 8235,9232 "/>
  <path id="9" class="fil0 str2" d="M8495 9067c0,-34 5,-62 16,-86 7,-17 18,-32 31,-45 13,-14 27,-24 43,-31 21,-8 45,-13 72,-13 49,0 89,15 118,46 30,31 44,73 44,128 0,54 -14,96 -44,126 -29,31 -68,46 -117,46 -50,0 -89,-15 -119,-45 -29,-31 -44,-72 -44,-126zm70 -2c0,38 9,67 26,86 18,20 40,29 67,29 27,0 49,-9 66,-29 17,-19 26,-48 26,-87 0,-38 -8,-67 -25,-86 -17,-19 -39,-28 -67,-28 -28,0 -51,10 -68,29 -17,19 -25,48 -25,86z"/>
  <path id="10" class="fil0 str2" d="M8872 9232l0 -334 108 0c41,0 68,2 80,5 19,5 35,16 48,33 13,17 20,38 20,65 0,21 -4,38 -11,52 -8,14 -17,25 -29,33 -11,8 -23,13 -35,15 -16,4 -39,5 -69,5l-44 0 0 126 -68 0zm68 -277l0 95 36 0c27,0 45,-2 54,-5 9,-4 16,-9 21,-17 5,-7 7,-16 7,-26 0,-12 -3,-22 -10,-30 -8,-8 -17,-13 -28,-15 -8,-2 -24,-2 -48,-2l-32 0z"/>
  <polygon id="11" class="fil0 str2" points="9271,9232 9271,9092 9148,8898 9228,8898 9306,9030 9383,8898 9461,8898 9339,9092 9339,9232 "/>
  <path id="12" class="fil0 str2" d="M5357 9753l0 -334 142 0c35,0 61,3 77,9 17,6 30,17 39,32 10,16 15,33 15,53 0,25 -7,46 -22,62 -15,16 -37,27 -66,31 15,8 27,18 36,28 10,10 22,28 38,54l41 65 -81 0 -48 -73c-17,-25 -29,-42 -36,-49 -6,-6 -13,-11 -20,-13 -7,-3 -18,-4 -34,-4l-14 0 0 139 -67 0zm67 -192l50 0c33,0 53,-2 61,-4 8,-3 14,-8 19,-15 4,-6 6,-15 6,-25 0,-11 -3,-20 -9,-27 -6,-7 -14,-11 -25,-13 -5,-1 -22,-1 -49,-1l-53 0 0 85z"/>
  <polygon id="13" class="fil0 str2" points="5693,9753 5693,9419 5941,9419 5941,9476 5761,9476 5761,9550 5928,9550 5928,9606 5761,9606 5761,9697 5947,9697 5947,9753 "/>
  <polygon id="14" class="fil0 str2" points="6006,9753 6006,9422 6074,9422 6074,9697 6242,9697 6242,9753 "/>
  <polygon id="15" class="fil0 str2" points="6290,9753 6290,9419 6537,9419 6537,9476 6357,9476 6357,9550 6524,9550 6524,9606 6357,9606 6357,9697 6543,9697 6543,9753 "/>
  <path id="16" class="fil0 str2" d="M6902 9753l-73 0 -29 -76 -134 0 -28 76 -71 0 129 -334 72 0 134 334zm-124 -132l-47 -124 -45 124 92 0z"/>
  <path id="17" class="fil0 str2" d="M6920 9645l66 -6c4,22 11,38 23,48 13,10 29,15 49,15 22,0 38,-4 49,-13 11,-9 17,-20 17,-32 0,-8 -3,-15 -7,-21 -5,-5 -13,-10 -24,-14 -8,-3 -26,-8 -54,-15 -36,-9 -61,-20 -76,-33 -20,-18 -31,-41 -31,-67 0,-17 5,-33 15,-48 9,-15 23,-26 41,-34 18,-8 40,-12 66,-12 42,0 73,10 94,28 21,19 32,43 33,74l-67 3c-3,-18 -9,-30 -19,-37 -9,-8 -23,-12 -42,-12 -19,0 -35,4 -46,12 -7,6 -10,13 -10,21 0,8 3,15 10,21 8,7 29,14 62,22 32,8 56,16 72,24 16,8 28,20 37,34 9,14 13,32 13,53 0,19 -5,37 -16,54 -10,17 -25,29 -45,37 -19,8 -43,12 -72,12 -43,0 -75,-9 -98,-29 -22,-19 -36,-48 -40,-85z"/>
  <polygon id="18" class="fil0 str2" points="7249,9753 7249,9419 7496,9419 7496,9476 7316,9476 7316,9550 7483,9550 7483,9606 7316,9606 7316,9697 7502,9697 7502,9753 "/>
  <polygon id="19" class="fil0 str2" points="7689,9753 7689,9419 7757,9419 7757,9551 7889,9551 7889,9419 7956,9419 7956,9753 7889,9753 7889,9607 7757,9607 7757,9753 "/>
  <path id="20" class="fil0 str2" d="M8327 9753l-73 0 -29 -76 -134 0 -27 76 -72 0 130 -334 71 0 134 334zm-124 -132l-46 -124 -45 124 91 0z"/>
  <polygon id="21" class="fil0 str2" points="8363,9753 8363,9419 8428,9419 8566,9643 8566,9419 8628,9419 8628,9753 8561,9753 8426,9534 8426,9753 "/>
  <path id="22" class="fil0 str2" d="M8700 9419l123 0c28,0 49,2 63,7 20,5 37,16 51,30 14,15 24,33 31,55 8,21 11,47 11,79 0,27 -3,51 -10,71 -8,24 -20,44 -36,59 -11,11 -27,20 -47,26 -15,5 -35,7 -59,7l-127 0 0 -334zm68 57l0 221 50 0c18,0 32,-1 40,-3 11,-3 20,-8 27,-14 8,-7 13,-17 18,-32 5,-15 7,-36 7,-62 0,-25 -2,-45 -7,-59 -5,-14 -11,-25 -19,-32 -8,-8 -19,-13 -31,-16 -10,-2 -28,-3 -55,-3l-30 0z"/>
  <polygon id="23" class="fil0 str2" points="9039,9753 9039,9422 9106,9422 9106,9697 9274,9697 9274,9753 "/>
  <polygon id="24" class="fil0 str2" points="9322,9753 9322,9419 9569,9419 9569,9476 9389,9476 9389,9550 9556,9550 9556,9606 9389,9606 9389,9697 9575,9697 9575,9753 "/>
  <path class="fil0 str1" d="M9831 3639l-9769 0 -98 0 0 98 0 333 -1005 -1044 1005 -1045 0 334 0 98 98 0 9769 0 0 1226zm-9671 196l9770 0 98 0 0 -98 0 -1422 0 -99 -98 0 -9770 0 0 -479 0 -244 -169 176 -1239 1289 -65 68 65 68 1239 1288 169 176 0 -244 0 -479z"/>
  <path class="fil0 str2" d="M39 3444l0 -837 356 0c90,0 155,8 195,23 41,15 73,42 98,80 24,39 36,82 36,132 0,63 -18,115 -55,156 -37,40 -92,66 -165,77 37,21 67,44 90,70 24,26 56,71 96,136l102 163 -202 0 -121 -183c-43,-64 -73,-105 -89,-122 -16,-17 -33,-29 -51,-35 -18,-6 -47,-9 -86,-9l-34 0 0 349 -170 0zm170 -483l125 0c81,0 131,-3 152,-10 20,-7 36,-19 47,-35 12,-17 17,-38 17,-63 0,-28 -7,-51 -22,-69 -15,-17 -37,-28 -64,-32 -14,-2 -55,-3 -123,-3l-132 0 0 212z"/>
  <polygon id="1" class="fil0 str2" points="883,3444 883,2607 1503,2607 1503,2749 1053,2749 1053,2935 1471,2935 1471,3076 1053,3076 1053,3303 1519,3303 1519,3444 "/>
  <path id="2" class="fil0 str2" d="M1619 3173l164 -16c10,55 30,95 60,121 31,26 71,39 123,39 54,0 95,-12 122,-35 28,-23 41,-50 41,-80 0,-20 -5,-37 -17,-51 -11,-14 -32,-26 -61,-36 -19,-7 -64,-19 -134,-37 -90,-22 -154,-50 -190,-83 -51,-46 -77,-102 -77,-169 0,-42 12,-82 36,-120 24,-37 59,-65 104,-85 46,-19 100,-29 165,-29 104,0 183,23 236,70 53,46 81,108 83,186l-169 6c-7,-43 -23,-74 -46,-93 -24,-19 -59,-29 -106,-29 -49,0 -87,11 -115,31 -18,13 -27,30 -27,52 0,20 9,37 26,51 21,18 72,37 154,56 82,19 143,40 182,60 40,21 70,49 93,85 22,36 33,81 33,134 0,48 -13,93 -40,134 -27,42 -64,74 -113,94 -49,20 -110,30 -182,30 -106,0 -187,-24 -244,-73 -57,-49 -90,-120 -101,-213z"/>
  <path id="3" class="fil0 str2" d="M2978 3136l164 50c-26,92 -67,160 -126,205 -58,45 -132,67 -222,67 -111,0 -203,-38 -274,-114 -72,-76 -108,-180 -108,-311 0,-140 36,-248 108,-325 72,-77 167,-116 284,-116 102,0 186,31 249,91 39,36 67,87 86,155l-167 39c-10,-43 -31,-77 -62,-102 -31,-25 -70,-38 -114,-38 -63,0 -113,22 -152,67 -38,44 -58,116 -58,216 0,106 19,181 57,226 39,45 88,67 149,67 45,0 84,-14 116,-43 32,-28 56,-73 70,-134z"/>
  <path id="4" class="fil0 str2" d="M3287 2607l169 0 0 454c0,72 2,118 6,140 8,34 24,62 51,82 27,21 64,31 111,31 47,0 83,-9 107,-29 24,-20 39,-44 44,-72 5,-29 7,-76 7,-142l0 -464 170 0 0 440c0,101 -5,172 -14,213 -9,42 -26,77 -50,106 -25,28 -58,51 -98,68 -42,17 -95,25 -161,25 -80,0 -140,-9 -181,-27 -41,-19 -74,-43 -98,-72 -24,-30 -39,-61 -47,-93 -11,-48 -16,-119 -16,-213l0 -447z"/>
  <polygon id="5" class="fil0 str2" points="4131,3444 4131,2607 4750,2607 4750,2749 4300,2749 4300,2935 4719,2935 4719,3076 4300,3076 4300,3303 4766,3303 4766,3444 "/>
  <polygon class="fil0 str2" points="5245,2932 5245,2598 5346,2598 5406,2826 5465,2598 5567,2598 5567,2932 5504,2932 5504,2669 5438,2932 5373,2932 5308,2669 5308,2932 "/>
  <path id="1" class="fil0 str2" d="M5935 2932l-72 0 -29 -76 -134 0 -28 76 -71 0 129 -334 72 0 133 334zm-123 -132l-47 -124 -45 124 92 0z"/>
  <polygon id="2" class="fil0 str2" points="5971,2932 5971,2598 6037,2598 6174,2822 6174,2598 6237,2598 6237,2932 6169,2932 6034,2713 6034,2932 "/>
  <path id="3" class="fil0 str2" d="M6308 2598l68 0 0 181c0,29 1,48 2,56 3,14 10,25 21,33 11,8 25,12 44,12 19,0 33,-3 43,-11 9,-8 15,-18 17,-29 2,-12 3,-30 3,-57l0 -185 68 0 0 176c0,40 -2,68 -6,85 -3,16 -10,30 -20,42 -10,11 -23,20 -39,27 -16,7 -38,10 -64,10 -32,0 -56,-3 -72,-11 -17,-7 -30,-17 -39,-29 -10,-11 -16,-24 -19,-37 -5,-19 -7,-47 -7,-84l0 -179z"/>
  <path id="4" class="fil0 str2" d="M6946 2932l-73 0 -29 -76 -134 0 -27 76 -72 0 130 -334 71 0 134 334zm-124 -132l-46 -124 -45 124 91 0z"/>
  <polygon id="5" class="fil0 str2" points="6984,2932 6984,2601 7052,2601 7052,2876 7219,2876 7219,2932 "/>
  <path id="6" class="fil0 str2" d="M7602 2809l65 20c-10,37 -27,64 -50,82 -23,18 -53,27 -89,27 -44,0 -81,-15 -109,-46 -29,-30 -43,-71 -43,-124 0,-56 14,-99 43,-130 29,-30 67,-46 113,-46 41,0 74,12 100,36 15,15 27,35 34,62l-67 16c-4,-17 -12,-31 -24,-41 -13,-10 -28,-15 -46,-15 -25,0 -45,9 -60,27 -16,17 -24,46 -24,86 0,42 8,72 23,90 16,18 35,27 60,27 18,0 33,-6 46,-17 13,-12 22,-29 28,-54z"/>
  <path id="7" class="fil0 str2" d="M8026 2932l-73 0 -29 -76 -134 0 -28 76 -71 0 130 -334 71 0 134 334zm-124 -132l-46 -124 -45 124 91 0z"/>
  <polygon id="8" class="fil0 str2" points="8062,2932 8062,2598 8127,2598 8265,2822 8265,2598 8327,2598 8327,2932 8260,2932 8124,2713 8124,2932 "/>
  <path id="9" class="fil0 str2" d="M8385 2767c0,-34 5,-62 15,-86 8,-17 18,-32 31,-45 13,-14 28,-24 43,-31 21,-8 45,-13 72,-13 50,0 89,15 119,46 29,31 44,73 44,128 0,54 -15,96 -44,126 -29,31 -69,46 -118,46 -49,0 -89,-15 -118,-45 -30,-31 -44,-72 -44,-126zm69 -2c0,38 9,67 26,86 18,20 40,29 67,29 27,0 49,-9 66,-29 18,-19 26,-48 26,-87 0,-38 -8,-67 -25,-86 -17,-19 -39,-28 -67,-28 -28,0 -50,10 -67,29 -17,19 -26,48 -26,86z"/>
  <path id="10" class="fil0 str2" d="M8761 2932l0 -334 109 0c41,0 67,2 80,5 19,5 35,16 48,33 13,17 19,38 19,65 0,21 -4,38 -11,52 -7,14 -17,25 -28,33 -12,8 -23,13 -35,15 -16,4 -40,5 -70,5l-44 0 0 126 -68 0zm68 -277l0 95 37 0c26,0 44,-2 53,-5 9,-4 16,-9 21,-17 5,-7 8,-16 8,-26 0,-12 -4,-22 -11,-30 -7,-8 -16,-13 -27,-15 -8,-2 -24,-2 -48,-2l-33 0z"/>
  <polygon id="11" class="fil0 str2" points="9160,2932 9160,2792 9038,2598 9117,2598 9196,2730 9273,2598 9350,2598 9228,2792 9228,2932 "/>
  <path id="12" class="fil0 str2" d="M5246 3453l0 -334 142 0c36,0 62,3 78,9 16,6 29,17 39,32 9,16 14,33 14,53 0,25 -7,46 -22,62 -14,16 -36,27 -65,31 14,8 26,18 35,28 10,10 23,28 39,54l40 65 -80 0 -49 -73c-17,-25 -29,-42 -35,-49 -7,-6 -13,-11 -20,-13 -8,-3 -19,-4 -35,-4l-13 0 0 139 -68 0zm68 -192l50 0c32,0 52,-2 60,-4 8,-3 15,-8 19,-15 5,-6 7,-15 7,-25 0,-11 -3,-20 -9,-27 -6,-7 -15,-11 -25,-13 -6,-1 -22,-1 -50,-1l-52 0 0 85z"/>
  <polygon id="13" class="fil0 str2" points="5583,3453 5583,3119 5830,3119 5830,3176 5651,3176 5651,3250 5818,3250 5818,3306 5651,3306 5651,3397 5837,3397 5837,3453 "/>
  <polygon id="14" class="fil0 str2" points="5896,3453 5896,3122 5964,3122 5964,3397 6131,3397 6131,3453 "/>
  <polygon id="15" class="fil0 str2" points="6179,3453 6179,3119 6426,3119 6426,3176 6247,3176 6247,3250 6414,3250 6414,3306 6247,3306 6247,3397 6433,3397 6433,3453 "/>
  <path id="16" class="fil0 str2" d="M6791 3453l-73 0 -29 -76 -134 0 -27 76 -72 0 130 -334 71 0 134 334zm-124 -132l-46 -124 -45 124 91 0z"/>
  <path id="17" class="fil0 str2" d="M6809 3345l66 -6c4,22 12,38 24,48 12,10 28,15 49,15 21,0 38,-4 49,-13 11,-9 16,-20 16,-32 0,-8 -2,-15 -7,-21 -4,-5 -13,-10 -24,-14 -8,-3 -26,-8 -54,-15 -36,-9 -61,-20 -76,-33 -20,-18 -30,-41 -30,-67 0,-17 5,-33 14,-48 10,-15 24,-26 42,-34 18,-8 40,-12 65,-12 42,0 74,10 95,28 21,19 32,43 33,74l-68 3c-3,-18 -9,-30 -18,-37 -10,-8 -24,-12 -43,-12 -19,0 -34,4 -45,12 -7,6 -11,12 -11,21 0,8 3,15 10,20 9,8 29,15 62,23 33,8 57,16 73,24 15,8 28,20 36,34 9,14 14,32 14,53 0,19 -6,37 -16,54 -11,17 -26,29 -45,37 -20,8 -44,12 -73,12 -42,0 -75,-9 -97,-29 -23,-19 -36,-48 -41,-85z"/>
  <polygon id="18" class="fil0 str2" points="7138,3453 7138,3119 7385,3119 7385,3176 7206,3176 7206,3250 7373,3250 7373,3306 7206,3306 7206,3397 7392,3397 7392,3453 "/>
  <polygon id="19" class="fil0 str2" points="7579,3453 7579,3119 7646,3119 7646,3251 7778,3251 7778,3119 7846,3119 7846,3453 7778,3453 7778,3307 7646,3307 7646,3453 "/>
  <path id="20" class="fil0 str2" d="M8216 3453l-72 0 -29 -76 -134 0 -28 76 -71 0 129 -334 72 0 133 334zm-123 -132l-47 -124 -45 124 92 0z"/>
  <polygon id="21" class="fil0 str2" points="8252,3453 8252,3119 8318,3119 8455,3343 8455,3119 8518,3119 8518,3453 8450,3453 8315,3234 8315,3453 "/>
  <path id="22" class="fil0 str2" d="M8589 3119l123 0c28,0 49,2 64,7 19,5 36,16 50,30 14,15 25,33 32,55 7,21 11,47 11,79 0,27 -4,51 -11,71 -8,24 -20,44 -35,59 -12,11 -28,20 -48,26 -14,5 -34,7 -59,7l-127 0 0 -334zm68 57l0 221 50 0c19,0 32,-1 41,-3 11,-3 20,-8 27,-14 7,-7 13,-17 17,-32 5,-15 7,-36 7,-62 0,-25 -2,-45 -7,-59 -4,-14 -11,-25 -19,-32 -8,-8 -18,-13 -31,-16 -9,-2 -28,-3 -55,-3l-30 0z"/>
  <polygon id="23" class="fil0 str2" points="8928,3453 8928,3122 8996,3122 8996,3397 9163,3397 9163,3453 "/>
  <polygon id="24" class="fil0 str2" points="9211,3453 9211,3119 9458,3119 9458,3176 9279,3176 9279,3250 9446,3250 9446,3306 9279,3306 9279,3397 9465,3397 9465,3453 "/>
  <path class="fil1 str2" d="M7743 11528c211,212 341,503 341,826 0,322 -130,613 -341,825 -159,158 -362,271 -590,318 -24,13 -41,39 -41,68l0 293 972 0 0 389 -2236 0 0 -389 875 0 0 -422c0,-130 81,-242 194,-288 26,-11 51,-17 76,-20 5,-1 11,-1 16,-2 178,-21 338,-102 458,-222 141,-141 228,-336 228,-550 0,-215 -87,-410 -228,-551 -140,-140 -335,-227 -550,-227 -214,0 -409,87 -550,227 -26,27 -50,54 -72,84l-447 0c58,-135 142,-256 244,-359 211,-211 503,-341 825,-341 323,0 614,130 826,341z"/>
  <polygon class="fil1 str0" points="-996,11218 645,11218 645,12859 14,12859 788,14197 409,14197 -176,13187 -760,14197 -1140,14197 -365,12859 -996,12859 "/>
  <path class="fil1 str2" d="M10809 11528c211,212 342,503 342,826 0,322 -131,613 -342,825 -158,158 -361,271 -589,318 -25,13 -41,39 -41,68l0 293 972 0 0 389 -2237 0 0 -389 876 0 0 -422c0,-130 80,-242 194,-288 25,-11 51,-17 76,-20 5,-1 10,-1 15,-2 179,-21 339,-102 459,-222 141,-141 228,-336 228,-550 0,-215 -87,-410 -228,-551 -141,-140 -335,-227 -550,-227 -215,0 -409,87 -550,227 -26,27 -50,54 -72,84l-448 0c59,-135 143,-256 245,-359 211,-211 503,-341 825,-341 322,0 614,130 825,341z"/>
  <polygon class="fil1 str0" points="2070,11218 3711,11218 3711,12859 3081,12859 3855,14197 3476,14197 2891,13187 2306,14197 1927,14197 2701,12859 2070,12859 "/>
  <polygon class="fil1 str2" points="16666,16574 14750,13256 12835,9938 16666,9938 20497,9938 18581,13256 "/>
  <polygon class="fil0 str2" points="13978,11483 13978,10689 14566,10689 14566,10823 14139,10823 14139,10999 14536,10999 14536,11133 14139,11133 14139,11348 14581,11348 14581,11483 "/>
  <path id="1" class="fil0 str2" d="M15003 10689l160 0 0 503c0,65 -5,116 -17,152 -15,46 -44,83 -84,111 -41,28 -95,42 -162,42 -78,0 -138,-22 -180,-66 -43,-43 -64,-108 -64,-192l152 -18c1,45 8,77 19,96 17,28 44,42 79,42 35,0 60,-10 75,-30 14,-21 22,-63 22,-127l0 -513z"/>
  <polygon id="2" class="fil0 str2" points="15334,11483 15334,10689 15922,10689 15922,10823 15495,10823 15495,10999 15892,10999 15892,11133 15495,11133 15495,11348 15938,11348 15938,11483 "/>
  <path id="3" class="fil0 str2" d="M16582 11190l155 48c-24,87 -64,152 -119,194 -55,43 -126,64 -211,64 -105,0 -192,-36 -260,-108 -68,-72 -102,-171 -102,-296 0,-132 34,-235 102,-308 69,-73 158,-110 270,-110 97,0 176,29 236,87 37,34 64,82 82,146l-159 38c-9,-41 -29,-74 -59,-98 -29,-23 -66,-35 -108,-35 -59,0 -107,21 -144,63 -36,42 -55,111 -55,205 0,100 18,172 54,214 37,43 84,64 141,64 43,0 80,-13 111,-40 30,-27 52,-70 66,-128z"/>
  <polygon id="4" class="fil0 str2" points="17053,11483 17053,10823 16818,10823 16818,10689 17448,10689 17448,10823 17214,10823 17214,11483 "/>
  <polygon id="5" class="fil0 str2" points="17546,11483 17546,10689 17707,10689 17707,11483 "/>
  <path id="6" class="fil0 str2" d="M17827 11090c0,-81 12,-149 36,-204 18,-40 43,-76 74,-109 31,-32 65,-56 103,-71 49,-21 106,-32 171,-32 117,0 211,37 281,109 70,73 105,174 105,304 0,128 -35,229 -104,301 -70,73 -163,109 -280,109 -118,0 -212,-36 -282,-108 -69,-72 -104,-172 -104,-299zm165 -5c0,90 21,158 62,205 42,46 95,69 159,69 64,0 116,-23 158,-69 41,-46 61,-115 61,-207 0,-91 -20,-159 -60,-204 -40,-45 -93,-67 -159,-67 -66,0 -120,22 -160,68 -41,45 -61,114 -61,205z"/>
  <polygon id="7" class="fil0 str2" points="18722,11483 18722,10689 18878,10689 19205,11221 19205,10689 19353,10689 19353,11483 19193,11483 18871,10961 18871,11483 "/>
  <path class="fil0 str2" d="M15259 12374l157 -16c9,53 28,91 57,115 28,25 67,37 115,37 52,0 91,-11 117,-33 26,-21 39,-47 39,-76 0,-19 -6,-35 -17,-48 -11,-13 -30,-25 -57,-34 -19,-7 -61,-18 -128,-35 -85,-21 -145,-48 -180,-79 -49,-44 -73,-97 -73,-160 0,-41 12,-79 34,-114 23,-35 56,-62 99,-81 43,-18 95,-27 156,-27 99,0 174,22 224,66 50,44 77,103 79,177l-160 5c-7,-41 -22,-70 -44,-88 -23,-18 -56,-27 -101,-27 -46,0 -82,9 -108,29 -17,12 -26,28 -26,49 0,19 8,35 24,48 20,18 69,35 147,54 78,18 135,37 172,57 38,20 67,46 88,81 21,34 32,76 32,126 0,45 -13,88 -38,128 -26,40 -61,69 -107,88 -47,20 -104,29 -173,29 -101,0 -178,-23 -231,-69 -54,-46 -86,-114 -97,-202z"/>
  <polygon id="1" class="fil0 str2" points="16041,12631 16041,11837 16629,11837 16629,11971 16202,11971 16202,12148 16599,12148 16599,12282 16202,12282 16202,12497 16644,12497 16644,12631 "/>
  <path id="2" class="fil0 str2" d="M17496 12631l-173 0 -69 -181 -318 0 -66 181 -170 0 308 -794 170 0 318 794zm-294 -315l-110 -294 -108 294 218 0z"/>
  <polygon id="3" class="fil0 str2" points="17678,12631 17678,11971 17442,11971 17442,11837 18072,11837 18072,11971 17838,11971 17838,12631 "/>
  <path class="fil0 str2" d="M14307 8802l292 0c66,0 116,5 151,15 46,14 86,38 119,73 33,35 59,78 76,129 17,50 26,113 26,187 0,66 -8,122 -25,169 -19,58 -48,105 -84,141 -28,27 -66,48 -113,63 -35,11 -82,17 -141,17l-301 0 0 -794zm160 134l0 526 120 0c44,0 76,-3 96,-8 26,-6 48,-18 65,-33 17,-16 31,-41 41,-77 11,-35 17,-84 17,-145 0,-61 -6,-108 -17,-141 -10,-33 -26,-59 -45,-77 -19,-18 -44,-31 -74,-37 -22,-5 -66,-8 -131,-8l-72 0z"/>
  <path id="1" class="fil0 str2" d="M15823 9596l-174 0 -68 -181 -319 0 -66 181 -170 0 309 -794 169 0 319 794zm-294 -315l-111 -294 -107 294 218 0z"/>
  <polygon id="2" class="fil0 str2" points="15908,9596 15908,8802 16064,8802 16390,9334 16390,8802 16539,8802 16539,9596 16378,9596 16057,9074 16057,9596 "/>
  <path id="3" class="fil0 str2" d="M17078 9304l0 -134 345 0 0 317c-34,32 -82,61 -146,86 -64,25 -128,37 -193,37 -83,0 -156,-17 -217,-52 -62,-35 -108,-85 -139,-150 -31,-65 -47,-136 -47,-212 0,-83 17,-156 52,-221 35,-64 85,-114 152,-148 51,-26 114,-40 190,-40 99,0 176,21 231,63 55,41 91,98 107,171l-160 30c-11,-39 -32,-69 -63,-92 -30,-23 -69,-34 -115,-34 -70,0 -126,22 -167,67 -41,44 -62,110 -62,198 0,94 21,165 63,212 42,47 97,71 164,71 34,0 67,-7 101,-20 34,-13 63,-29 87,-48l0 -101 -183 0z"/>
  <polygon id="4" class="fil0 str2" points="17571,9596 17571,8802 18159,8802 18159,8936 17732,8936 17732,9112 18129,9112 18129,9247 17732,9247 17732,9462 18174,9462 18174,9596 "/>
  <path id="5" class="fil0 str2" d="M18311 9596l0 -794 337 0c85,0 147,7 185,21 39,15 70,40 93,76 23,37 35,78 35,125 0,60 -18,109 -53,148 -35,39 -87,63 -156,73 34,21 63,43 85,67 23,24 53,67 91,129l97 155 -192 0 -115 -174c-41,-61 -69,-100 -85,-116 -15,-16 -31,-27 -48,-33 -17,-6 -44,-9 -81,-9l-32 0 0 332 -161 0zm161 -458l118 0c77,0 125,-3 144,-10 19,-6 34,-18 45,-34 11,-15 16,-35 16,-59 0,-27 -7,-48 -21,-65 -14,-17 -34,-27 -60,-31 -13,-2 -52,-3 -117,-3l-125 0 0 202z"/>
  <path class="fil0 str2" d="M13284 11409l146 254c33,57 54,103 63,138 11,47 10,94 -4,140 -14,46 -38,89 -73,130 -36,40 -86,79 -150,116 -57,33 -109,54 -158,63 -60,12 -115,11 -164,-3 -38,-11 -75,-33 -111,-66 -28,-25 -56,-63 -86,-114l-150 -261 687 -397zm-36 207l-455 263 60 103c22,38 41,65 55,79 18,20 39,33 61,40 22,7 51,6 87,-2 36,-9 81,-28 134,-59 53,-31 91,-59 114,-85 23,-25 38,-51 44,-77 6,-26 5,-54 -5,-83 -6,-22 -26,-61 -59,-117l-36 -62z"/>
  <path id="1" class="fil0 str2" d="M13355 13119l-87 -150 122 -150 -159 -275 -189 33 -85 -147 841 -130 85 147 -528 672zm126 -412l199 -242 -308 54 109 188z"/>
  <polygon id="2" class="fil0 str2" points="13397,13193 14085,12796 14163,12931 13865,13480 14326,13214 14400,13343 13713,13740 13633,13601 13924,13061 13472,13322 "/>
  <path id="3" class="fil0 str2" d="M14235 14061l116 -67 173 298 -275 159c-45,-13 -94,-41 -147,-84 -54,-42 -97,-92 -129,-149 -42,-71 -63,-143 -63,-214 -1,-70 19,-136 60,-195 41,-59 94,-108 160,-146 72,-42 144,-63 217,-66 73,-2 142,17 205,58 48,31 91,79 129,145 49,85 70,162 62,231 -9,69 -40,128 -96,178l-105 -123c28,-29 44,-63 48,-101 4,-38 -5,-77 -28,-117 -35,-60 -82,-97 -141,-111 -59,-13 -127,2 -203,46 -81,47 -132,100 -152,160 -20,60 -13,119 21,178 16,29 39,55 67,77 29,23 57,40 85,51l87 -50 -91 -158z"/>
  <polygon id="4" class="fil0 str2" points="14229,14634 14917,14237 15210,14746 15094,14813 14881,14443 14728,14531 14927,14875 14810,14942 14612,14598 14426,14706 14647,15089 14531,15156 "/>
  <path id="5" class="fil0 str2" d="M14599 15274l687 -397 169 293c43,73 67,130 74,170 7,41 1,80 -19,118 -21,39 -51,70 -91,93 -52,30 -103,40 -154,29 -51,-11 -99,-44 -142,-99 0,40 -5,76 -15,107 -10,32 -32,79 -66,143l-86 162 -96 -166 93 -187c32,-66 52,-110 58,-131 6,-21 8,-41 5,-59 -4,-17 -15,-42 -33,-74l-17 -28 -287 165 -80 -139zm477 -90l59 103c39,67 65,106 81,120 15,13 32,21 51,22 19,1 39,-4 60,-16 23,-13 38,-30 45,-51 8,-20 7,-43 -3,-67 -5,-13 -23,-47 -56,-103l-62 -109 -175 101z"/>
  <path class="fil0 str2" d="M17715 15449l146 -253c33,-57 63,-98 89,-123 35,-33 76,-56 123,-67 47,-11 96,-12 149,-1 52,10 111,34 175,71 57,33 102,68 134,106 41,46 67,94 79,143 10,38 10,81 -1,129 -8,37 -26,80 -56,131l-151 261 -687 -397zm196 -72l456 263 59 -103c23,-39 36,-68 42,-88 7,-26 8,-50 4,-72 -5,-23 -20,-48 -46,-75 -25,-27 -65,-56 -118,-86 -53,-31 -96,-50 -130,-57 -34,-7 -64,-7 -89,1 -26,8 -49,23 -70,45 -15,17 -39,54 -72,110l-36 62z"/>
  <path id="1" class="fil0 str2" d="M19160 14533l-86 150 -191 -31 -159 276 123 147 -85 148 -533 -664 85 -147 846 121zm-419 97l-310 -51 201 240 109 -189z"/>
  <polygon id="2" class="fil0 str2" points="19203,14459 18516,14062 18593,13927 19218,13911 18757,13645 18831,13516 19519,13913 19438,14052 18826,14070 19277,14330 "/>
  <path id="3" class="fil0 str2" d="M19536 13300l-117 -67 173 -299 274 159c12,45 12,102 2,169 -10,68 -32,130 -65,186 -41,72 -92,126 -153,162 -61,36 -128,51 -200,46 -71,-6 -140,-28 -206,-66 -72,-42 -127,-93 -166,-156 -38,-62 -56,-130 -52,-205 3,-58 23,-119 61,-185 49,-85 105,-141 169,-169 64,-27 131,-29 202,-6l-54 153c-39,-10 -76,-7 -111,8 -35,16 -64,43 -87,83 -35,61 -44,120 -26,178 18,58 65,109 141,153 81,47 153,64 215,51 62,-12 109,-48 143,-107 17,-29 28,-61 34,-97 5,-36 6,-69 1,-99l-87 -50 -91 158z"/>
  <polygon id="4" class="fil0 str2" points="20035,13019 19347,12622 19641,12113 19757,12180 19544,12550 19697,12638 19895,12294 20011,12361 19813,12705 19999,12812 20220,12429 20336,12496 "/>
  <path id="5" class="fil0 str2" d="M20405 12378l-688 -397 169 -292c42,-73 79,-123 111,-149 32,-27 69,-41 112,-43 43,-1 85,9 126,33 51,30 85,69 101,119 16,50 12,107 -14,172 34,-20 68,-33 100,-40 32,-8 85,-13 157,-15l183 -6 -96 166 -208 13c-74,5 -121,10 -143,15 -21,5 -39,14 -53,25 -13,12 -29,34 -48,66l-16 28 287 166 -80 139zm-317 -368l60 -103c38,-66 59,-109 63,-129 4,-20 2,-39 -6,-56 -9,-17 -23,-32 -44,-44 -23,-13 -45,-18 -67,-14 -21,4 -40,17 -57,37 -8,10 -28,44 -61,100l-62 108 174 101z"/>
  <polygon class="fil1 str2" points="16666,7332 14750,4015 12835,697 16666,697 20497,697 18581,4015 "/>
  <polygon class="fil0 str2" points="13978,2241 13978,1447 14566,1447 14566,1581 14139,1581 14139,1757 14536,1757 14536,1892 14139,1892 14139,2107 14581,2107 14581,2241 "/>
  <path id="1" class="fil0 str2" d="M15003 1447l160 0 0 503c0,66 -5,116 -17,152 -15,46 -44,83 -84,111 -41,28 -95,42 -162,42 -78,0 -138,-21 -180,-65 -43,-44 -64,-108 -64,-193l152 -18c1,46 8,77 19,96 17,29 44,43 79,43 35,0 60,-10 75,-31 14,-20 22,-62 22,-127l0 -513z"/>
  <polygon id="2" class="fil0 str2" points="15334,2241 15334,1447 15922,1447 15922,1581 15495,1581 15495,1757 15892,1757 15892,1892 15495,1892 15495,2107 15938,2107 15938,2241 "/>
  <path id="3" class="fil0 str2" d="M16582 1948l155 48c-24,87 -64,152 -119,195 -55,42 -126,63 -211,63 -105,0 -192,-36 -260,-108 -68,-72 -102,-170 -102,-296 0,-132 34,-234 102,-308 69,-73 158,-109 270,-109 97,0 176,28 236,86 37,34 64,83 82,146l-159 38c-9,-41 -29,-73 -59,-97 -29,-24 -66,-36 -108,-36 -59,0 -107,21 -144,63 -36,43 -55,111 -55,206 0,100 18,171 54,214 37,42 84,64 141,64 43,0 80,-14 111,-41 30,-27 52,-70 66,-128z"/>
  <polygon id="4" class="fil0 str2" points="17053,2241 17053,1581 16818,1581 16818,1447 17448,1447 17448,1581 17214,1581 17214,2241 "/>
  <polygon id="5" class="fil0 str2" points="17546,2241 17546,1447 17707,1447 17707,2241 "/>
  <path id="6" class="fil0 str2" d="M17827 1849c0,-81 12,-149 36,-204 18,-41 43,-77 74,-109 31,-32 65,-56 103,-72 49,-21 106,-31 171,-31 117,0 211,36 281,109 70,72 105,174 105,303 0,128 -35,229 -104,301 -70,73 -163,109 -280,109 -118,0 -212,-36 -282,-108 -69,-72 -104,-171 -104,-298zm165 -6c0,90 21,159 62,205 42,47 95,70 159,70 64,0 116,-23 158,-69 41,-46 61,-116 61,-208 0,-91 -20,-159 -60,-204 -40,-45 -93,-67 -159,-67 -66,0 -120,23 -160,68 -41,46 -61,114 -61,205z"/>
  <polygon id="7" class="fil0 str2" points="18722,2241 18722,1447 18878,1447 19205,1979 19205,1447 19353,1447 19353,2241 19193,2241 18871,1719 18871,2241 "/>
  <path class="fil0 str2" d="M15259 3132l157 -15c9,52 28,90 57,115 28,24 67,37 115,37 52,0 91,-11 117,-33 26,-22 39,-47 39,-77 0,-19 -6,-34 -17,-48 -11,-13 -30,-24 -57,-34 -19,-7 -61,-18 -128,-35 -85,-21 -145,-47 -180,-79 -49,-43 -73,-97 -73,-160 0,-40 12,-78 34,-114 23,-35 56,-62 99,-80 43,-19 95,-28 156,-28 99,0 174,22 224,66 50,44 77,103 79,177l-160 5c-7,-41 -22,-70 -44,-88 -23,-18 -56,-27 -101,-27 -46,0 -82,10 -108,29 -17,12 -26,29 -26,49 0,19 8,35 24,49 20,17 69,35 147,53 78,18 135,38 172,57 38,20 67,47 88,81 21,34 32,76 32,126 0,46 -13,89 -38,128 -26,40 -61,70 -107,89 -47,19 -104,29 -173,29 -101,0 -178,-23 -231,-70 -54,-46 -86,-113 -97,-202z"/>
  <polygon id="1" class="fil0 str2" points="16041,3389 16041,2595 16629,2595 16629,2730 16202,2730 16202,2906 16599,2906 16599,3040 16202,3040 16202,3255 16644,3255 16644,3389 "/>
  <path id="2" class="fil0 str2" d="M17496 3389l-173 0 -69 -180 -318 0 -66 180 -170 0 308 -794 170 0 318 794zm-294 -315l-110 -293 -108 293 218 0z"/>
  <polygon id="3" class="fil0 str2" points="17678,3389 17678,2730 17442,2730 17442,2595 18072,2595 18072,2730 17838,2730 17838,3389 "/>
  <path class="fil0 str2" d="M14307 -440l292 0c66,0 116,5 151,15 46,14 86,38 119,74 33,35 59,77 76,128 17,51 26,113 26,188 0,65 -8,121 -25,169 -19,58 -48,104 -84,140 -28,27 -66,48 -113,63 -35,12 -82,17 -141,17l-301 0 0 -794zm160 134l0 526 120 0c44,0 76,-3 96,-8 26,-6 48,-17 65,-33 17,-15 31,-41 41,-76 11,-36 17,-84 17,-146 0,-61 -6,-108 -17,-141 -10,-33 -26,-58 -45,-77 -19,-18 -44,-31 -74,-37 -22,-5 -66,-8 -131,-8l-72 0z"/>
  <path id="1" class="fil0 str2" d="M15823 354l-174 0 -68 -181 -319 0 -66 181 -170 0 309 -794 169 0 319 794zm-294 -315l-111 -294 -107 294 218 0z"/>
  <polygon id="2" class="fil0 str2" points="15908,354 15908,-440 16064,-440 16390,92 16390,-440 16539,-440 16539,354 16378,354 16057,-168 16057,354 "/>
  <path id="3" class="fil0 str2" d="M17078 63l0 -135 345 0 0 317c-34,33 -82,61 -146,86 -64,25 -128,38 -193,38 -83,0 -156,-18 -217,-53 -62,-35 -108,-85 -139,-150 -31,-64 -47,-135 -47,-212 0,-82 17,-156 52,-220 35,-65 85,-114 152,-149 51,-26 114,-39 190,-39 99,0 176,21 231,62 55,42 91,99 107,172l-160 30c-11,-39 -32,-70 -63,-93 -30,-22 -69,-34 -115,-34 -70,0 -126,23 -167,67 -41,45 -62,111 -62,198 0,94 21,165 63,212 42,47 97,71 164,71 34,0 67,-7 101,-20 34,-13 63,-29 87,-48l0 -100 -183 0z"/>
  <polygon id="4" class="fil0 str2" points="17571,354 17571,-440 18159,-440 18159,-306 17732,-306 17732,-129 18129,-129 18129,5 17732,5 17732,220 18174,220 18174,354 "/>
  <path id="5" class="fil0 str2" d="M18311 354l0 -794 337 0c85,0 147,7 185,22 39,14 70,39 93,76 23,36 35,78 35,125 0,59 -18,109 -53,147 -35,39 -87,64 -156,74 34,20 63,42 85,66 23,25 53,68 91,129l97 155 -192 0 -115 -173c-41,-62 -69,-101 -85,-117 -15,-16 -31,-27 -48,-33 -17,-5 -44,-8 -81,-8l-32 0 0 331 -161 0zm161 -458l118 0c77,0 125,-3 144,-10 19,-6 34,-17 45,-33 11,-16 16,-36 16,-60 0,-27 -7,-48 -21,-65 -14,-16 -34,-27 -60,-31 -13,-2 -52,-3 -117,-3l-125 0 0 202z"/>
  <path class="fil0 str2" d="M13284 2168l146 253c33,57 54,103 63,138 11,47 10,94 -4,140 -14,46 -38,90 -73,130 -36,40 -86,79 -150,116 -57,33 -109,54 -158,64 -60,11 -115,10 -164,-4 -38,-10 -75,-32 -111,-65 -28,-25 -56,-63 -86,-115l-150 -260 687 -397zm-36 206l-455 263 60 103c22,39 41,65 55,80 18,19 39,32 61,39 22,7 51,7 87,-2 36,-8 81,-28 134,-59 53,-30 91,-58 114,-84 23,-26 38,-52 44,-78 6,-26 5,-53 -5,-83 -6,-21 -26,-60 -59,-117l-36 -62z"/>
  <path id="1" class="fil0 str2" d="M13355 3878l-87 -150 122 -150 -159 -276 -189 33 -85 -147 841 -130 85 147 -528 673zm126 -412l199 -243 -308 54 109 189z"/>
  <polygon id="2" class="fil0 str2" points="13397,3952 14085,3555 14163,3689 13865,4238 14326,3972 14400,4101 13713,4498 13633,4359 13924,3819 13472,4080 "/>
  <path id="3" class="fil0 str2" d="M14235 4819l116 -67 173 299 -275 158c-45,-13 -94,-40 -147,-83 -54,-43 -97,-92 -129,-149 -42,-72 -63,-143 -63,-214 -1,-71 19,-136 60,-195 41,-60 94,-109 160,-147 72,-41 144,-63 217,-65 73,-2 142,17 205,57 48,31 91,80 129,145 49,85 70,163 62,231 -9,69 -40,128 -96,179l-105 -124c28,-29 44,-62 48,-101 4,-37 -5,-76 -28,-116 -35,-61 -82,-98 -141,-111 -59,-14 -127,1 -203,45 -81,47 -132,101 -152,160 -20,60 -13,120 21,178 16,29 39,55 67,78 29,22 57,39 85,51l87 -51 -91 -158z"/>
  <polygon id="4" class="fil0 str2" points="14229,5392 14917,4995 15210,5504 15094,5571 14881,5201 14728,5290 14927,5633 14810,5700 14612,5357 14426,5464 14647,5847 14531,5914 "/>
  <path id="5" class="fil0 str2" d="M14599 6032l687 -396 169 292c43,73 67,130 74,171 7,40 1,80 -19,118 -21,38 -51,69 -91,92 -52,30 -103,40 -154,29 -51,-11 -99,-44 -142,-99 0,40 -5,76 -15,107 -10,32 -32,80 -66,144l-86 161 -96 -166 93 -186c32,-67 52,-111 58,-132 6,-21 8,-41 5,-58 -4,-18 -15,-43 -33,-75l-17 -28 -287 166 -80 -140zm477 -89l59 102c39,67 65,107 81,120 15,14 32,21 51,22 19,2 39,-4 60,-15 23,-14 38,-31 45,-51 8,-21 7,-44 -3,-68 -5,-12 -23,-47 -56,-103l-62 -108 -175 101z"/>
  <path class="fil0 str2" d="M17715 6207l146 -253c33,-57 63,-98 89,-123 35,-33 76,-55 123,-67 47,-11 96,-11 149,-1 52,11 111,34 175,72 57,32 102,67 134,105 41,46 67,94 79,144 10,37 10,80 -1,129 -8,36 -26,80 -56,131l-151 260 -687 -397zm196 -72l456 263 59 -103c23,-39 36,-68 42,-87 7,-26 8,-50 4,-73 -5,-22 -20,-47 -46,-74 -25,-27 -65,-56 -118,-87 -53,-31 -96,-50 -130,-57 -34,-7 -64,-6 -89,1 -26,8 -49,23 -70,46 -15,16 -39,53 -72,109l-36 62z"/>
  <path id="1" class="fil0 str2" d="M19160 5292l-86 150 -191 -31 -159 275 123 148 -85 147 -533 -664 85 -147 846 122zm-419 97l-310 -52 201 240 109 -188z"/>
  <polygon id="2" class="fil0 str2" points="19203,5218 18516,4821 18593,4686 19218,4669 18757,4403 18831,4274 19519,4671 19438,4810 18826,4828 19277,5089 "/>
  <path id="3" class="fil0 str2" d="M19536 4059l-117 -68 173 -298 274 158c12,45 12,102 2,170 -10,67 -32,129 -65,186 -41,72 -92,125 -153,161 -61,36 -128,51 -200,46 -71,-6 -140,-28 -206,-66 -72,-41 -127,-93 -166,-155 -38,-62 -56,-131 -52,-206 3,-57 23,-119 61,-184 49,-86 105,-142 169,-169 64,-27 131,-30 202,-7l-54 153c-39,-10 -76,-7 -111,9 -35,15 -64,43 -87,83 -35,60 -44,119 -26,177 18,58 65,109 141,153 81,47 153,64 215,52 62,-13 109,-48 143,-107 17,-29 28,-62 34,-97 5,-36 6,-69 1,-100l-87 -50 -91 159z"/>
  <polygon id="4" class="fil0 str2" points="20035,3777 19347,3380 19641,2871 19757,2938 19544,3308 19697,3396 19895,3052 20011,3120 19813,3463 19999,3571 20220,3188 20336,3255 "/>
  <path id="5" class="fil0 str2" d="M20405 3137l-688 -397 169 -293c42,-73 79,-123 111,-149 32,-26 69,-40 112,-42 43,-2 85,9 126,32 51,30 85,70 101,119 16,50 12,107 -14,173 34,-20 68,-34 100,-41 32,-7 85,-12 157,-14l183 -7 -96 166 -208 13c-74,5 -121,10 -143,15 -21,6 -39,14 -53,26 -13,12 -29,34 -48,66l-16 28 287 165 -80 140zm-317 -369l60 -102c38,-67 59,-110 63,-130 4,-20 2,-38 -6,-56 -9,-17 -23,-32 -44,-43 -23,-14 -45,-18 -67,-14 -21,4 -40,16 -57,36 -8,11 -28,44 -61,100l-62 109 174 100z"/>
  <rect class="fil1 str0" x="4685" y="4421" width="472" height="1772"/>
  <rect class="fil1 str0" x="5752" y="4421" width="472" height="1772"/>
  <rect class="fil1 str0" x="6721" y="4421" width="472" height="1772"/>
 </g>
</svg>
