<?xml version="1.0" encoding="UTF-8"?>
<!DOCTYPE svg PUBLIC "-//W3C//DTD SVG 1.1//EN" "http://www.w3.org/Graphics/SVG/1.1/DTD/svg11.dtd">
<!-- Creator: CorelDRAW X7 -->
<svg xmlns="http://www.w3.org/2000/svg" xml:space="preserve" width="8.26772in" height="11.6929in" version="1.1" style="shape-rendering:geometricPrecision; text-rendering:geometricPrecision; image-rendering:optimizeQuality; fill-rule:evenodd; clip-rule:evenodd"
viewBox="0 0 8268 11693"
 xmlns:xlink="http://www.w3.org/1999/xlink">
 <defs>
  <style type="text/css">
   <![CDATA[
    .str1 {stroke:black;stroke-width:7.87402}
    .str0 {stroke:black;stroke-width:3}
    .fil1 {fill:none}
    .fil0 {fill:none;fill-rule:nonzero}
   ]]>
  </style>
 </defs>
 <g id="Layer_x0020_1">
  <metadata id="CorelCorpID_0Corel-Layer"/>
  <path class="fil0 str0" d="M-9018 6138l59 0 0 118 0 729c0,741 303,1415 792,1904 488,489 1163,792 1905,792l26315 0 516 0 -8 66 -6 52 -52 0 -26766 0c-774,0 -1477,-316 -1987,-827 -511,-510 -827,-1214 -827,-1988l0 -787 0 -59 59 0z"/>
  <path class="fil0 str0" d="M-2924 7747l28 228c5,43 23,81 49,108 23,23 54,37 89,37l4840 0c38,0 72,-15 97,-40 25,-25 41,-60 41,-98l0 -235 118 0 0 235c0,71 -29,135 -75,181 -47,47 -111,75 -181,75l-4840 0c-69,0 -128,-27 -172,-71 -45,-46 -75,-109 -83,-177l-30 -243 119 0z"/>
  <path class="fil0 str0" d="M3909 7400l5118 0c119,0 227,49 306,127 78,79 127,187 127,306 0,119 -49,227 -127,306 -79,78 -187,127 -306,127l-5118 0c-120,0 -228,-49 -306,-127 -79,-79 -128,-187 -128,-306 0,-119 49,-227 128,-306 78,-78 186,-127 306,-127z"/>
  <path class="fil0 str0" d="M9027 7479l-4414 0 0 708 4414 0c97,0 186,-40 250,-104 64,-64 104,-153 104,-250 0,-97 -40,-186 -104,-250 -64,-65 -153,-104 -250,-104z"/>
  <path class="fil0 str0" d="M4455 7479l-546 0c-98,0 -186,39 -251,104 -64,64 -104,153 -104,250 0,97 40,186 104,250 65,64 153,104 251,104l546 0 0 -708z"/>
  <path class="fil0 str0" d="M3909 6224l5118 0c119,0 227,48 306,127 78,78 127,187 127,306 0,119 -49,227 -127,306 -79,78 -187,127 -306,127l-5118 0c-120,0 -228,-49 -306,-127 -79,-79 -128,-187 -128,-306 0,-119 49,-228 128,-306 78,-79 186,-127 306,-127z"/>
  <path class="fil0 str0" d="M9027 6302l-4414 0 0 709 4414 0c97,0 186,-40 250,-104 64,-64 104,-153 104,-250 0,-98 -40,-186 -104,-250 -64,-65 -153,-105 -250,-105z"/>
  <path class="fil0 str0" d="M4455 6302l-546 0c-98,0 -186,40 -251,105 -64,64 -104,152 -104,250 0,97 40,186 104,250 65,64 153,104 251,104l546 0 0 -709z"/>
  <path class="fil0 str0" d="M10495 6753c147,0 280,60 376,156 96,96 156,229 156,376 0,147 -60,280 -156,376 -96,96 -229,155 -376,155 -146,0 -279,-59 -375,-155 -97,-96 -156,-229 -156,-376 0,-147 59,-280 156,-376 96,-96 229,-156 375,-156z"/>
  <path class="fil0 str0" d="M10047 7344c13,101 60,192 128,261 82,82 195,133 320,133 126,0 239,-51 321,-133 68,-69 115,-160 128,-261l-897 0z"/>
  <path class="fil0 str0" d="M10816 6965c-82,-82 -195,-133 -321,-133 -125,0 -238,51 -320,133 -68,69 -115,159 -128,261l897 0c-13,-102 -60,-192 -128,-261z"/>
  <path class="fil0 str0" d="M11829 6753c147,0 279,60 376,156 96,96 155,229 155,376 0,147 -59,280 -155,376 -97,96 -229,155 -376,155 -147,0 -280,-59 -376,-155 -96,-96 -156,-229 -156,-376 0,-147 60,-280 156,-376 96,-96 229,-156 376,-156z"/>
  <path class="fil0 str0" d="M11380 7344c13,101 60,192 129,261 82,82 195,133 320,133 125,0 238,-51 320,-133 69,-69 116,-160 129,-261l-898 0z"/>
  <path class="fil0 str0" d="M12149 6965c-82,-82 -195,-133 -320,-133 -125,0 -238,51 -320,133 -69,69 -116,159 -129,261l898 0c-13,-102 -60,-192 -129,-261z"/>
  <path class="fil0 str0" d="M13221 6753c147,0 280,60 376,156 96,96 156,229 156,376 0,147 -60,280 -156,376 -96,96 -229,155 -376,155 -146,0 -279,-59 -375,-155 -97,-96 -156,-229 -156,-376 0,-147 59,-280 156,-376 96,-96 229,-156 375,-156z"/>
  <path class="fil0 str0" d="M12772 7344c14,101 60,192 129,261 82,82 195,133 320,133 125,0 239,-51 321,-133 68,-69 115,-160 128,-261l-898 0z"/>
  <path class="fil0 str0" d="M13542 6965c-82,-82 -196,-133 -321,-133 -125,0 -238,51 -320,133 -69,69 -115,159 -129,261l898 0c-13,-102 -60,-192 -128,-261z"/>
  <path class="fil0 str0" d="M14555 6753c147,0 279,60 376,156 96,96 155,229 155,376 0,147 -59,280 -155,376 -97,96 -229,155 -376,155 -147,0 -280,-59 -376,-155 -96,-96 -156,-229 -156,-376 0,-147 60,-280 156,-376 96,-96 229,-156 376,-156z"/>
  <path class="fil0 str0" d="M14106 7344c13,101 60,192 129,261 82,82 195,133 320,133 125,0 238,-51 320,-133 69,-69 115,-160 129,-261l-898 0z"/>
  <path class="fil0 str0" d="M14875 6965c-82,-82 -195,-133 -320,-133 -125,0 -238,51 -320,133 -69,69 -116,159 -129,261l898 0c-14,-102 -60,-192 -129,-261z"/>
  <path class="fil0 str0" d="M-8612 5691l59 0 0 118 0 728c0,742 303,1416 792,1905 489,489 1163,792 1905,792l26315 0 517 0 -8 66 -7 52 -52 0 -26765 0c-774,0 -1478,-317 -1988,-827 -510,-510 -827,-1214 -827,-1988l0 -787 0 -59 59 0z"/>
  <path class="fil0 str0" d="M23739 5330l-59 0 0 118 0 728c0,742 -303,1416 -792,1905 -489,489 -1163,792 -1905,792l-26315 0 -517 0 8 66 6 52 53 0 26765 0c774,0 1478,-317 1988,-827 510,-510 827,-1214 827,-1988l0 -787 0 -59 -59 0z"/>
  <path class="fil0 str0" d="M22472 4941l-59 0 0 118 0 728c0,742 -303,1416 -792,1905 -489,489 -1163,792 -1905,792l-26315 0 -517 0 8 66 7 52 52 0 26765 0c774,0 1478,-317 1988,-827 510,-510 827,-1214 827,-1988l0 -787 0 -59 -59 0z"/>
  <path class="fil0 str0" d="M-2924 7082l28 228c5,43 23,81 49,108 23,23 54,37 89,37l4840 0c38,0 72,-15 97,-40 25,-25 41,-60 41,-98l0 -235 118 0 0 235c0,71 -29,135 -75,181 -47,47 -111,75 -181,75l-4840 0c-69,0 -128,-27 -172,-71 -45,-46 -75,-109 -83,-177l-30 -243 119 0z"/>
  <rect class="fil1 str1" x="-9209" y="10954" width="30277.8" height="78.7402"/>
  <rect class="fil1 str1" x="-9209" y="11149" width="30277.8" height="78.7402"/>
  <rect class="fil1 str1" x="-9209" y="10549" width="30277.8" height="78.7402"/>
  <rect class="fil1 str1" x="-9209" y="10744" width="30277.8" height="78.7402"/>
  <rect class="fil1 str1" x="-9209" y="10155" width="30278" height="118"/>
  <rect class="fil1 str1" x="-9209" y="10349" width="30278" height="118"/>
 </g>
</svg>
