<?xml version="1.0" encoding="UTF-8"?>
<!DOCTYPE svg PUBLIC "-//W3C//DTD SVG 1.1//EN" "http://www.w3.org/Graphics/SVG/1.1/DTD/svg11.dtd">
<!-- Creator: CorelDRAW X7 -->
<svg xmlns="http://www.w3.org/2000/svg" xml:space="preserve" width="8.26772in" height="11.6929in" version="1.1" style="shape-rendering:geometricPrecision; text-rendering:geometricPrecision; image-rendering:optimizeQuality; fill-rule:evenodd; clip-rule:evenodd"
viewBox="0 0 8268 11693"
 xmlns:xlink="http://www.w3.org/1999/xlink">
 <defs>
  <style type="text/css">
   <![CDATA[
    .str0 {stroke:black;stroke-width:3}
    .str1 {stroke:black;stroke-width:3}
    .fil0 {fill:none}
   ]]>
  </style>
 </defs>
 <g id="Layer_x0020_1">
  <metadata id="CorelCorpID_0Corel-Layer"/>
  <path class="fil0 str0" d="M9306 10110c38,-26 130,-133 227,-31 -5,52 -48,91 -93,103l0 20c110,10 220,71 427,25 122,-26 33,-25 192,-25 104,0 125,52 227,52 168,0 294,-52 588,-52 128,0 250,19 330,21 180,5 68,29 319,-21 43,-9 171,-41 208,-41 127,0 370,40 453,83 208,107 124,590 124,743l0 175c0,214 182,102 83,526 -48,-13 -72,-79 -97,-120 -12,-21 -3,-9 -17,-24 0,177 -33,101 -9,422 13,176 48,166 -7,242 -45,63 -7,186 -178,178 -245,-10 19,-143 19,-285 0,-213 22,-324 -93,-495 -43,28 -67,111 -86,171 -94,283 2,292 -112,404 -70,68 -32,73 -100,86 -112,22 -77,-1 -156,-1 12,-142 125,-95 170,-274 35,-144 37,-243 37,-417 -61,14 -36,26 -52,93l-41 0c-9,-37 -11,-34 -11,-83 -54,-13 -17,-4 -72,0 -12,54 2,68 -51,72 -16,-32 -11,-47 -11,-93 -94,-49 -85,-52 -134,-144 -501,265 -810,83 -898,83 -49,0 -110,-4 -152,23 -29,18 -14,-1 -26,35 -14,42 -3,123 -15,171 -36,146 -23,94 -23,276 0,45 4,70 14,109 45,169 29,92 1,175 -8,25 -7,42 -16,66 -16,46 -51,67 -91,73l-59 0c-36,-5 -71,-17 -97,-31 10,-19 16,-34 29,-54 38,-60 74,-57 74,-193 0,-82 10,-175 -19,-239 -24,-55 -49,-29 -71,-156 -3,-18 -3,-28 -7,-45 0,-3 -4,-19 -6,-24 -10,-26 -3,-10 -10,-21 0,108 -41,129 -41,381 0,91 32,138 -23,194 -93,95 -37,116 -153,116 -40,0 -77,-8 -103,-21 6,-77 48,-82 87,-129 16,-19 23,-26 33,-50 26,-58 32,-274 2,-335 -71,-144 -20,-47 -63,-174 -21,-62 -31,-40 -81,-74 -116,-77 -129,-189 -187,-267 -144,-189 -74,-201 -136,-328 -17,-34 -102,-139 -150,-160 -66,-29 -58,-10 -134,-10 -79,0 -139,-31 -197,-31 -120,0 -146,81 -232,-25 -29,-34 -10,-11 -38,-35 -31,-26 -38,-51 -39,-85l0 -48 0 -3c0,-46 65,-53 121,-105l66 -69c87,-86 69,-117 120,-200 34,-54 74,-74 106,-121 -52,-77 -62,-40 -62,-176 45,13 31,44 75,81 80,68 23,-7 152,23 -55,-82 -63,-72 -42,-165 44,11 25,20 55,59 86,111 152,52 152,199z"/>
  <path class="fil0 str1" d="M6458 -3891c99,0 180,154 180,344 0,11 0,21 -1,31l1 0 0 855 179 1056 -179 0 0 140 179 0 0 194 -179 0 0 135 -360 0 0 -135 -179 0 0 -194 179 0 0 -140 -179 0 179 -1056 0 -855 1 0c0,-10 -1,-20 -1,-31 0,-190 81,-344 180,-344z"/>
  <polygon class="fil0 str1" points="6638,-120 6638,719 6758,719 6758,2276 6159,2276 6159,719 6278,719 6278,-120 6398,-120 6398,-479 6518,-479 6518,-120 "/>
  <path class="fil0 str1" d="M6758 3797l0 1591c0,165 -135,299 -300,299 -165,0 -299,-134 -299,-299l0 -1591c0,-96 45,-181 115,-236l-115 -149 0 -479 599 0 0 479 -116 149c70,55 116,140 116,236z"/>
  <path class="fil0 str1" d="M5403 -3891c100,0 180,154 180,344 0,11 0,21 -1,31l1 0 0 855 180 1056 -180 0 0 140 180 0 0 194 -180 0 0 135 -359 0 0 -135 -180 0 0 -194 180 0 0 -140 -180 0 180 -1056 0 -855 0 0c0,-10 0,-20 0,-31 0,-190 80,-344 179,-344z"/>
  <path class="fil0 str1" d="M4349 -3891c99,0 179,154 179,344 0,11 0,21 0,31l0 0 0 855 180 1056 -180 0 0 140 180 0 0 194 -180 0 0 135 -359 0 0 -135 -180 0 0 -194 180 0 0 -140 -180 0 180 -1056 0 -855 1 0c-1,-10 -1,-20 -1,-31 0,-190 80,-344 180,-344z"/>
  <path class="fil0 str1" d="M3294 -3891c99,0 179,154 179,344 0,11 0,21 0,31l0 0 0 855 180 1056 -180 0 0 140 180 0 0 194 -180 0 0 135 -359 0 0 -135 -179 0 0 -194 179 0 0 -140 -179 0 179 -1056 0 -855 1 0c-1,-10 -1,-20 -1,-31 0,-190 81,-344 180,-344z"/>
  <path class="fil0 str1" d="M2239 -3891c99,0 180,154 180,344 0,11 -1,21 -1,31l1 0 0 855 179 1056 -179 0 0 140 179 0 0 194 -179 0 0 135 -360 0 0 -135 -179 0 0 -194 179 0 0 -140 -179 0 179 -1056 0 -855 1 0c0,-10 -1,-20 -1,-31 0,-190 81,-344 180,-344z"/>
  <polygon class="fil0 str1" points="5583,-120 5583,719 5703,719 5703,2276 5104,2276 5104,719 5224,719 5224,-120 5343,-120 5343,-479 5463,-479 5463,-120 "/>
  <polygon class="fil0 str1" points="4528,-120 4528,719 4648,719 4648,2276 4049,2276 4049,719 4169,719 4169,-120 4289,-120 4289,-479 4408,-479 4408,-120 "/>
  <polygon class="fil0 str1" points="3473,-120 3473,719 3593,719 3593,2276 2994,2276 2994,719 3114,719 3114,-120 3234,-120 3234,-479 3354,-479 3354,-120 "/>
  <polygon class="fil0 str1" points="2419,-120 2419,719 2538,719 2538,2276 1940,2276 1940,719 2059,719 2059,-120 2179,-120 2179,-479 2299,-479 2299,-120 "/>
  <polygon class="fil0 str1" points="1364,-120 1364,719 1484,719 1484,2276 885,2276 885,719 1005,719 1005,-120 1124,-120 1124,-479 1244,-479 1244,-120 "/>
  <polygon class="fil0 str1" points="309,-120 309,719 429,719 429,2276 -170,2276 -170,719 -50,719 -50,-120 70,-120 70,-479 189,-479 189,-120 "/>
  <path class="fil0 str1" d="M5703 3797l0 1591c0,165 -134,299 -300,299 -165,0 -299,-134 -299,-299l0 -1591c0,-96 45,-181 116,-236l-116 -149 0 -479 599 0 0 479 -116 149c70,55 116,140 116,236z"/>
  <path class="fil0 str1" d="M6758 7209l0 1591c0,165 -135,299 -300,299 -165,0 -299,-134 -299,-299l0 -1591c0,-96 45,-182 115,-236l-115 -149 0 -479 599 0 0 479 -116 149c70,54 116,140 116,236z"/>
  <path class="fil0 str1" d="M5703 7209l0 1591c0,165 -134,299 -300,299 -165,0 -299,-134 -299,-299l0 -1591c0,-96 45,-182 116,-236l-116 -149 0 -479 599 0 0 479 -116 149c70,54 116,140 116,236z"/>
  <path class="fil0 str1" d="M4648 3797l0 1591c0,165 -134,299 -299,299 -166,0 -300,-134 -300,-299l0 -1591c0,-96 45,-181 116,-236l-116 -149 0 -479 599 0 0 479 -116 149c71,55 116,140 116,236z"/>
  <path class="fil0 str1" d="M3593 3797l0 1591c0,165 -134,299 -299,299 -166,0 -300,-134 -300,-299l0 -1591c0,-96 46,-181 116,-236l-116 -149 0 -479 599 0 0 479 -115 149c70,55 115,140 115,236z"/>
  <path class="fil0 str1" d="M4648 7209l0 1591c0,165 -134,299 -299,299 -166,0 -300,-134 -300,-299l0 -1591c0,-96 45,-182 116,-236l-116 -149 0 -479 599 0 0 479 -116 149c71,54 116,140 116,236z"/>
  <path class="fil0 str1" d="M3593 7209l0 1591c0,165 -134,299 -299,299 -166,0 -300,-134 -300,-299l0 -1591c0,-96 46,-182 116,-236l-116 -149 0 -479 599 0 0 479 -115 149c70,54 115,140 115,236z"/>
  <path class="fil0 str1" d="M2538 3797l0 1591c0,165 -134,299 -299,299 -165,0 -299,-134 -299,-299l0 -1591c0,-96 45,-181 115,-236l-115 -149 0 -479 598 0 0 479 -115 149c70,55 115,140 115,236z"/>
  <path class="fil0 str1" d="M1484 3797l0 1591c0,165 -134,299 -300,299 -165,0 -299,-134 -299,-299l0 -1591c0,-96 45,-181 116,-236l-116 -149 0 -479 599 0 0 479 -116 149c70,55 116,140 116,236z"/>
  <path class="fil0 str1" d="M2538 7209l0 1591c0,165 -134,299 -299,299 -165,0 -299,-134 -299,-299l0 -1591c0,-96 45,-182 115,-236l-115 -149 0 -479 598 0 0 479 -115 149c70,54 115,140 115,236z"/>
  <path class="fil0 str1" d="M1484 7209l0 1591c0,165 -134,299 -300,299 -165,0 -299,-134 -299,-299l0 -1591c0,-96 45,-182 116,-236l-116 -149 0 -479 599 0 0 479 -116 149c70,54 116,140 116,236z"/>
  <path class="fil0 str1" d="M429 3797l0 1591c0,165 -134,299 -300,299 -165,0 -299,-134 -299,-299l0 -1591c0,-96 45,-181 116,-236l-116 -149 0 -479 599 0 0 479 -116 149c71,55 116,140 116,236z"/>
  <path class="fil0 str1" d="M-626 3797l0 1591c0,165 -134,299 -299,299 -166,0 -300,-134 -300,-299l0 -1591c0,-96 46,-181 116,-236l-116 -149 0 -479 599 0 0 479 -116 149c71,55 116,140 116,236z"/>
  <path class="fil0 str1" d="M429 7209l0 1591c0,165 -134,299 -300,299 -165,0 -299,-134 -299,-299l0 -1591c0,-96 45,-182 116,-236l-116 -149 0 -479 599 0 0 479 -116 149c71,54 116,140 116,236z"/>
  <path class="fil0 str1" d="M-626 7209l0 1591c0,165 -134,299 -299,299 -166,0 -300,-134 -300,-299l0 -1591c0,-96 46,-182 116,-236l-116 -149 0 -479 599 0 0 479 -116 149c71,54 116,140 116,236z"/>
  <path class="fil0 str1" d="M6758 10621l0 1590c0,166 -135,300 -300,300 -165,0 -299,-134 -299,-300l0 -1590c0,-96 45,-182 115,-237l-115 -149 0 -479 599 0 0 479 -116 149c70,55 116,141 116,237z"/>
  <path class="fil0 str1" d="M5703 10621l0 1590c0,166 -134,300 -300,300 -165,0 -299,-134 -299,-300l0 -1590c0,-96 45,-182 116,-237l-116 -149 0 -479 599 0 0 479 -116 149c70,55 116,141 116,237z"/>
  <path class="fil0 str1" d="M6758 14033l0 1590c0,166 -135,300 -300,300 -165,0 -299,-134 -299,-300l0 -1590c0,-97 45,-182 115,-237l-115 -149 0 -479 599 0 0 479 -116 149c70,55 116,140 116,237z"/>
  <path class="fil0 str1" d="M5703 14033l0 1590c0,166 -134,300 -300,300 -165,0 -299,-134 -299,-300l0 -1590c0,-97 45,-182 116,-237l-116 -149 0 -479 599 0 0 479 -116 149c70,55 116,140 116,237z"/>
  <path class="fil0 str1" d="M4648 10621l0 1590c0,166 -134,300 -299,300 -166,0 -300,-134 -300,-300l0 -1590c0,-96 45,-182 116,-237l-116 -149 0 -479 599 0 0 479 -116 149c71,55 116,141 116,237z"/>
  <path class="fil0 str1" d="M3593 10621l0 1590c0,166 -134,300 -299,300 -166,0 -300,-134 -300,-300l0 -1590c0,-96 46,-182 116,-237l-116 -149 0 -479 599 0 0 479 -115 149c70,55 115,141 115,237z"/>
  <path class="fil0 str1" d="M4648 14033l0 1590c0,166 -134,300 -299,300 -166,0 -300,-134 -300,-300l0 -1590c0,-97 45,-182 116,-237l-116 -149 0 -479 599 0 0 479 -116 149c71,55 116,140 116,237z"/>
  <path class="fil0 str1" d="M3593 14033l0 1590c0,166 -134,300 -299,300 -166,0 -300,-134 -300,-300l0 -1590c0,-97 46,-182 116,-237l-116 -149 0 -479 599 0 0 479 -115 149c70,55 115,140 115,237z"/>
  <path class="fil0 str1" d="M2538 10621l0 1590c0,166 -134,300 -299,300 -165,0 -299,-134 -299,-300l0 -1590c0,-96 45,-182 115,-237l-115 -149 0 -479 598 0 0 479 -115 149c70,55 115,141 115,237z"/>
  <path class="fil0 str1" d="M1484 10621l0 1590c0,166 -134,300 -300,300 -165,0 -299,-134 -299,-300l0 -1590c0,-96 45,-182 116,-237l-116 -149 0 -479 599 0 0 479 -116 149c70,55 116,141 116,237z"/>
  <path class="fil0 str1" d="M2538 14033l0 1590c0,166 -134,300 -299,300 -165,0 -299,-134 -299,-300l0 -1590c0,-97 45,-182 115,-237l-115 -149 0 -479 598 0 0 479 -115 149c70,55 115,140 115,237z"/>
  <path class="fil0 str1" d="M1484 14033l0 1590c0,166 -134,300 -300,300 -165,0 -299,-134 -299,-300l0 -1590c0,-97 45,-182 116,-237l-116 -149 0 -479 599 0 0 479 -116 149c70,55 116,140 116,237z"/>
  <path class="fil0 str1" d="M429 10621l0 1590c0,166 -134,300 -300,300 -165,0 -299,-134 -299,-300l0 -1590c0,-96 45,-182 116,-237l-116 -149 0 -479 599 0 0 479 -116 149c71,55 116,141 116,237z"/>
  <path class="fil0 str1" d="M-626 10621l0 1590c0,166 -134,300 -299,300 -166,0 -300,-134 -300,-300l0 -1590c0,-96 46,-182 116,-237l-116 -149 0 -479 599 0 0 479 -116 149c71,55 116,141 116,237z"/>
  <path class="fil0 str1" d="M429 14033l0 1590c0,166 -134,300 -300,300 -165,0 -299,-134 -299,-300l0 -1590c0,-97 45,-182 116,-237l-116 -149 0 -479 599 0 0 479 -116 149c71,55 116,140 116,237z"/>
  <path class="fil0 str1" d="M-626 14033l0 1590c0,166 -134,300 -299,300 -166,0 -300,-134 -300,-300l0 -1590c0,-97 46,-182 116,-237l-116 -149 0 -479 599 0 0 479 -116 149c71,55 116,140 116,237z"/>
  <polygon class="fil0 str1" points="-746,-120 -746,719 -626,719 -626,2276 -1225,2276 -1225,719 -1105,719 -1105,-120 -985,-120 -985,-479 -865,-479 -865,-120 "/>
  <polygon class="fil0 str1" points="-1800,-120 -1800,719 -1681,719 -1681,2276 -2110,2276 -2110,-120 -2040,-120 -2040,-479 -1920,-479 -1920,-120 "/>
  <path class="fil0 str1" d="M-1681 3797l0 1591c0,165 -134,299 -299,299 -47,0 -91,-10 -130,-29l0 -2725 429 0 0 479 -115 149c70,55 115,140 115,236z"/>
  <path class="fil0 str1" d="M-1681 7209l0 1591c0,165 -134,299 -299,299 -47,0 -91,-11 -130,-29l0 -2725 429 0 0 479 -115 149c70,54 115,140 115,236z"/>
  <path class="fil0 str1" d="M-1681 10621l0 1590c0,166 -134,300 -299,300 -47,0 -91,-11 -130,-30l0 -2725 429 0 0 479 -115 149c70,55 115,141 115,237z"/>
  <path class="fil0 str1" d="M-1681 14033l0 1590c0,166 -134,300 -299,300 -47,0 -91,-11 -130,-30l0 -2725 429 0 0 479 -115 149c70,55 115,140 115,237z"/>
 </g>
</svg>
