<?xml version="1.0" encoding="UTF-8" standalone="no"?>
<!-- Created with Inkscape (http://www.inkscape.org/) -->

<svg
   version="1.1"
   id="svg132"
   width="282.22223mm"
   height="211.66667mm"
   viewBox="0 0 749.64003 562.23002"
   sodipodi:docname="AnyConv.com__Canopy Panel Lower.pdf"
   inkscape:version="1.2.1 (9c6d41e, 2022-07-14)"
   xmlns:inkscape="http://www.inkscape.org/namespaces/inkscape"
   xmlns:sodipodi="http://sodipodi.sourceforge.net/DTD/sodipodi-0.dtd"
   xmlns="http://www.w3.org/2000/svg"
   xmlns:svg="http://www.w3.org/2000/svg">
  <defs
     id="defs136" />
  <sodipodi:namedview
     id="namedview134"
     pagecolor="#505050"
     bordercolor="#eeeeee"
     borderopacity="1"
     inkscape:showpageshadow="0"
     inkscape:pageopacity="0"
     inkscape:pagecheckerboard="0"
     inkscape:deskcolor="#505050"
     showgrid="false"
     inkscape:zoom="0.36506804"
     inkscape:cx="587.5617"
     inkscape:cy="634.12836"
     inkscape:window-width="1280"
     inkscape:window-height="747"
     inkscape:window-x="0"
     inkscape:window-y="25"
     inkscape:window-maximized="0"
     inkscape:current-layer="g140"
     inkscape:document-units="mm">
    <inkscape:page
       x="0"
       y="0"
       id="page138"
       width="749.64001"
       height="562.23004" />
  </sodipodi:namedview>
  <g
     id="g140"
     inkscape:groupmode="layer"
     inkscape:label="Page 1"
     transform="matrix(1.3333333,0,0,-1.3333333,0,800)">
    <path
       d="m 454.41311,221.29889 h 0.01 0.02 0.04 0.06 0.08 0.09 0.11 0.13 0.14 0.15 0.18 0.19 0.2 0.22 0.24 0.25 0.27 0.28 0.3 0.31 0.33 0.34 0.36 0.37 0.39 0.4 0.41 0.43 0.45 0.45 0.47 0.49 0.5 0.51 0.52 0.54 0.55 0.57 0.58 0.59 0.6 0.62 0.63 0.64 0.65 0.67 0.67 0.69 0.71 0.71 0.72 0.74 0.75 0.76 0.77 0.78 0.79 0.81 0.81 0.83 0.83 0.85 0.86 0.86 0.88 0.89 0.89 0.91 0.92 0.92 0.94 0.94 0.96 0.96 0.97 0.99 0.99 1 1 1.02 1.02 1.04 1.04 1.05 1.06 1.06 1.07 1.08 1.09 1.1 1.1 1.11 1.12 1.12 1.13 1.14 2.3 2.32 2.35 2.37 2.39 2.42 2.43 2.46 2.48 2.5 2.51 2.54 2.55 2.56 2.58 2.59 2.61 2.61 2.63 2.64 2.65 2.65 2.67 2.67 5.36 5.37 10.77 5.38 5.38 5.35 2.67 2.66 2.65 2.64 2.64 2.62 2.61 2.6 2.59 2.57 2.56 2.54 2.52 2.51 2.49 2.47 2.45 2.42 2.41 2.38 2.36 2.34 2.31 1.14 1.14 1.13 1.13 1.12 1.11 1.1 1.1 1.09 1.08 1.07 1.07 1.05 1.05 1.05 1.03 1.03 1.01 1.01 1 0.99 0.98 0.98 0.96 0.96 0.94 0.94 0.93 0.91 0.91 0.9 0.89 0.87 0.87 0.86 0.85 0.83 0.83 0.81 0.81 0.79 0.79 0.77 0.76 0.75 0.73 0.73 0.71 0.71 0.69 0.68 0.66 0.66 0.64 0.63 0.62 0.6 0.59 0.58 0.57 0.55 0.54 0.52 0.52 0.5 0.48 0.47 0.46 0.45 0.43 0.41 0.41 0.38 0.38 0.35 0.35 0.33 0.31 0.3 0.28 0.27 0.26 0.23 0.22 0.21 0.19 0.18 0.16 0.14 0.12 0.11 0.1 0.08 0.06 0.04 0.03 0.01 0.02 0.08 l 0.16,0.01 0.17,0.01 0.16,0.02 0.17,0.03 0.32,0.07 0.31,0.1 0.3,0.12 0.29,0.15 0.28,0.16 0.26,0.18 0.25,0.21 0.23,0.22 0.2,0.23 0.19,0.25 0.09,0.13 0.08,0.14 0.07,0.14 0.07,0.14 0.06,0.14 0.06,0.15 0.04,0.15 0.05,0.15 0.03,0.15 0.03,0.16 0.01,0.16 0.01,0.16 0.01,0.16 -0.01,0.16 -0.01,0.09 v 0.04 0.01 0.03 l -0.01,0.04 -0.01,0.07 v 0.09 l -0.01,0.1 -0.02,0.12 -0.01,0.14 -0.02,0.16 -0.01,0.17 -0.02,0.2 -0.02,0.2 -0.03,0.23 -0.02,0.24 -0.03,0.26 -0.03,0.28 -0.02,0.29 -0.04,0.3 -0.03,0.33 -0.03,0.33 -0.04,0.35 -0.03,0.37 -0.04,0.38 -0.04,0.39 -0.04,0.41 -0.05,0.42 -0.04,0.44 -0.04,0.44 -0.05,0.47 -0.05,0.47 -0.05,0.48 -0.05,0.5 -0.05,0.51 -0.05,0.52 -0.05,0.53 -0.06,0.54 -0.05,0.56 -0.06,0.56 -0.06,0.58 -0.06,0.58 -0.06,0.59 -0.06,0.61 -0.06,0.61 -0.06,0.62 -0.07,0.63 -0.06,0.64 -0.07,0.65 -0.06,0.65 -0.07,0.67 -0.07,0.67 -0.06,0.67 -0.07,0.69 -0.07,0.69 -0.14,1.4 -0.15,1.43 -0.14,1.44 -0.15,1.47 -0.15,1.49 -0.15,1.5 -0.15,1.51 -0.16,1.53 -0.15,1.54 -0.16,1.54 -0.31,3.11 -0.31,3.11 -0.32,3.11 -0.15,1.54 -0.16,1.53 -0.15,1.53 -0.15,1.51 -0.15,1.5 -0.15,1.49 -0.15,1.46 -0.15,1.44 -0.14,1.43 -0.14,1.39 -0.07,0.69 -0.07,0.69 -0.07,0.67 -0.06,0.67 -0.07,0.66 -0.06,0.65 -0.07,0.65 -0.06,0.63 -0.07,0.63 -0.06,0.62 -0.06,0.61 -0.06,0.6 -0.06,0.59 -0.06,0.58 -0.06,0.57 -0.05,0.56 -0.06,0.55 -0.05,0.54 -0.06,0.53 -0.05,0.52 -0.05,0.5 -0.05,0.5 -0.05,0.48 -0.04,0.47 -0.05,0.45 -0.04,0.45 -0.05,0.43 -0.04,0.42 -0.04,0.4 -0.04,0.39 -0.04,0.38 -0.03,0.36 -0.04,0.34 -0.03,0.34 -0.03,0.31 -0.03,0.3 -0.03,0.29 -0.03,0.27 -0.03,0.25 -0.02,0.24 -0.02,0.22 -0.02,0.21 -0.02,0.18 -0.02,0.17 -0.01,0.16 -0.02,0.13 -0.01,0.12 -0.01,0.09 -0.01,0.08 v 0.06 l -0.01,0.04 v 0.03 0 0.02 l -0.01,0.04 v 0.05 l -0.01,0.08 -0.01,0.09 -0.01,0.11 -0.01,0.13 -0.02,0.15 -0.01,0.17 -0.02,0.18 -0.02,0.2 -0.02,0.22 -0.03,0.23 -0.02,0.25 -0.03,0.27 -0.03,0.28 -0.03,0.3 -0.03,0.31 -0.03,0.33 -0.04,0.34 -0.03,0.36 -0.04,0.37 -0.04,0.39 -0.04,0.4 -0.04,0.41 -0.05,0.43 -0.04,0.44 -0.05,0.46 -0.04,0.46 -0.05,0.48 -0.05,0.49 -0.05,0.5 -0.05,0.52 -0.06,0.52 -0.05,0.54 -0.05,0.55 -0.06,0.56 -0.06,0.56 -0.06,0.58 -0.06,0.59 -0.06,0.6 -0.06,0.61 -0.06,0.61 -0.06,0.63 -0.07,0.63 -0.06,0.65 -0.07,0.65 -0.06,0.66 -0.07,0.66 -0.07,0.68 -0.07,0.68 -0.07,0.69 -0.06,0.69 -0.15,1.41 -0.14,1.43 -0.15,1.45 -0.15,1.47 -0.15,1.49 -0.15,1.51 -0.15,1.51 -0.15,1.53 -0.16,1.54 -0.31,3.1 -0.31,3.11 -0.32,3.11 -0.15,1.55 -0.16,1.54 -0.15,1.54 -0.16,1.52 -0.15,1.51 -0.15,1.5 -0.15,1.47 -0.14,1.46 -0.15,1.44 -0.14,1.42 -0.14,1.39 -0.07,0.69 -0.07,0.68 -0.07,0.67 -0.06,0.66 -0.07,0.66 -0.07,0.65 -0.06,0.64 -0.06,0.63 -0.07,0.63 -0.06,0.61 -0.06,0.61 -0.06,0.59 -0.06,0.59 -0.06,0.58 -0.05,0.56 -0.06,0.56 -0.05,0.54 -0.06,0.54 -0.05,0.52 -0.05,0.51 -0.05,0.5 -0.05,0.49 -0.05,0.48 -0.05,0.46 -0.04,0.45 -0.05,0.44 -0.04,0.42 -0.04,0.41 -0.04,0.4 -0.04,0.38 -0.03,0.37 -0.04,0.36 -0.03,0.34 -0.04,0.32 -0.03,0.31 -0.03,0.3 -0.03,0.28 -0.02,0.26 -0.03,0.24 -0.02,0.23 -0.02,0.22 -0.02,0.19 -0.02,0.18 -0.02,0.17 -0.01,0.14 -0.01,0.12 -0.01,0.11 -0.01,0.09 -0.01,0.07 -0.01,0.05 v 0.04 0.01 0.01 0.02 l -0.01,0.05 v 0.06 l -0.01,0.09 -0.01,0.1 -0.02,0.12 -0.01,0.14 -0.02,0.15 -0.01,0.18 -0.02,0.19 -0.02,0.21 -0.03,0.22 -0.02,0.24 -0.03,0.26 -0.02,0.28 -0.03,0.29 -0.03,0.3 -0.04,0.32 -0.03,0.34 -0.04,0.35 -0.03,0.36 -0.04,0.38 -0.04,0.39 -0.04,0.41 -0.04,0.42 -0.05,0.44 -0.04,0.44 -0.05,0.46 -0.05,0.47 -0.04,0.49 -0.05,0.5 -0.06,0.5 -0.05,0.52 -0.05,0.53 -0.06,0.55 -0.05,0.55 -0.06,0.56 -0.06,0.58 -0.06,0.58 -0.06,0.59 -0.06,0.61 -0.06,0.61 -0.06,0.62 -0.06,0.63 -0.07,0.64 -0.06,0.65 -0.07,0.65 -0.07,0.66 -0.06,0.67 -0.07,0.68 -0.07,0.68 -0.14,1.39 -0.14,1.42 -0.15,1.43 -0.15,1.46 -0.14,1.48 -0.16,1.49 -0.15,1.51 -0.15,1.52 -0.16,1.54 -0.15,1.54 -0.16,1.55 -0.62,6.22 -0.32,3.1 -0.15,1.54 -0.16,1.54 -0.15,1.52 -0.15,1.5 -0.15,1.5 -0.15,1.47 -0.15,1.46 -0.14,1.43 -0.15,1.42 -0.13,1.38 -0.07,0.69 -0.07,0.67 -0.07,0.67 -0.07,0.66 -0.06,0.66 -0.07,0.64 -0.06,0.64 -0.06,0.63 -0.07,0.62 -0.06,0.61 -0.06,0.6 -0.06,0.59 -0.06,0.58 -0.06,0.58 -0.05,0.56 -0.06,0.55 -0.05,0.54 -0.06,0.53 -0.05,0.52 -0.05,0.5 -0.05,0.5 -0.05,0.48 -0.04,0.47 -0.05,0.46 -0.05,0.44 -0.04,0.44 -0.04,0.41 -0.04,0.41 -0.04,0.39 -0.04,0.38 -0.04,0.36 -0.03,0.35 -0.03,0.33 -0.04,0.32 -0.03,0.3 -0.03,0.29 -0.02,0.27 -0.03,0.26 -0.02,0.24 -0.03,0.22 -0.02,0.2 -0.02,0.19 -0.01,0.17 -0.02,0.16 -0.01,0.13 -0.01,0.12 -0.01,0.1 -0.01,0.08 -0.01,0.06 v 0.04 0.03 h -0.01 v 0.01 0.02 0.02 0.04 l -0.01,0.04 v 0.05 l -0.01,0.06 -0.01,0.07 v 0.08 l -0.01,0.09 -0.01,0.09 -0.01,0.1 -0.01,0.11 -0.02,0.12 -0.01,0.13 -0.01,0.13 -0.02,0.14 -0.01,0.15 -0.02,0.15 -0.01,0.17 -0.02,0.17 -0.02,0.17 -0.02,0.18 -0.02,0.19 -0.04,0.4 -0.04,0.42 -0.04,0.45 -0.05,0.47 -0.05,0.49 -0.05,0.51 -0.05,0.54 -0.06,0.55 -0.06,0.57 -0.06,0.59 -0.06,0.6 -0.06,0.62 -0.06,0.63 -0.07,0.65 -0.07,0.66 -0.06,0.67 -0.07,0.69 -0.07,0.69 -0.07,0.7 -0.07,0.71 -0.15,1.44 -0.14,1.45 -0.15,1.47 -0.3,2.95 -0.15,1.46 -0.14,1.44 -0.07,0.71 -0.07,0.71 -0.07,0.69 -0.07,0.69 -0.07,0.68 -0.07,0.66 -0.06,0.66 -0.07,0.64 -0.06,0.62 -0.06,0.61 -0.06,0.6 -0.06,0.58 -0.06,0.56 -0.05,0.54 -0.06,0.52 -0.05,0.5 -0.04,0.48 -0.05,0.46 -0.04,0.43 -0.05,0.41 -0.03,0.39 -0.02,0.18 -0.02,0.18 -0.02,0.16 -0.01,0.17 -0.02,0.15 -0.01,0.15 -0.02,0.14 -0.01,0.13 -0.01,0.12 -0.02,0.12 -0.01,0.11 -0.01,0.1 -0.01,0.1 v 0.08 l -0.01,0.08 -0.01,0.07 -0.01,0.06 v 0.05 0.04 l -0.01,0.04 v 0.02 0.02 0.01 0.01 l -0.01,0.02 v 0.03 0.04 l -0.01,0.05 v 0.05 l -0.01,0.07 -0.01,0.07 -0.01,0.08 -0.01,0.09 v 0.1 l -0.02,0.11 -0.01,0.11 -0.01,0.12 -0.01,0.13 -0.02,0.14 -0.01,0.14 -0.02,0.15 -0.01,0.16 -0.02,0.17 -0.02,0.17 -0.01,0.18 -0.04,0.37 -0.04,0.41 -0.04,0.43 -0.05,0.45 -0.05,0.47 -0.05,0.5 -0.05,0.52 -0.05,0.53 -0.06,0.56 -0.06,0.57 -0.06,0.6 -0.06,0.6 -0.06,0.63 -0.06,0.63 -0.07,0.65 -0.07,0.67 -0.06,0.67 -0.07,0.69 -0.07,0.69 -0.07,0.7 -0.07,0.71 -0.08,0.72 -0.14,1.45 -0.15,1.46 -0.15,1.48 -0.15,1.47 -0.14,1.47 -0.15,1.45 -0.07,0.71 -0.07,0.71 -0.07,0.7 -0.07,0.7 -0.07,0.68 -0.07,0.68 -0.07,0.66 -0.06,0.65 -0.07,0.64 -0.06,0.62 -0.06,0.61 -0.06,0.59 -0.06,0.57 -0.05,0.56 -0.06,0.54 -0.05,0.52 -0.05,0.49 -0.05,0.48 -0.04,0.45 -0.04,0.43 -0.04,0.4 -0.04,0.38 -0.02,0.18 -0.02,0.17 -0.01,0.16 -0.02,0.16 -0.02,0.15 -0.01,0.15 -0.01,0.13 -0.02,0.13 -0.01,0.12 -0.01,0.12 -0.01,0.1 -0.01,0.1 -0.01,0.09 -0.01,0.08 -0.01,0.08 v 0.06 l -0.01,0.06 v 0.04 l -0.01,0.04 v 0.03 0.02 0.02 0 0 0.01 l -0.01,0.04 -0.03,0.33 -0.05,0.33 -0.08,0.32 -0.09,0.31 -0.12,0.31 -0.14,0.29 -0.15,0.27 -0.18,0.27 -0.1,0.12 -0.1,0.12 -0.11,0.12 -0.11,0.11 -0.12,0.11 -0.12,0.1 -0.13,0.1 -0.13,0.09 -0.14,0.09 -0.15,0.08 -0.14,0.07 -0.16,0.07 -0.16,0.07 -0.16,0.05 -0.17,0.05 -0.18,0.04 -0.18,0.04 -0.19,0.03 -0.19,0.02 -0.2,0.01 -0.2,0.01 h -0.21 l -0.21,-0.01 -0.01,-0.01 h -0.01 -0.01 -0.03 -0.04 l -0.06,-0.01 -0.07,-0.01 h -0.09 l -0.1,-0.01 -0.12,-0.01 -0.13,-0.01 -0.14,-0.02 -0.16,-0.01 -0.17,-0.02 -0.19,-0.01 -0.2,-0.02 -0.22,-0.02 -0.22,-0.02 -0.24,-0.02 -0.26,-0.02 -0.27,-0.02 -0.28,-0.03 -0.29,-0.03 -0.31,-0.02 -0.32,-0.03 -0.34,-0.03 -0.34,-0.03 -0.36,-0.03 -0.37,-0.03 -0.39,-0.04 -0.39,-0.03 -0.41,-0.04 -0.42,-0.04 -0.43,-0.03 -0.45,-0.04 -0.46,-0.04 -0.47,-0.04 -0.48,-0.05 -0.49,-0.04 -0.5,-0.04 -0.52,-0.05 -0.52,-0.04 -0.54,-0.05 -0.55,-0.05 -0.56,-0.05 -0.57,-0.05 -0.58,-0.05 -0.59,-0.05 -0.61,-0.05 -0.61,-0.06 -0.62,-0.05 -0.64,-0.06 -0.64,-0.06 -0.66,-0.05 -0.66,-0.06 -0.68,-0.06 -0.68,-0.06 -0.7,-0.06 -0.7,-0.06 -0.71,-0.07 -0.73,-0.06 -0.73,-0.06 -0.74,-0.07 -0.75,-0.06 -0.76,-0.07 -0.77,-0.07 -0.78,-0.07 -0.79,-0.07 -0.79,-0.07 -0.81,-0.07 -0.81,-0.07 -0.82,-0.07 -0.83,-0.07 -0.84,-0.08 -0.85,-0.07 -0.85,-0.08 -0.87,-0.07 -0.87,-0.08 -0.87,-0.07 -0.89,-0.08 -0.89,-0.08 -0.9,-0.08 -0.91,-0.08 -0.92,-0.08 -0.92,-0.08 -0.93,-0.08 -0.94,-0.08 -0.94,-0.09 -0.95,-0.08 -0.96,-0.09 -0.96,-0.08 -1.95,-0.17 -1.97,-0.17 -2,-0.18 -2.02,-0.18 -2.05,-0.18 -2.06,-0.18 -2.09,-0.18 -2.11,-0.19 -2.13,-0.18 -2.15,-0.19 -2.17,-0.19 -2.18,-0.19 -2.2,-0.2 -2.22,-0.19 -2.23,-0.2 -2.25,-0.19 -2.26,-0.2 -2.28,-0.2 -2.28,-0.2 -2.3,-0.2 -2.31,-0.21 -2.32,-0.2 -2.33,-0.2 -2.34,-0.21 -2.34,-0.2 -4.71,-0.42 -4.73,-0.41 -4.75,-0.42 -9.52,-0.83 -4.75,-0.42 -4.75,-0.42 -4.73,-0.41 -4.72,-0.42 -2.34,-0.2 -2.34,-0.21 -2.33,-0.2 -2.32,-0.21 -2.31,-0.2 -2.3,-0.2 -2.29,-0.2 -2.28,-0.2 -2.26,-0.2 -2.25,-0.2 -2.24,-0.19 -2.22,-0.2 -2.2,-0.19 -2.19,-0.19 -2.17,-0.19 -2.15,-0.19 -2.13,-0.19 -2.11,-0.18 -2.09,-0.19 -2.07,-0.18 -2.05,-0.18 -2.03,-0.18 -2,-0.17 -1.97,-0.18 -1.96,-0.17 -0.96,-0.08 -0.96,-0.09 -0.95,-0.08 -0.95,-0.08 -0.94,-0.08 -0.93,-0.09 -0.93,-0.08 -0.91,-0.08 -0.92,-0.08 -0.9,-0.08 -0.89,-0.08 -0.89,-0.07 -0.88,-0.08 -0.88,-0.08 -0.86,-0.07 -0.86,-0.08 -0.85,-0.07 -0.84,-0.08 -0.83,-0.07 -0.82,-0.07 -0.82,-0.07 -0.81,-0.07 -0.8,-0.07 -0.79,-0.07 -0.78,-0.07 -0.77,-0.07 -0.76,-0.07 -0.76,-0.06 -0.74,-0.07 -0.74,-0.06 -0.72,-0.07 -0.72,-0.06 -0.71,-0.06 -0.69,-0.06 -0.69,-0.06 -0.68,-0.06 -0.67,-0.06 -0.66,-0.06 -0.64,-0.06 -0.64,-0.05 -0.63,-0.06 -0.61,-0.05 -0.61,-0.05 -0.6,-0.06 -0.58,-0.05 -0.58,-0.05 -0.56,-0.05 -0.55,-0.05 -0.54,-0.04 -0.53,-0.05 -0.52,-0.05 -0.51,-0.04 -0.49,-0.04 -0.49,-0.05 -0.47,-0.04 -0.46,-0.04 -0.45,-0.04 -0.43,-0.04 -0.43,-0.03 -0.41,-0.04 -0.4,-0.03 -0.39,-0.04 -0.37,-0.03 -0.37,-0.03 -0.35,-0.03 -0.34,-0.03 -0.32,-0.03 -0.31,-0.03 -0.3,-0.03 -0.29,-0.02 -0.27,-0.02 -0.26,-0.03 -0.24,-0.02 -0.23,-0.02 -0.22,-0.02 -0.21,-0.02 -0.19,-0.01 -0.18,-0.02 -0.16,-0.01 -0.15,-0.02 -0.13,-0.01 -0.12,-0.01 -0.11,-0.01 -0.09,-0.01 h -0.08 l -0.06,-0.01 h -0.05 -0.03 l -0.02,-0.01 h -0.01 l -0.08,-0.01 -0.17,-0.02 -0.32,-0.05 -0.32,-0.08 -0.3,-0.1 -0.3,-0.11 -0.29,-0.14 -0.27,-0.15 -0.26,-0.17 -0.25,-0.19 -0.23,-0.2 -0.21,-0.22 -0.19,-0.24 -0.18,-0.24 -0.16,-0.27 -0.13,-0.27 -0.11,-0.29 -0.05,-0.15 -0.04,-0.15 -0.04,-0.15 -0.03,-0.16 -0.02,-0.15 -0.01,-0.17 -0.01,-0.16 -0.01,-0.08 v -0.04 -0.02 -0.01 -0.03 -0.05 -0.07 -0.09 -0.1 -0.12 -0.13 -0.16 -0.17 -0.19 -0.2 -0.23 -0.23 -0.26 -0.27 -0.29 -0.3 -0.32 -0.34 -0.35 -0.37 -0.38 -0.4 -0.42 -0.43 -0.44 -0.46 -0.48 -0.48 -0.51 -0.52 -0.53 -0.55 -0.56 -0.58 -0.59 -0.6 -0.62 -0.63 -0.64 -0.66 -0.67 -0.69 -0.69 -0.71 -0.73 -0.73 -0.75 -0.76 -0.78 -0.78 -0.8 -0.81 -0.82 -0.84 -0.84 -0.86 -0.87 -0.88 -0.89 -0.9 -0.92 -0.92 -0.94 -0.94 -0.96 -0.96 -0.98 -0.99 -0.99 -1.01 -1.02 -1.03 -1.03 -1.05 -1.05 -1.07 -1.07 -1.08 -1.09 -1.1 -1.11 -1.12 -1.13 -1.13 -1.14 -1.15 -1.16 -1.17 -1.17 -1.19 -1.19 -1.19 -1.21 -1.21 -1.22 -1.22 -1.23 -2.49 -2.51 -2.54 -2.56 -2.58 -2.6 -2.63 -2.65 -2.66 -2.69 -2.7 -2.72 -2.74 -2.75 -2.76 -2.78 -2.79 -2.8 -2.81 -2.82 -2.83 -5.68 -5.71 -5.71 -11.46 -5.71 -5.71 -5.68 -2.84 -2.82 -2.81 -2.81 -2.79 -2.78 -2.77 -2.76 -2.74 -2.72 -2.71 -2.69 -2.67 -2.66 -2.63 -2.61 -2.59 -2.57 -2.54 -2.52 -2.49 -1.24 -1.23 -1.22 -1.22 -1.21 -1.2 -1.19 -1.19 -1.18 -1.17 -1.16 -1.16 -1.15 -1.14 -1.13 -1.12 -1.11 -1.11 -1.1 -1.08 -1.08 -1.07 -1.06 -1.06 -1.04 -1.03 -1.02 -1.02 -1 -0.99 -0.99 -0.97 -0.96 -0.95 -0.94 -0.94 -0.92 -0.9 -0.9 -0.89 -0.87 -0.87 -0.85 -0.84 -0.83 -0.82 -0.81 -0.79 -0.78 -0.77 -0.76 -0.74 -0.73 -0.72 -0.7 -0.7 -0.68 -0.66 -0.66 -0.64 -0.62 -0.61 -0.6 -0.59 -0.57 -0.55 -0.55 -0.52 -0.52 -0.49 -0.49 -0.47 -0.45 -0.44 -0.42 -0.41 -0.39 -0.38 -0.36 -0.35 -0.33 -0.31 -0.3 -0.28 -0.27 -0.25 -0.23 -0.22 -0.19 -0.19 -0.16 -0.15 -0.13 -0.11 -0.1 -0.08 -0.06 -0.04 -0.02 -0.01 -0.02 -0.04 l 0.01,-0.17 0.01,-0.16 0.02,-0.16 0.03,-0.16 0.03,-0.16 0.08,-0.31 0.11,-0.3 0.13,-0.29 0.15,-0.27 0.17,-0.26 0.19,-0.25 0.21,-0.23 0.23,-0.21 0.24,-0.2 0.25,-0.18 0.27,-0.15 0.29,-0.14 0.29,-0.11 0.31,-0.09 0.15,-0.04 0.16,-0.03 0.16,-0.02 0.17,-0.02 0.16,-0.01 h 0.17"
       style="fill:none;stroke:#000000;stroke-width:0.074;stroke-linecap:round;stroke-linejoin:round;stroke-miterlimit:10;stroke-dasharray:none;stroke-opacity:1"
       id="path142" />
    <path
       d="m 513.15311,265.21889 -1.73,-0.39 -1.38,-1.11 -0.77,-1.59 v -1.78 l 0.77,-1.59 1.38,-1.11 1.73,-0.39 1.73,0.39 1.39,1.11 0.77,1.59 v 1.78 l -0.77,1.59 -1.39,1.11 -1.73,0.39"
       style="fill:none;stroke:#000000;stroke-width:0.074;stroke-linecap:round;stroke-linejoin:round;stroke-miterlimit:10;stroke-dasharray:none;stroke-opacity:1"
       id="path144" />
    <path
       d="m 659.03311,265.21889 -1.73,-0.39 -1.38,-1.11 -0.77,-1.59 v -1.78 l 0.77,-1.59 1.38,-1.11 1.73,-0.39 1.73,0.39 1.39,1.11 0.77,1.59 v 1.78 l -0.77,1.59 -1.39,1.11 -1.73,0.39"
       style="fill:none;stroke:#000000;stroke-width:0.074;stroke-linecap:round;stroke-linejoin:round;stroke-miterlimit:10;stroke-dasharray:none;stroke-opacity:1"
       id="path146" />
    <path
       d="m 615.56311,475.43889 -1.72,-0.4 -1.39,-1.1 -0.77,-1.6 v -1.77 l 0.77,-1.6 1.39,-1.11 1.72,-0.39 1.73,0.39 1.39,1.11 0.77,1.6 v 1.77 l -0.77,1.6 -1.39,1.1 -1.73,0.4"
       style="fill:none;stroke:#000000;stroke-width:0.074;stroke-linecap:round;stroke-linejoin:round;stroke-miterlimit:10;stroke-dasharray:none;stroke-opacity:1"
       id="path148" />
    <path
       d="m 640.58311,398.49889 -1.73,-0.4 -1.38,-1.1 -0.77,-1.6 v -1.77 l 0.77,-1.6 1.38,-1.11 1.73,-0.39 1.73,0.39 1.38,1.11 0.77,1.6 v 1.77 l -0.77,1.6 -1.38,1.1 -1.73,0.4"
       style="fill:none;stroke:#000000;stroke-width:0.074;stroke-linecap:round;stroke-linejoin:round;stroke-miterlimit:10;stroke-dasharray:none;stroke-opacity:1"
       id="path150" />
    <path
       d="m 540.18311,469.58889 -1.91,-0.38 -1.61,-1.08 -1.08,-1.62 -0.38,-1.9 0.38,-1.91 1.08,-1.61 1.61,-1.08 1.91,-0.38 1.9,0.38 1.62,1.08 1.08,1.61 0.38,1.91 -0.38,1.9 -1.08,1.62 -1.62,1.08 -1.9,0.38"
       style="fill:none;stroke:#000000;stroke-width:0.074;stroke-linecap:round;stroke-linejoin:round;stroke-miterlimit:10;stroke-dasharray:none;stroke-opacity:1"
       id="path152" />
    <path
       d="m 477.64311,520.11889 -1.73,-0.4 -1.38,-1.1 -0.77,-1.6 v -1.77 l 0.77,-1.6 1.38,-1.1 1.73,-0.4 1.73,0.4 1.38,1.1 0.77,1.6 v 1.77 l -0.77,1.6 -1.38,1.1 -1.73,0.4"
       style="fill:none;stroke:#000000;stroke-width:0.074;stroke-linecap:round;stroke-linejoin:round;stroke-miterlimit:10;stroke-dasharray:none;stroke-opacity:1"
       id="path154" />
    <path
       d="m 659.39311,534.80889 -1.73,-0.39 -1.39,-1.11 -0.77,-1.6 v -1.77 l 0.77,-1.6 1.39,-1.1 1.73,-0.4 1.72,0.4 1.39,1.1 0.77,1.6 v 1.77 l -0.77,1.6 -1.39,1.11 -1.72,0.39"
       style="fill:none;stroke:#000000;stroke-width:0.074;stroke-linecap:round;stroke-linejoin:round;stroke-miterlimit:10;stroke-dasharray:none;stroke-opacity:1"
       id="path156" />
    <path
       d="m 551.49311,522.08889 v 0 h 0.01 0.02 0.02 0.04 l 0.03,0.01 h 0.05 0.05 l 0.06,0.01 h 0.07 l 0.07,0.01 h 0.08 l 0.08,0.01 h 0.09 l 0.1,0.01 0.1,0.01 0.11,0.01 h 0.12 l 0.12,0.01 0.12,0.01 0.14,0.01 0.14,0.01 0.14,0.01 0.15,0.01 0.16,0.01 0.16,0.01 0.16,0.01 0.17,0.02 0.18,0.01 0.18,0.01 0.19,0.01 0.19,0.02 0.2,0.01 0.2,0.02 0.21,0.01 0.21,0.01 0.22,0.02 0.22,0.01 0.22,0.02 0.23,0.02 0.23,0.01 0.24,0.02 0.25,0.02 0.24,0.01 0.51,0.04 0.52,0.03 0.54,0.04 0.55,0.04 0.57,0.04 0.58,0.04 0.59,0.04 0.6,0.04 0.62,0.05 0.63,0.04 0.64,0.04 0.65,0.05 0.66,0.05 0.67,0.04 0.67,0.05 0.69,0.05 0.69,0.04 0.7,0.05 0.71,0.05 0.71,0.05 0.71,0.05 0.73,0.05 1.45,0.1 1.47,0.1 2.94,0.21 1.48,0.1 1.47,0.1 1.45,0.1 0.73,0.06 0.71,0.05 0.72,0.04 0.71,0.05 0.7,0.05 0.69,0.05 0.69,0.05 0.68,0.05 0.67,0.04 0.67,0.05 0.65,0.04 0.64,0.05 0.64,0.04 0.62,0.05 0.61,0.04 0.6,0.04 0.58,0.04 0.57,0.04 0.56,0.04 0.54,0.04 0.53,0.03 0.51,0.04 0.5,0.03 0.24,0.02 0.24,0.02 0.23,0.01 0.23,0.02 0.23,0.01 0.22,0.02 0.21,0.02 0.21,0.01 0.21,0.01 0.2,0.02 0.19,0.01 0.2,0.01 0.18,0.02 0.18,0.01 0.18,0.01 0.17,0.01 0.16,0.02 0.16,0.01 0.16,0.01 0.15,0.01 0.14,0.01 0.14,0.01 0.13,0.01 0.13,0.01 h 0.12 l 0.11,0.01 0.11,0.01 0.1,0.01 h 0.1 l 0.09,0.01 0.08,0.01 h 0.08 l 0.07,0.01 h 0.06 0.06 l 0.05,0.01 h 0.04 0.04 l 0.03,0.01 h 0.02 0.02 0.01 v 0 -0.01 -0.01 -0.02 -0.03 -0.04 -0.04 -0.05 -0.06 -0.06 -0.07 -0.08 l 0.01,-0.08 v -0.1 -0.09 -0.11 -0.11 -0.12 -0.13 -0.13 -0.14 -0.14 -0.16 -0.16 l 0.01,-0.16 v -0.17 -0.18 -0.18 -0.2 -0.19 -0.21 -0.21 l 0.01,-0.21 v -0.22 -0.23 -0.24 -0.24 -0.24 l 0.01,-0.26 v -0.26 -0.26 -0.27 -0.28 l 0.01,-0.28 v -0.29 -0.29 -0.3 -0.3 l 0.01,-0.31 v -0.32 -0.32 -0.33 -0.33 l 0.01,-0.34 v -0.34 -0.35 -0.36 l 0.01,-0.36 v -0.36 -0.37 -0.38 l 0.01,-0.38 v -0.39 -0.39 -0.39 l 0.01,-0.4 v -0.41 -0.41 l 0.01,-0.42 v -0.42 -0.42 -0.43 l 0.01,-0.44 v -0.44 -0.44 l 0.01,-0.45 v -0.46 -0.46 l 0.01,-0.46 v -0.47 -0.47 l 0.01,-0.48 v -0.48 -0.48 l 0.01,-0.49 v -0.5 -0.5 l 0.01,-0.5 v -0.5 l 0.01,-1.03 v -1.04 l 0.01,-1.06 0.01,-1.08 0.01,-1.09 v -1.1 l 0.01,-1.12 0.01,-1.14 0.01,-1.15 0.01,-1.16 v -1.18 l 0.01,-1.19 0.01,-1.21 0.01,-1.21 0.01,-1.23 v -1.24 l 0.01,-1.26 0.01,-1.27 0.01,-1.27 0.01,-1.29 0.01,-1.3 0.01,-1.31 0.01,-1.32 0.01,-1.34 0.01,-1.34 v -1.35 l 0.01,-1.36 0.01,-1.37 0.01,-1.37 0.01,-1.39 0.01,-1.39 0.01,-1.4 0.01,-1.41 0.01,-1.42 0.01,-1.42 0.01,-1.43 0.01,-1.44 0.01,-1.44 0.01,-1.45 0.01,-1.45 0.01,-1.46 0.01,-1.47 0.01,-1.46 0.02,-2.95 0.02,-2.97 0.02,-2.98 0.02,-2.99 0.02,-2.99 0.02,-3 0.04,-6.02 0.04,-6.01 0.03,-3 0.02,-2.99 0.02,-2.98 0.02,-2.96 0.02,-2.96 0.01,-1.47 0.01,-1.46 0.01,-1.46 0.01,-1.46 0.01,-1.45 0.01,-1.45 0.01,-1.43 0.01,-1.44 0.01,-1.42 0.01,-1.42 0.01,-1.41 0.01,-1.41 0.01,-1.4 v -1.38 l 0.01,-1.38 0.01,-1.38 0.01,-1.36 0.01,-1.35 0.01,-1.35 0.01,-1.33 0.01,-1.33 0.01,-1.31 0.01,-1.31 0.01,-1.29 0.01,-1.28 v -1.28 l 0.01,-1.25 0.01,-1.25 0.01,-1.24 0.01,-1.22 0.01,-1.21 v -1.2 l 0.01,-1.18 0.01,-1.17 0.01,-1.15 0.01,-1.14 v -1.13 l 0.01,-1.11 0.01,-1.1 0.01,-1.08 v -1.06 l 0.01,-1.05 0.01,-1.04 v -0.51 l 0.01,-0.5 v -0.5 -0.5 l 0.01,-0.5 v -0.48 -0.49 l 0.01,-0.48 v -0.48 -0.47 l 0.01,-0.46 v -0.47 -0.45 -0.46 l 0.01,-0.45 v -0.44 -0.44 l 0.01,-0.43 v -0.43 -0.43 l 0.01,-0.42 v -0.41 -0.41 -0.41 l 0.01,-0.4 v -0.39 -0.39 -0.39 l 0.01,-0.38 v -0.37 -0.37 -0.36 l 0.01,-0.36 v -0.36 -0.34 -0.35 l 0.01,-0.33 v -0.34 -0.32 -0.32 l 0.01,-0.32 v -0.31 -0.3 -0.3 -0.29 l 0.01,-0.29 v -0.28 -0.27 -0.27 -0.27 l 0.01,-0.25 v -0.26 -0.24 -0.24 -0.23 -0.23 -0.22 l 0.01,-0.22 v -0.2 -0.21 -0.19 -0.19 -0.19 -0.17 l 0.01,-0.17 v -0.17 -0.15 -0.16 -0.14 -0.14 -0.13 -0.12 -0.12 -0.11 -0.11 l 0.01,-0.09 v -0.09 -0.09 -0.07 -0.07 -0.07 -0.05 -0.05 -0.04 -0.03 -0.03 -0.02 -0.01 -0.01 0 h -0.01 -0.01 -0.02 -0.03 l -0.03,-0.01 h -0.04 -0.05 l -0.06,-0.01 h -0.06 -0.07 l -0.07,-0.01 -0.08,-0.01 h -0.09 l -0.09,-0.01 -0.1,-0.01 h -0.11 l -0.11,-0.01 -0.12,-0.01 -0.12,-0.01 -0.13,-0.01 -0.14,-0.01 -0.14,-0.01 -0.14,-0.01 -0.16,-0.01 -0.15,-0.01 -0.17,-0.01 -0.16,-0.01 -0.18,-0.01 -0.18,-0.01 -0.18,-0.02 -0.19,-0.01 -0.19,-0.01 -0.2,-0.02 -0.21,-0.01 -0.21,-0.02 -0.21,-0.01 -0.22,-0.02 -0.22,-0.01 -0.23,-0.02 -0.23,-0.01 -0.23,-0.02 -0.24,-0.02 -0.5,-0.03 -0.51,-0.04 -0.52,-0.03 -0.54,-0.04 -0.56,-0.04 -0.56,-0.04 -0.59,-0.04 -0.59,-0.04 -0.61,-0.04 -0.62,-0.05 -0.63,-0.04 -0.64,-0.04 -0.65,-0.05 -0.67,-0.05 -0.67,-0.04 -0.67,-0.05 -0.69,-0.05 -0.69,-0.04 -0.71,-0.05 -0.7,-0.05 -0.71,-0.05 -0.72,-0.05 -1.45,-0.1 -1.46,-0.1 -1.47,-0.11 -1.48,-0.1 -1.47,-0.1 -1.47,-0.1 -1.47,-0.11 -1.44,-0.1 -0.72,-0.05 -0.71,-0.05 -0.71,-0.04 -0.7,-0.05 -0.69,-0.05 -0.69,-0.05 -0.68,-0.05 -0.67,-0.04 -0.66,-0.05 -0.65,-0.04 -0.64,-0.05 -0.64,-0.04 -0.62,-0.05 -0.6,-0.04 -0.6,-0.04 -0.58,-0.04 -0.57,-0.04 -0.55,-0.04 -0.54,-0.04 -0.53,-0.03 -0.51,-0.04 -0.49,-0.03 -0.24,-0.02 -0.24,-0.01 -0.23,-0.02 -0.23,-0.02 -0.22,-0.01 -0.22,-0.02 -0.21,-0.01 -0.21,-0.02 -0.2,-0.01 -0.2,-0.01 -0.2,-0.02 -0.19,-0.01 -0.18,-0.01 -0.18,-0.02 -0.17,-0.01 -0.17,-0.01 -0.16,-0.01 -0.16,-0.01 -0.15,-0.01 -0.15,-0.01 -0.14,-0.01 -0.14,-0.01 -0.12,-0.01 -0.13,-0.01 -0.12,-0.01 -0.11,-0.01 h -0.1 l -0.1,-0.01 -0.1,-0.01 h -0.08 l -0.08,-0.01 h -0.08 l -0.07,-0.01 h -0.06 l -0.05,-0.01 h -0.05 -0.04 -0.04 l -0.02,-0.01 h -0.02 -0.02 v 0 h -0.01 v 0.01 0.02 0.02 0.03 0.03 0.05 0.05 0.06 0.06 0.08 0.08 0.08 0.09 0.1 0.11 0.12 0.12 0.12 0.14 l -0.01,0.14 v 0.14 0.16 0.16 0.16 0.18 0.18 0.18 0.19 l -0.01,0.2 v 0.21 0.21 0.22 0.22 0.23 l -0.01,0.23 v 0.25 0.24 0.26 0.26 0.26 l -0.01,0.27 v 0.28 0.28 0.29 0.3 l -0.01,0.3 v 0.3 0.32 0.31 0.33 l -0.01,0.33 v 0.33 0.34 0.34 l -0.01,0.35 v 0.36 0.36 0.37 l -0.01,0.37 v 0.37 0.39 0.38 l -0.01,0.39 v 0.4 0.4 0.41 l -0.01,0.41 v 0.42 0.42 l -0.01,0.43 v 0.43 0.44 l -0.01,0.44 v 0.44 0.45 0.46 l -0.01,0.46 v 0.46 0.47 l -0.01,0.47 v 0.48 0.48 l -0.01,0.49 v 0.49 0.5 l -0.01,0.49 v 0.51 l -0.01,1.02 -0.01,1.03 v 1.06 l -0.01,1.06 -0.01,1.09 v 1.1 l -0.01,1.11 -0.01,1.13 -0.01,1.15 -0.01,1.15 v 1.18 l -0.01,1.18 -0.01,1.2 -0.01,1.21 -0.01,1.23 -0.01,1.24 v 1.25 l -0.01,1.26 -0.01,1.27 -0.01,1.28 -0.01,1.3 -0.01,1.31 -0.01,1.31 -0.01,1.33 -0.01,1.34 v 1.34 l -0.01,1.36 -0.01,1.37 -0.01,1.37 -0.01,1.38 -0.01,1.39 -0.01,1.4 -0.01,1.41 -0.01,1.41 -0.01,1.42 -0.01,1.43 -0.01,1.43 -0.01,1.44 -0.01,1.45 -0.01,1.45 -0.01,1.46 -0.01,1.46 -0.01,1.47 -0.01,1.47 -0.01,1.47 -0.02,2.96 -0.02,2.98 -0.02,2.99 -0.02,2.99 -0.04,6.01 -0.04,6.01 -0.02,3.01 -0.03,3 -0.02,2.99 -0.02,2.98 -0.02,2.97 -0.02,2.96 -0.01,1.47 -0.01,1.47 -0.01,1.46 -0.01,1.46 -0.01,1.45 -0.01,1.45 -0.01,1.44 -0.01,1.43 -0.01,1.43 -0.01,1.42 -0.01,1.42 -0.01,1.41 -0.01,1.4 v 1.39 l -0.01,1.38 -0.01,1.38 -0.01,1.37 -0.01,1.35 -0.01,1.35 -0.01,1.34 -0.01,1.33 -0.01,1.32 -0.01,1.31 -0.01,1.3 -0.01,1.28 v 1.28 l -0.01,1.26 -0.01,1.25 -0.01,1.24 -0.01,1.23 -0.01,1.22 -0.01,1.2 v 1.19 l -0.01,1.17 -0.01,1.16 -0.01,1.15 -0.01,1.13 v 1.12 l -0.01,1.1 -0.01,1.09 -0.01,1.07 v 1.06 l -0.01,1.03 -0.01,1.03 v 0.5 0.5 l -0.01,0.5 v 0.49 0.49 l -0.01,0.49 v 0.47 0.48 l -0.01,0.47 v 0.47 0.46 l -0.01,0.45 v 0.46 0.44 l -0.01,0.45 v 0.44 0.43 0.43 l -0.01,0.42 v 0.42 0.41 l -0.01,0.41 v 0.41 0.4 0.39 l -0.01,0.39 v 0.38 0.38 0.37 l -0.01,0.37 v 0.37 0.35 0.36 l -0.01,0.34 v 0.34 0.34 0.33 l -0.01,0.33 v 0.32 0.31 0.31 0.3 l -0.01,0.3 v 0.29 0.28 0.28 0.28 l -0.01,0.27 v 0.26 0.25 0.25 0.25 0.24 l -0.01,0.23 v 0.22 0.22 0.22 0.2 0.21 0.19 l -0.01,0.19 v 0.18 0.18 0.17 0.16 0.15 0.15 0.15 0.13 l -0.01,0.13 v 0.13 0.11 0.11 0.1 0.1 0.09 0.08 0.08 0.06 0.07 0.05 0.05 0.04 0.03 0.03 0.01 0.01 0.01"
       style="fill:none;stroke:#000000;stroke-width:0.074;stroke-linecap:round;stroke-linejoin:round;stroke-miterlimit:10;stroke-dasharray:none;stroke-opacity:1"
       id="path158" />
    <path
       d="m 461.84311,295.11889 v 0 0 h 0.01 0.01 0.02 0.01 0.03 0.02 0.03 0.03 0.03 0.04 0.04 0.04 0.04 0.05 0.06 0.05 0.06 0.06 0.06 0.07 0.07 0.07 0.07 0.08 0.08 0.09 0.08 0.09 0.09 0.1 0.09 0.1 0.11 0.1 0.11 0.11 0.11 0.12 0.12 0.12 0.12 0.13 0.13 0.13 0.13 0.14 0.13 0.14 0.15 0.14 0.15 0.15 0.15 0.16 0.15 0.16 0.16 0.17 0.16 0.17 0.17 0.18 0.17 0.18 0.18 0.18 0.18 0.19 0.18 0.19 0.19 0.2 0.19 0.2 0.2 0.2 0.2 0.21 0.2 0.21 0.21 0.21 0.22 0.21 0.22 0.22 0.22 0.22 0.23 0.22 0.23 0.23 0.23 0.23 0.47 0.48 0.48 0.49 0.49 0.5 0.51 0.51 0.52 0.52 0.52 0.53 0.54 0.54 0.54 0.55 0.55 0.56 0.56 0.56 0.57 0.57 0.57 0.58 0.58 0.58 0.59 0.59 0.59 0.59 0.59 0.6 0.6 0.6 1.2 1.21 1.22 1.22 1.22 2.43 1.22 1.22 1.21 1.2 0.6 0.6 0.6 0.59 0.6 0.59 0.59 0.58 0.59 0.58 0.57 0.58 0.57 0.57 0.56 0.56 0.56 0.55 0.55 0.55 0.54 0.53 0.53 0.53 0.52 0.52 0.51 0.51 0.5 0.49 0.49 0.48 0.48 0.47 0.23 0.24 0.23 0.22 0.23 0.23 0.22 0.22 0.22 0.22 0.21 0.22 0.21 0.21 0.21 0.21 0.21 0.2 0.2 0.2 0.2 0.19 0.2 0.19 0.19 0.19 0.18 0.19 0.18 0.18 0.18 0.17 0.18 0.17 0.17 0.16 0.17 0.16 0.16 0.16 0.15 0.16 0.15 0.15 0.14 0.15 0.14 0.14 0.13 0.14 0.13 0.13 0.12 0.13 0.12 0.12 0.12 0.11 0.11 0.11 0.11 0.1 0.1 0.1 0.09 0.1 0.09 0.08 0.09 0.08 0.08 0.07 0.08 0.07 0.07 0.06 0.06 0.06 0.06 0.05 0.05 0.05 0.04 0.04 0.04 0.03 0.03 0.03 0.03 0.02 0.02 0.01 0.02 0.01 v 0 0 h 0.01 v 0 h 0.01 0.02 0.07 0.07 l 0.06,0.01 0.07,0.01 0.07,0.01 0.07,0.02 0.06,0.01 0.07,0.02 0.06,0.02 0.06,0.03 0.07,0.02 0.06,0.03 0.06,0.03 0.06,0.03 0.05,0.03 0.06,0.03 0.06,0.04 0.05,0.04 0.05,0.04 0.05,0.04 0.05,0.04 0.05,0.04 0.05,0.05 0.05,0.05 0.04,0.05 0.04,0.05 0.04,0.05 0.04,0.05 0.04,0.06 0.03,0.05 0.04,0.06 0.03,0.06 0.03,0.06 0.03,0.06 0.02,0.06 0.03,0.06 0.02,0.07 0.02,0.06 0.02,0.06 0.01,0.07 0.02,0.07 0.01,0.07 v 0.06 l 0.01,0.07 v 0.07 l 0.01,0.07 v 0.01 0 0 0 0 0.01 0.01 0.01 0.01 0.01 0.02 0.01 0.02 0.02 0.03 0.02 0.03 0.02 0.03 0.04 0.03 0.04 0.03 0.04 0.04 0.05 0.04 0.05 0.04 0.05 0.05 0.06 0.05 0.06 0.06 0.05 0.07 0.06 0.06 0.07 0.14 0.14 0.15 0.15 0.16 0.17 0.17 0.18 l -0.01,0.19 v 0.19 0.19 0.2 0.21 0.21 0.22 0.22 0.23 0.23 0.23 0.25 0.24 0.25 0.26 0.26 0.26 0.27 0.27 0.28 0.28 0.28 0.29 0.29 0.29 0.3 0.3 0.31 0.31 0.31 0.32 0.31 0.33 0.32 0.33 0.32 0.34 0.33 0.34 0.34 0.34 0.34 0.35 0.35 0.35 0.35 0.35 0.71 0.72 0.72 0.73 0.73 0.74 0.73 1.48 l -0.01,1.48 v 1.48 0.74 0.73 0.73 0.72 0.72 0.72 0.35 0.35 0.36 0.34 0.35 0.35 0.34 0.34 0.34 0.34 0.33 0.33 0.33 0.33 0.32 0.32 0.32 0.32 0.31 0.31 0.3 0.3 0.3 0.3 0.29 0.29 0.28 0.28 0.27 0.28 0.26 0.27 0.26 0.25 0.25 0.25 0.24 0.23 0.23 0.23 0.22 0.22 0.21 0.2 0.21 0.19 0.19 0.18 0.18 0.17 0.17 0.16 0.16 0.14 0.15 l -0.01,0.13 v 0.07 0.06 0.07 0.06 0.05 0.06 0.06 0.05 0.06 0.05 0.04 0.05 0.05 0.04 0.04 0.04 0.04 0.04 0.04 0.03 0.03 0.03 0.03 0.02 0.03 0.02 0.02 0.02 0.02 0.01 0.01 0.01 0.01 0.01 0.01 0 0 0 0.01 l -0.01,0.13 -0.02,0.13 -0.02,0.13 -0.01,0.06 -0.02,0.06 -0.02,0.06 -0.01,0.06 -0.02,0.06 -0.02,0.05 -0.03,0.06 -0.02,0.05 -0.03,0.06 -0.03,0.05 -0.02,0.05 -0.04,0.05 -0.03,0.05 -0.03,0.05 -0.04,0.05 -0.04,0.05 -0.04,0.04 v 0.01 0 0 0 l -0.01,0.01 v 0 l -0.01,0.01 v 0.01 h -0.01 l -0.01,0.01 -0.01,0.02 -0.01,0.01 -0.02,0.01 -0.01,0.02 -0.01,0.01 -0.02,0.02 -0.03,0.04 -0.04,0.04 -0.05,0.05 -0.04,0.05 -0.05,0.06 -0.06,0.06 -0.06,0.07 -0.06,0.07 -0.07,0.07 -0.07,0.08 -0.08,0.08 -0.07,0.09 -0.09,0.09 -0.08,0.09 -0.09,0.1 -0.09,0.1 -0.1,0.11 -0.1,0.11 -0.1,0.12 -0.11,0.11 -0.11,0.12 -0.11,0.13 -0.12,0.13 -0.12,0.13 -0.12,0.14 -0.13,0.13 -0.13,0.15 -0.13,0.14 -0.13,0.15 -0.14,0.15 -0.14,0.16 -0.14,0.15 -0.15,0.17 -0.15,0.16 -0.15,0.17 -0.15,0.16 -0.16,0.18 -0.16,0.17 -0.16,0.18 -0.16,0.18 -0.16,0.18 -0.17,0.19 -0.17,0.18 -0.17,0.19 -0.18,0.2 -0.17,0.19 -0.18,0.2 -0.18,0.2 -0.18,0.2 -0.19,0.2 -0.18,0.2 -0.19,0.21 -0.19,0.21 -0.19,0.21 -0.19,0.21 -0.19,0.22 -0.2,0.21 -0.2,0.22 -0.19,0.22 -0.2,0.22 -0.2,0.22 -0.21,0.22 -0.2,0.22 -0.2,0.23 -0.41,0.45 -0.42,0.46 -0.42,0.47 -0.42,0.46 -0.43,0.47 -0.42,0.47 -0.43,0.48 -0.43,0.47 -0.87,0.96 -0.86,0.96 -0.87,0.95 -0.43,0.48 -0.43,0.47 -0.42,0.47 -0.43,0.47 -0.42,0.47 -0.42,0.46 -0.41,0.46 -0.42,0.45 -0.2,0.22 -0.2,0.23 -0.2,0.22 -0.2,0.22 -0.2,0.22 -0.2,0.22 -0.2,0.22 -0.19,0.21 -0.19,0.21 -0.19,0.22 -0.19,0.21 -0.19,0.2 -0.19,0.21 -0.18,0.2 -0.19,0.21 -0.18,0.2 -0.18,0.19 -0.17,0.2 -0.18,0.19 -0.17,0.19 -0.17,0.19 -0.17,0.19 -0.17,0.18 -0.16,0.18 -0.17,0.18 -0.16,0.18 -0.15,0.17 -0.16,0.18 -0.15,0.16 -0.15,0.17 -0.15,0.16 -0.14,0.16 -0.14,0.16 -0.14,0.15 -0.14,0.15 -0.13,0.15 -0.13,0.14 -0.13,0.14 -0.13,0.14 -0.12,0.14 -0.12,0.13 -0.11,0.12 -0.11,0.13 -0.11,0.12 -0.11,0.11 -0.1,0.12 -0.1,0.11 -0.09,0.1 -0.09,0.1 -0.09,0.1 -0.09,0.09 -0.08,0.09 -0.08,0.09 -0.07,0.08 -0.07,0.08 -0.06,0.07 -0.07,0.07 -0.05,0.06 -0.06,0.06 -0.05,0.06 -0.04,0.05 -0.04,0.04 -0.04,0.04 -0.02,0.02 -0.02,0.02 -0.01,0.02 -0.01,0.01 -0.02,0.02 -0.01,0.01 -0.01,0.01 -0.01,0.01 -0.01,0.01 v 0.01 h -0.01 l -0.01,0.01 v 0 0.01 0 l -0.01,0.01 -0.03,0.03 -0.05,0.05 -0.05,0.05 -0.06,0.05 -0.05,0.05 -0.06,0.04 -0.06,0.04 -0.06,0.04 -0.06,0.04 -0.06,0.03 -0.06,0.03 -0.07,0.03 -0.06,0.03 -0.06,0.02 -0.07,0.03 -0.07,0.02 -0.07,0.01 -0.07,0.02 -0.07,0.01 -0.07,0.01 -0.07,0.01 h -0.07 -0.08 -0.04 v 0 h -0.01 v 0 h -0.01 -0.01 -0.01 -0.01 -0.02 -0.02 -0.02 -0.02 -0.02 -0.03 -0.02 -0.03 -0.03 -0.04 -0.03 -0.04 -0.04 -0.04 -0.04 -0.04 -0.05 -0.05 -0.05 -0.05 -0.05 -0.06 -0.05 -0.06 -0.06 -0.07 -0.06 -0.07 -0.06 -0.07 -0.07 -0.08 -0.07 -0.08 -0.07 -0.08 -0.08 -0.09 -0.08 -0.17 -0.18 -0.19 -0.19 -0.2 -0.2 -0.21 -0.21 -0.22 -0.23 -0.23 -0.24 -0.24 -0.25 l -0.25,-0.01 h -0.26 -0.26 -0.27 -0.27 -0.28 -0.28 -0.28 -0.29 -0.3 -0.29 -0.31 -0.3 -0.31 -0.32 -0.32 -0.32 -0.32 -0.33 l -0.33,-0.01 h -0.34 -0.34 -0.34 -0.34 -0.35 -0.35 -0.36 -0.35 -0.36 -0.36 -0.36 -0.37 -0.37 -0.37 -0.37 l -0.37,-0.01 h -0.38 -0.37 -0.76 -0.77 -0.77 -0.77 -0.78 -0.78 l -1.57,-0.01 h -1.57 -1.57 -0.79 l -0.77,-0.01 h -0.78 -0.77 -0.77 -0.76 -0.38 -0.37 -0.38 -0.37 -0.37 l -0.37,-0.01 h -0.36 -0.37 -0.36 -0.36 -0.36 -0.35 -0.35 -0.35 -0.35 -0.34 -0.34 -0.33 -0.34 -0.33 -0.32 l -0.33,-0.01 h -0.32 -0.31 -0.31 -0.31 -0.31 -0.3 -0.29 -0.29 -0.29 -0.28 -0.28 -0.27 -0.27 -0.27 -0.26 -0.25 -0.25 -0.24 -0.24 l -0.24,-0.01 h -0.22 -0.23 -0.21 -0.21 -0.21 -0.2 -0.19 -0.19 -0.18 -0.18 -0.08 -0.09 -0.08 -0.08 -0.08 -0.07 -0.08 -0.07 -0.08 -0.07 -0.06 -0.07 -0.07 -0.06 -0.06 -0.06 -0.06 -0.06 -0.05 -0.06 -0.05 -0.05 -0.04 -0.05 -0.04 -0.04 -0.04 -0.04 -0.04 -0.03 -0.04 -0.03 -0.02 -0.03 -0.03 -0.02 -0.02 -0.02 -0.01 -0.02 -0.01 -0.01 -0.01 -0.01 v 0 0 0 h -0.01 -0.01 -0.07 l -0.07,-0.01 -0.07,-0.01 h -0.06 l -0.07,-0.02 -0.07,-0.01 -0.06,-0.01 -0.07,-0.02 -0.06,-0.02 -0.07,-0.02 -0.06,-0.03 -0.06,-0.03 -0.06,-0.02 -0.06,-0.03 -0.06,-0.04 -0.05,-0.03 -0.06,-0.03 -0.05,-0.04 -0.06,-0.04 -0.05,-0.04 -0.05,-0.04 -0.05,-0.05 -0.05,-0.04 -0.04,-0.05 -0.05,-0.05 -0.04,-0.05 -0.04,-0.05 -0.04,-0.05 -0.04,-0.06 -0.03,-0.05 -0.04,-0.06 -0.03,-0.06 -0.03,-0.06 -0.03,-0.06 -0.03,-0.06 -0.02,-0.06 -0.02,-0.06 -0.02,-0.07 -0.02,-0.06 -0.02,-0.07 -0.01,-0.06 -0.01,-0.07 -0.01,-0.07 -0.01,-0.07 v -0.07 l -0.01,-0.07 v -0.02 0 -0.01 0 -0.01 -0.01 -0.02 -0.01 -0.03 -0.02 -0.03 -0.03 -0.03 -0.04 -0.04 -0.04 -0.05 -0.05 -0.05 -0.05 -0.06 -0.06 -0.06 -0.07 -0.07 -0.07 -0.08 -0.08 -0.08 -0.08 -0.09 -0.08 -0.1 -0.09 -0.1 -0.1 -0.1 -0.11 -0.1 -0.11 -0.12 -0.11 -0.12 -0.12 -0.13 -0.12 -0.13 -0.13 -0.13 -0.14 -0.14 -0.14 -0.14 -0.15 -0.14 -0.15 -0.16 -0.15 -0.16 -0.16 -0.16 -0.16 -0.17 -0.17 -0.17 -0.17 -0.17 -0.18 -0.18 -0.18 -0.18 -0.19 -0.18 -0.19 -0.19 -0.2 -0.19 -0.2 -0.2 -0.2 -0.2 -0.21 -0.2 -0.21 -0.21 -0.21 -0.22 -0.21 -0.22 -0.22 -0.22 -0.22 -0.23 -0.22 -0.23 -0.23 -0.23 -0.46 -0.48 -0.48 -0.48 -0.49 -0.5 -0.5 -0.5 -0.52 -0.51 -0.53 -0.52 -0.54 -0.53 -0.54 -0.55 -0.55 -0.55 -0.56 -0.56 -0.56 -0.57 -0.57 -0.58 -0.58 -0.58 -0.58 -0.59 -0.58 -0.59 -0.6 -0.59 -0.6 -0.6 -0.6 -1.2 -1.21 -1.21 -1.22 -2.43 -1.22 -1.21 -1.22 -1.2 -1.2 -0.6 -0.6 -0.59 -0.6 -0.59 -0.59 -0.58 -0.59 -0.58 -0.57 -0.58 -0.57 -0.57 -0.56 -0.57 -0.55 -0.56 -0.55 -0.54 -0.54 -0.54 -0.53 -0.53 -0.52 -0.52 -0.51 -0.51 -0.5 -0.5 -0.49 -0.49 -0.48 -0.47 -0.46 -0.24 -0.23 -0.22 -0.23 -0.22 -0.23 -0.22 -0.22 -0.21 -0.22 -0.21 -0.22 -0.21 -0.21 -0.2 -0.21 -0.2 -0.2 -0.2 -0.2 -0.19 -0.2 -0.19 -0.19 -0.18 -0.19 -0.18 -0.18 -0.18 -0.18 -0.18 -0.17 -0.17 -0.17 -0.16 -0.17 -0.16 -0.16 -0.16 -0.15 -0.15 -0.15 -0.15 -0.15 -0.14 -0.14 -0.14 -0.14 -0.13 -0.13 -0.13 -0.13 -0.12 -0.12 -0.12 -0.12 -0.11 -0.11 -0.11 -0.11 -0.1 -0.1 -0.1 -0.09 -0.09 -0.09 -0.09 -0.08 -0.09 -0.07 -0.08 -0.07 -0.07 -0.07 -0.06 -0.06 -0.06 -0.06 -0.05 -0.05 -0.05 -0.04 -0.04 -0.04 -0.03 -0.03 -0.03 -0.03 -0.02 -0.02 -0.01 -0.01 -0.01 -0.01 0 0 -0.04 l 0.01,-0.07 v -0.07 l 0.01,-0.07 0.01,-0.07 0.01,-0.06 0.02,-0.07 0.01,-0.06 0.02,-0.07 0.02,-0.06 0.02,-0.07 0.03,-0.06 0.03,-0.06 0.02,-0.06 0.04,-0.06 0.03,-0.06 0.03,-0.05 0.04,-0.06 0.04,-0.05 0.04,-0.05 0.04,-0.06 0.04,-0.04 0.05,-0.05 0.04,-0.05 0.05,-0.05 0.05,-0.04 0.05,-0.04 0.05,-0.04 0.05,-0.04 0.06,-0.04 0.06,-0.03 0.05,-0.04 0.06,-0.03 0.06,-0.03 0.06,-0.03 0.06,-0.02 0.06,-0.03 0.07,-0.02 0.06,-0.02 0.07,-0.01 0.06,-0.02 0.07,-0.01 0.07,-0.01 0.07,-0.01 0.07,-0.01 h 0.07 0.07"
       style="fill:none;stroke:#000000;stroke-width:0.074;stroke-linecap:round;stroke-linejoin:round;stroke-miterlimit:10;stroke-dasharray:none;stroke-opacity:1"
       id="path160" />
    <path
       d="m 136.83578,221.29889 h 0.01 0.02 0.05 0.06 0.07 0.09 0.11 0.13 0.14 0.16 0.17 0.19 0.2 0.23 0.23 0.25 0.27 0.28 0.3 0.31 0.33 0.35 0.35 0.37 0.39 0.4 0.42 0.43 0.44 0.46 0.47 0.48 0.5 0.51 0.53 0.54 0.55 0.56 0.58 0.59 0.6 0.62 0.63 0.64 0.65 0.67 0.68 0.69 0.7 0.71 0.73 0.73 0.75 0.76 0.77 0.78 0.8 0.8 0.81 0.83 0.84 0.84 0.86 0.87 0.87 0.89 0.9 0.9 0.92 0.93 0.93 0.95 0.95 0.96 0.98 0.98 0.99 1 1.01 1.01 1.03 1.03 1.04 1.05 1.06 1.06 1.08 1.08 1.09 1.09 1.1 1.11 1.12 1.13 1.13 1.13 2.3 2.32 2.35 2.37 2.39 2.42 2.44 2.46 2.47 2.5 2.52 2.53 2.55 2.56 2.58 2.59 2.61 2.62 2.62 2.64 2.65 2.66 2.66 2.67 5.36 5.37 10.77 5.39 5.37 5.35 2.67 2.66 2.65 2.65 2.63 2.62 2.61 2.6 2.59 2.57 2.56 2.54 2.53 2.5 2.49 2.47 2.45 2.43 2.4 2.39 2.36 2.33 2.31 1.15 1.14 1.13 1.12 1.12 1.11 1.1 1.1 1.09 1.08 1.07 1.07 1.06 1.05 1.04 1.03 1.03 1.01 1.01 1 0.99 0.99 0.97 0.96 0.96 0.94 0.94 0.93 0.92 0.9 0.9 0.89 0.88 0.86 0.86 0.85 0.84 0.82 0.82 0.8 0.8 0.78 0.77 0.76 0.75 0.74 0.72 0.72 0.7 0.69 0.68 0.66 0.66 0.64 0.63 0.62 0.6 0.59 0.58 0.57 0.55 0.54 0.53 0.51 0.5 0.49 0.47 0.46 0.44 0.43 0.42 0.4 0.39 0.37 0.36 0.34 0.33 0.31 0.3 0.29 0.26 0.26 0.24 0.22 0.2 0.19 0.18 0.16 0.14 0.13 0.11 0.09 0.08 0.06 0.04 0.03 0.01 0.02 0.08 l 0.17,0.01 0.16,0.01 0.17,0.02 0.16,0.03 0.32,0.07 0.31,0.1 0.3,0.12 0.29,0.15 0.28,0.16 0.26,0.18 0.25,0.21 0.23,0.22 0.21,0.23 0.19,0.25 0.08,0.13 0.08,0.14 0.08,0.14 0.06,0.14 0.07,0.14 0.05,0.15 0.05,0.15 0.04,0.15 0.03,0.15 0.03,0.16 0.02,0.16 0.01,0.16 v 0.16 l -0.01,0.16 v 0.09 l -0.01,0.04 v 0.01 0.03 l -0.01,0.04 v 0.07 l -0.01,0.09 -0.01,0.1 -0.01,0.12 -0.02,0.14 -0.01,0.16 -0.02,0.17 -0.02,0.2 -0.02,0.2 -0.02,0.23 -0.03,0.24 -0.02,0.26 -0.03,0.28 -0.03,0.29 -0.03,0.3 -0.04,0.33 -0.03,0.33 -0.03,0.35 -0.04,0.37 -0.04,0.38 -0.04,0.39 -0.04,0.41 -0.04,0.42 -0.05,0.44 -0.04,0.44 -0.05,0.47 -0.05,0.47 -0.04,0.48 -0.05,0.5 -0.06,0.51 -0.05,0.52 -0.05,0.53 -0.06,0.54 -0.05,0.56 -0.06,0.56 -0.06,0.58 -0.06,0.58 -0.05,0.59 -0.07,0.61 -0.06,0.61 -0.06,0.62 -0.06,0.63 -0.07,0.64 -0.06,0.65 -0.07,0.65 -0.07,0.67 -0.06,0.67 -0.07,0.67 -0.07,0.69 -0.07,0.69 -0.14,1.4 -0.14,1.43 -0.15,1.44 -0.15,1.47 -0.15,1.49 -0.15,1.5 -0.15,1.51 -0.15,1.53 -0.16,1.54 -0.16,1.54 -0.31,3.11 -0.31,3.11 -0.31,3.11 -0.16,1.54 -0.15,1.53 -0.16,1.53 -0.15,1.51 -0.15,1.5 -0.15,1.49 -0.15,1.46 -0.14,1.44 -0.15,1.43 -0.14,1.39 -0.07,0.69 -0.06,0.69 -0.07,0.67 -0.07,0.67 -0.07,0.66 -0.06,0.65 -0.07,0.65 -0.06,0.63 -0.06,0.63 -0.07,0.62 -0.06,0.61 -0.06,0.6 -0.06,0.59 -0.06,0.58 -0.05,0.57 -0.06,0.56 -0.06,0.55 -0.05,0.54 -0.05,0.53 -0.06,0.52 -0.05,0.5 -0.05,0.5 -0.04,0.48 -0.05,0.47 -0.05,0.45 -0.04,0.45 -0.05,0.43 -0.04,0.42 -0.04,0.4 -0.04,0.39 -0.04,0.38 -0.03,0.36 -0.04,0.34 -0.03,0.34 -0.03,0.31 -0.03,0.3 -0.03,0.29 -0.03,0.27 -0.02,0.25 -0.03,0.24 -0.02,0.22 -0.02,0.21 -0.02,0.18 -0.02,0.17 -0.01,0.16 -0.02,0.13 -0.01,0.12 -0.01,0.09 v 0.08 l -0.01,0.06 -0.01,0.04 v 0.03 0 0.02 0.04 l -0.01,0.05 -0.01,0.08 -0.01,0.09 -0.01,0.11 -0.01,0.13 -0.02,0.15 -0.01,0.17 -0.02,0.18 -0.02,0.2 -0.02,0.22 -0.03,0.23 -0.02,0.25 -0.03,0.27 -0.03,0.28 -0.03,0.3 -0.03,0.31 -0.03,0.33 -0.04,0.34 -0.03,0.36 -0.04,0.37 -0.04,0.39 -0.04,0.4 -0.04,0.41 -0.04,0.43 -0.05,0.44 -0.04,0.46 -0.05,0.46 -0.05,0.48 -0.05,0.49 -0.05,0.5 -0.05,0.52 -0.05,0.52 -0.06,0.54 -0.05,0.55 -0.06,0.56 -0.06,0.56 -0.05,0.58 -0.06,0.59 -0.06,0.6 -0.06,0.61 -0.07,0.61 -0.06,0.63 -0.06,0.63 -0.07,0.65 -0.06,0.65 -0.07,0.66 -0.07,0.66 -0.06,0.68 -0.07,0.68 -0.07,0.69 -0.07,0.69 -0.14,1.41 -0.15,1.43 -0.14,1.45 -0.15,1.47 -0.15,1.49 -0.15,1.51 -0.16,1.51 -0.15,1.53 -0.16,1.54 -0.31,3.1 -0.31,3.11 -0.31,3.11 -0.16,1.55 -0.16,1.54 -0.15,1.54 -0.15,1.52 -0.15,1.51 -0.16,1.5 -0.14,1.47 -0.15,1.46 -0.15,1.44 -0.14,1.42 -0.14,1.39 -0.07,0.69 -0.07,0.68 -0.06,0.67 -0.07,0.66 -0.07,0.66 -0.06,0.65 -0.07,0.64 -0.06,0.63 -0.06,0.63 -0.07,0.61 -0.06,0.61 -0.06,0.59 -0.06,0.59 -0.05,0.58 -0.06,0.56 -0.06,0.56 -0.05,0.54 -0.05,0.54 -0.06,0.52 -0.05,0.51 -0.05,0.5 -0.05,0.49 -0.05,0.48 -0.04,0.46 -0.05,0.45 -0.04,0.44 -0.05,0.42 -0.04,0.41 -0.04,0.4 -0.04,0.38 -0.03,0.37 -0.04,0.36 -0.03,0.34 -0.04,0.32 -0.03,0.31 -0.03,0.3 -0.02,0.28 -0.03,0.26 -0.03,0.24 -0.02,0.23 -0.02,0.22 -0.02,0.19 -0.02,0.18 -0.01,0.17 -0.02,0.14 -0.01,0.12 -0.01,0.11 -0.01,0.09 -0.01,0.07 v 0.05 l -0.01,0.04 v 0.01 0.01 0.02 l -0.01,0.05 v 0.06 l -0.01,0.09 -0.01,0.1 -0.01,0.12 -0.02,0.14 -0.01,0.15 -0.02,0.18 -0.02,0.19 -0.02,0.21 -0.02,0.22 -0.03,0.24 -0.02,0.26 -0.03,0.28 -0.03,0.29 -0.03,0.3 -0.03,0.32 -0.04,0.34 -0.03,0.35 -0.04,0.36 -0.04,0.38 -0.04,0.39 -0.04,0.41 -0.04,0.42 -0.04,0.44 -0.05,0.44 -0.05,0.46 -0.04,0.47 -0.05,0.49 -0.05,0.5 -0.05,0.5 -0.06,0.52 -0.05,0.53 -0.05,0.55 -0.06,0.55 -0.06,0.56 -0.05,0.58 -0.06,0.58 -0.06,0.59 -0.06,0.61 -0.07,0.61 -0.06,0.62 -0.06,0.63 -0.07,0.64 -0.06,0.65 -0.07,0.65 -0.06,0.66 -0.07,0.67 -0.07,0.68 -0.07,0.68 -0.14,1.39 -0.14,1.42 -0.15,1.43 -0.14,1.46 -0.15,1.48 -0.15,1.49 -0.15,1.51 -0.16,1.52 -0.15,1.54 -0.16,1.54 -0.15,1.55 -0.63,6.22 -0.31,3.1 -0.16,1.54 -0.15,1.54 -0.16,1.52 -0.15,1.5 -0.15,1.5 -0.15,1.47 -0.15,1.46 -0.14,1.43 -0.14,1.42 -0.14,1.38 -0.07,0.69 -0.07,0.67 -0.07,0.67 -0.06,0.66 -0.07,0.66 -0.06,0.64 -0.07,0.64 -0.06,0.63 -0.06,0.62 -0.07,0.61 -0.06,0.6 -0.06,0.59 -0.06,0.58 -0.05,0.58 -0.06,0.56 -0.05,0.55 -0.06,0.54 -0.05,0.53 -0.05,0.52 -0.06,0.5 -0.05,0.5 -0.04,0.48 -0.05,0.47 -0.05,0.46 -0.04,0.44 -0.05,0.44 -0.04,0.41 -0.04,0.41 -0.04,0.39 -0.04,0.38 -0.03,0.36 -0.04,0.35 -0.03,0.33 -0.03,0.32 -0.03,0.3 -0.03,0.29 -0.03,0.27 -0.03,0.26 -0.02,0.24 -0.02,0.22 -0.02,0.2 -0.02,0.19 -0.02,0.17 -0.02,0.16 -0.01,0.13 -0.01,0.12 -0.01,0.1 -0.01,0.08 -0.01,0.06 v 0.04 0.03 0 0.01 l -0.01,0.02 v 0.02 0.04 l -0.01,0.04 v 0.05 l -0.01,0.06 v 0.07 l -0.01,0.08 -0.01,0.09 -0.01,0.09 -0.01,0.1 -0.01,0.11 -0.01,0.12 -0.02,0.13 -0.01,0.13 -0.01,0.14 -0.02,0.15 -0.01,0.15 -0.02,0.17 -0.02,0.17 -0.02,0.17 -0.01,0.18 -0.02,0.19 -0.04,0.4 -0.05,0.42 -0.04,0.45 -0.05,0.47 -0.05,0.49 -0.05,0.51 -0.05,0.54 -0.06,0.55 -0.06,0.57 -0.05,0.59 -0.07,0.6 -0.06,0.62 -0.06,0.63 -0.07,0.65 -0.06,0.66 -0.07,0.67 -0.07,0.69 -0.07,0.69 -0.07,0.7 -0.07,0.71 -0.15,1.44 -0.14,1.45 -0.15,1.47 -0.3,2.95 -0.14,1.46 -0.15,1.44 -0.07,0.71 -0.07,0.71 -0.07,0.69 -0.07,0.69 -0.07,0.68 -0.07,0.66 -0.06,0.66 -0.07,0.64 -0.06,0.62 -0.06,0.61 -0.06,0.6 -0.06,0.58 -0.06,0.56 -0.05,0.54 -0.05,0.52 -0.05,0.5 -0.05,0.48 -0.05,0.46 -0.04,0.43 -0.04,0.41 -0.04,0.39 -0.02,0.18 -0.02,0.18 -0.01,0.16 -0.02,0.17 -0.02,0.15 -0.01,0.15 -0.01,0.14 -0.02,0.13 -0.01,0.12 -0.01,0.12 -0.01,0.11 -0.01,0.1 -0.01,0.1 -0.01,0.08 -0.01,0.08 -0.01,0.07 v 0.06 l -0.01,0.05 v 0.04 l -0.01,0.04 v 0.02 0.02 0.01 0.01 0.02 l -0.01,0.03 v 0.04 l -0.01,0.05 v 0.05 l -0.01,0.07 -0.01,0.07 v 0.08 l -0.01,0.09 -0.01,0.1 -0.01,0.11 -0.01,0.11 -0.02,0.12 -0.01,0.13 -0.01,0.14 -0.02,0.14 -0.01,0.15 -0.02,0.16 -0.02,0.17 -0.01,0.17 -0.02,0.18 -0.04,0.37 -0.04,0.41 -0.04,0.43 -0.05,0.45 -0.05,0.47 -0.05,0.5 -0.05,0.52 -0.05,0.53 -0.06,0.56 -0.05,0.57 -0.06,0.6 -0.07,0.6 -0.06,0.63 -0.06,0.63 -0.07,0.65 -0.06,0.67 -0.07,0.67 -0.07,0.69 -0.07,0.69 -0.07,0.7 -0.07,0.71 -0.07,0.72 -0.15,1.45 -0.15,1.46 -0.15,1.48 -0.14,1.47 -0.15,1.47 -0.15,1.45 -0.07,0.71 -0.07,0.71 -0.07,0.7 -0.07,0.7 -0.07,0.68 -0.07,0.68 -0.06,0.66 -0.07,0.65 -0.06,0.64 -0.07,0.62 -0.06,0.61 -0.06,0.59 -0.05,0.57 -0.06,0.56 -0.05,0.54 -0.06,0.52 -0.05,0.49 -0.04,0.48 -0.05,0.45 -0.04,0.43 -0.04,0.4 -0.04,0.38 -0.02,0.18 -0.02,0.17 -0.01,0.16 -0.02,0.16 -0.01,0.15 -0.02,0.15 -0.01,0.13 -0.01,0.13 -0.02,0.12 -0.01,0.12 -0.01,0.1 -0.01,0.1 -0.01,0.09 -0.01,0.08 v 0.08 l -0.01,0.06 -0.01,0.06 v 0.04 0.04 l -0.01,0.03 v 0.02 0.02 0 0 0.01 0.04 l -0.04,0.33 -0.05,0.33 -0.08,0.32 -0.09,0.31 -0.12,0.31 -0.13,0.29 -0.16,0.27 -0.18,0.27 -0.1,0.12 -0.1,0.12 -0.11,0.12 -0.11,0.11 -0.12,0.11 -0.12,0.1 -0.13,0.1 -0.13,0.09 -0.14,0.09 -0.14,0.08 -0.15,0.07 -0.16,0.07 -0.16,0.07 -0.16,0.05 -0.17,0.05 -0.18,0.04 -0.18,0.04 -0.18,0.03 -0.2,0.02 -0.19,0.01 -0.21,0.01 h -0.2 l -0.22,-0.01 -0.01,-0.01 v 0 h -0.02 -0.03 -0.04 l -0.06,-0.01 -0.07,-0.01 h -0.09 l -0.1,-0.01 -0.11,-0.01 -0.13,-0.01 -0.15,-0.02 -0.16,-0.01 -0.17,-0.02 -0.19,-0.01 -0.2,-0.02 -0.21,-0.02 -0.23,-0.02 -0.24,-0.02 -0.26,-0.02 -0.26,-0.02 -0.29,-0.03 -0.29,-0.03 -0.31,-0.02 -0.32,-0.03 -0.33,-0.03 -0.35,-0.03 -0.36,-0.03 -0.37,-0.03 -0.38,-0.04 -0.4,-0.03 -0.41,-0.04 -0.42,-0.04 -0.43,-0.03 -0.45,-0.04 -0.45,-0.04 -0.47,-0.04 -0.48,-0.05 -0.5,-0.04 -0.5,-0.04 -0.51,-0.05 -0.53,-0.04 -0.54,-0.05 -0.55,-0.05 -0.56,-0.05 -0.57,-0.05 -0.58,-0.05 -0.59,-0.05 -0.6,-0.05 -0.62,-0.06 -0.62,-0.05 -0.63,-0.06 -0.65,-0.06 -0.65,-0.05 -0.67,-0.06 -0.67,-0.06 -0.69,-0.06 -0.69,-0.06 -0.71,-0.06 -0.71,-0.07 -0.72,-0.06 -0.74,-0.06 -0.74,-0.07 -0.75,-0.06 -0.76,-0.07 -0.77,-0.07 -0.78,-0.07 -0.79,-0.07 -0.79,-0.07 -0.81,-0.07 -0.81,-0.07 -0.82,-0.07 -0.83,-0.07 -0.84,-0.08 -0.85,-0.07 -0.85,-0.08 -0.86,-0.07 -0.87,-0.08 -0.88,-0.07 -0.89,-0.08 -0.89,-0.08 -0.9,-0.08 -0.91,-0.08 -0.92,-0.08 -0.92,-0.08 -0.93,-0.08 -0.94,-0.08 -0.94,-0.09 -0.95,-0.08 -0.96,-0.09 -0.96,-0.08 -1.95,-0.17 -1.97,-0.17 -2,-0.18 -2.02,-0.18 -2.05,-0.18 -2.06,-0.18 -2.09,-0.18 -2.11,-0.19 -2.13,-0.18 -2.15,-0.19 -2.16,-0.19 -2.19,-0.19 -2.2,-0.2 -2.22,-0.19 -2.23,-0.2 -2.25,-0.19 -2.26,-0.2 -2.27,-0.2 -2.29,-0.2 -2.3,-0.2 -2.31,-0.21 -2.32,-0.2 -2.33,-0.2 -2.33,-0.21 -2.35,-0.2 -4.71,-0.42 -4.73,-0.41 -4.75,-0.42 -9.51,-0.83 -4.76,-0.42 -4.75,-0.42 -4.73,-0.41 -4.71,-0.42 -2.35,-0.2 -2.34,-0.21 -2.33,-0.2 -2.32,-0.21 -2.31,-0.2 -2.3,-0.2 -2.29,-0.2 -2.27,-0.2 -2.27,-0.2 -2.25,-0.2 -2.23,-0.19 -2.22,-0.2 -2.21,-0.19 -2.18,-0.19 -2.17,-0.19 -2.16,-0.19 -2.13,-0.19 -2.11,-0.18 -2.09,-0.19 -2.07,-0.18 -2.05,-0.18 -2.02,-0.18 -2.01,-0.17 -1.97,-0.18 -1.95,-0.17 -0.97,-0.08 -0.96,-0.09 -0.95,-0.08 -0.95,-0.08 -0.94,-0.08 -0.93,-0.09 -0.92,-0.08 -0.92,-0.08 -0.91,-0.08 -0.91,-0.08 -0.89,-0.08 -0.89,-0.07 -0.88,-0.08 -0.87,-0.08 -0.87,-0.07 -0.85,-0.08 -0.85,-0.07 -0.84,-0.08 -0.84,-0.07 -0.82,-0.07 -0.82,-0.07 -0.8,-0.07 -0.8,-0.07 -0.79,-0.07 -0.78,-0.07 -0.78,-0.07 -0.76,-0.07 -0.75,-0.06 -0.75,-0.07 -0.73,-0.06 -0.73,-0.07 -0.72,-0.06 -0.7,-0.06 -0.7,-0.06 -0.69,-0.06 -0.68,-0.06 -0.67,-0.06 -0.65,-0.06 -0.65,-0.06 -0.64,-0.05 -0.63,-0.06 -0.61,-0.05 -0.61,-0.05 -0.59,-0.06 -0.59,-0.05 -0.57,-0.05 -0.57,-0.05 -0.55,-0.05 -0.54,-0.04 -0.53,-0.05 -0.52,-0.05 -0.5,-0.04 -0.5,-0.04 -0.48,-0.05 -0.48,-0.04 -0.46,-0.04 -0.45,-0.04 -0.43,-0.04 -0.43,-0.03 -0.41,-0.04 -0.4,-0.03 -0.39,-0.04 -0.37,-0.03 -0.36,-0.03 -0.36,-0.03 -0.33,-0.03 -0.33,-0.03 -0.31,-0.03 -0.3,-0.03 -0.28,-0.02 -0.28,-0.02 -0.25,-0.03 -0.25,-0.02 -0.23,-0.02 -0.22,-0.02 -0.2,-0.02 -0.2,-0.01 -0.17,-0.02 -0.17,-0.01 -0.15,-0.02 -0.13,-0.01 -0.12,-0.01 -0.11,-0.01 -0.09,-0.01 h -0.08 l -0.06,-0.01 h -0.05 -0.03 l -0.02,-0.01 h -0.01 l -0.08,-0.01 -0.16,-0.02 -0.33,-0.05 -0.31,-0.08 -0.31,-0.1 -0.3,-0.11 -0.28,-0.14 -0.28,-0.15 -0.26,-0.17 -0.24,-0.19 -0.23,-0.2 -0.22,-0.22 -0.19,-0.24 -0.18,-0.24 -0.15,-0.27 -0.14,-0.27 -0.11,-0.29 -0.05,-0.15 -0.04,-0.15 -0.03,-0.15 -0.03,-0.16 -0.03,-0.15 -0.01,-0.17 -0.01,-0.16 v -0.08 -0.04 -0.02 -0.01 -0.03 -0.05 -0.07 -0.09 -0.1 -0.12 -0.13 -0.16 -0.17 -0.19 -0.2 -0.23 -0.23 -0.26 -0.27 -0.29 -0.3 -0.32 -0.34 -0.35 -0.37 -0.38 -0.4 -0.42 -0.43 -0.44 -0.46 -0.48 -0.48 -0.51 -0.52 -0.53 -0.55 -0.56 -0.58 -0.59 -0.6 -0.62 -0.63 -0.64 -0.66 -0.67 -0.69 -0.69 -0.71 -0.73 -0.73 -0.75 -0.76 -0.78 -0.78 -0.8 -0.81 -0.82 -0.84 -0.84 -0.86 -0.87 -0.88 -0.89 -0.9 -0.92 -0.92 -0.94 -0.94 -0.96 -0.96 -0.98 -0.99 -0.99 -1.01 -1.02 -1.03 -1.03 -1.05 -1.05 -1.07 -1.07 -1.08 -1.09 -1.1 -1.11 -1.12 -1.13 -1.13 -1.14 -1.15 -1.16 -1.17 -1.17 -1.19 -1.19 -1.19 -1.21 -1.21 -1.22 -1.22 -1.23 -2.49 -2.51 -2.54 -2.56 -2.58 -2.6 -2.63 -2.65 -2.66 -2.69 -2.7 -2.72 -2.74 -2.75 -2.76 -2.78 -2.79 -2.8 -2.81 -2.82 -2.83 -5.68 -5.71 -5.71 -11.46 -5.71 -5.71 -5.68 -2.84 -2.82 -2.81 -2.81 -2.79 -2.78 -2.77 -2.76 -2.74 -2.72 -2.71 -2.69 -2.67 -2.66 -2.63 -2.61 -2.59 -2.57 -2.54 -2.52 -2.49 -1.24 -1.23 -1.22 -1.22 -1.21 -1.2 -1.19 -1.19 -1.18 -1.17 -1.16 -1.16 -1.15 -1.14 -1.13 -1.12 -1.11 -1.11 -1.1 -1.08 -1.08 -1.07 -1.06 -1.06 -1.04 -1.03 -1.02 -1.02 -1 -0.99 -0.99 -0.97 -0.96 -0.95 -0.94 -0.94 -0.92 -0.9 -0.9 -0.89 -0.87 -0.87 -0.85 -0.84 -0.83 -0.82 -0.81 -0.79 -0.78 -0.77 -0.76 -0.74 -0.73 -0.72 -0.7 -0.7 -0.68 -0.66 -0.66 -0.64 -0.62 -0.61 -0.6 -0.59 -0.57 -0.55 -0.55 -0.52 -0.52 -0.49 -0.49 -0.47 -0.45 -0.44 -0.42 -0.41 -0.39 -0.38 -0.36 -0.35 -0.33 -0.31 -0.3 -0.28 -0.27 -0.25 -0.23 -0.22 -0.19 -0.19 -0.16 -0.15 -0.13 -0.11 -0.1 -0.08 -0.06 -0.04 -0.02 -0.01 -0.02 -0.04 -0.17 l 0.02,-0.16 0.02,-0.16 0.02,-0.16 0.03,-0.16 0.09,-0.31 0.1,-0.3 0.13,-0.29 0.15,-0.27 0.17,-0.26 0.19,-0.25 0.21,-0.23 0.23,-0.21 0.24,-0.2 0.26,-0.18 0.27,-0.15 0.28,-0.14 0.3,-0.11 0.3,-0.09 0.16,-0.04 0.16,-0.03 0.16,-0.02 0.16,-0.02 0.16,-0.01 h 0.17"
       style="fill:none;stroke:#000000;stroke-width:0.074;stroke-linecap:round;stroke-linejoin:round;stroke-miterlimit:10;stroke-dasharray:none;stroke-opacity:1"
       id="path162" />
    <path
       d="m 195.58578,265.21889 -1.73,-0.39 -1.39,-1.11 -0.77,-1.59 v -1.78 l 0.77,-1.59 1.39,-1.11 1.73,-0.39 1.72,0.39 1.39,1.11 0.77,1.59 v 1.78 l -0.77,1.59 -1.39,1.11 -1.72,0.39"
       style="fill:none;stroke:#000000;stroke-width:0.074;stroke-linecap:round;stroke-linejoin:round;stroke-miterlimit:10;stroke-dasharray:none;stroke-opacity:1"
       id="path164" />
    <path
       d="m 341.46578,265.21889 -1.73,-0.39 -1.39,-1.11 -0.77,-1.59 v -1.78 l 0.77,-1.59 1.39,-1.11 1.73,-0.39 1.72,0.39 1.39,1.11 0.77,1.59 v 1.78 l -0.77,1.59 -1.39,1.11 -1.72,0.39"
       style="fill:none;stroke:#000000;stroke-width:0.074;stroke-linecap:round;stroke-linejoin:round;stroke-miterlimit:10;stroke-dasharray:none;stroke-opacity:1"
       id="path166" />
    <path
       d="m 297.99578,475.43889 -1.73,-0.4 -1.39,-1.1 -0.77,-1.6 v -1.77 l 0.77,-1.6 1.39,-1.11 1.73,-0.39 1.73,0.39 1.38,1.11 0.77,1.6 v 1.77 l -0.77,1.6 -1.38,1.1 -1.73,0.4"
       style="fill:none;stroke:#000000;stroke-width:0.074;stroke-linecap:round;stroke-linejoin:round;stroke-miterlimit:10;stroke-dasharray:none;stroke-opacity:1"
       id="path168" />
    <path
       d="m 323.00578,398.49889 -1.73,-0.4 -1.38,-1.1 -0.77,-1.6 v -1.77 l 0.77,-1.6 1.38,-1.11 1.73,-0.39 1.73,0.39 1.39,1.11 0.77,1.6 v 1.77 l -0.77,1.6 -1.39,1.1 -1.73,0.4"
       style="fill:none;stroke:#000000;stroke-width:0.074;stroke-linecap:round;stroke-linejoin:round;stroke-miterlimit:10;stroke-dasharray:none;stroke-opacity:1"
       id="path170" />
    <path
       d="m 222.60578,469.58889 -1.91,-0.38 -1.61,-1.08 -1.08,-1.62 -0.38,-1.9 0.38,-1.91 1.08,-1.61 1.61,-1.08 1.91,-0.38 1.91,0.38 1.61,1.08 1.08,1.61 0.38,1.91 -0.38,1.9 -1.08,1.62 -1.61,1.08 -1.91,0.38"
       style="fill:none;stroke:#000000;stroke-width:0.074;stroke-linecap:round;stroke-linejoin:round;stroke-miterlimit:10;stroke-dasharray:none;stroke-opacity:1"
       id="path172" />
    <path
       d="m 160.06578,520.11889 -1.73,-0.4 -1.38,-1.1 -0.77,-1.6 v -1.77 l 0.77,-1.6 1.38,-1.1 1.73,-0.4 1.73,0.4 1.39,1.1 0.77,1.6 v 1.77 l -0.77,1.6 -1.39,1.1 -1.73,0.4"
       style="fill:none;stroke:#000000;stroke-width:0.074;stroke-linecap:round;stroke-linejoin:round;stroke-miterlimit:10;stroke-dasharray:none;stroke-opacity:1"
       id="path174" />
    <path
       d="m 341.81578,534.80889 -1.73,-0.39 -1.39,-1.11 -0.76,-1.6 v -1.77 l 0.76,-1.6 1.39,-1.1 1.73,-0.4 1.73,0.4 1.38,1.1 0.77,1.6 v 1.77 l -0.77,1.6 -1.38,1.11 -1.73,0.39"
       style="fill:none;stroke:#000000;stroke-width:0.074;stroke-linecap:round;stroke-linejoin:round;stroke-miterlimit:10;stroke-dasharray:none;stroke-opacity:1"
       id="path176" />
    <path
       d="m 233.91578,522.08889 v 0 h 0.01 0.02 0.03 0.03 l 0.04,0.01 h 0.04 0.05 l 0.06,0.01 h 0.07 l 0.07,0.01 h 0.08 l 0.08,0.01 h 0.09 l 0.1,0.01 0.1,0.01 0.11,0.01 h 0.12 l 0.12,0.01 0.13,0.01 0.13,0.01 0.14,0.01 0.14,0.01 0.15,0.01 0.16,0.01 0.16,0.01 0.16,0.01 0.18,0.02 0.17,0.01 0.19,0.01 0.18,0.01 0.19,0.02 0.2,0.01 0.2,0.02 0.21,0.01 0.21,0.01 0.22,0.02 0.22,0.01 0.22,0.02 0.23,0.02 0.24,0.01 0.24,0.02 0.24,0.02 0.25,0.01 0.5,0.04 0.52,0.03 0.54,0.04 0.55,0.04 0.57,0.04 0.58,0.04 0.59,0.04 0.61,0.04 0.61,0.05 0.63,0.04 0.64,0.04 0.65,0.05 0.66,0.05 0.67,0.04 0.68,0.05 0.68,0.05 0.69,0.04 0.7,0.05 0.71,0.05 0.71,0.05 0.72,0.05 0.72,0.05 1.45,0.1 1.47,0.1 2.95,0.21 1.47,0.1 1.47,0.1 1.45,0.1 0.73,0.06 0.72,0.05 0.71,0.04 0.71,0.05 0.7,0.05 0.7,0.05 0.68,0.05 0.68,0.05 0.68,0.04 0.66,0.05 0.65,0.04 0.65,0.05 0.63,0.04 0.62,0.05 0.61,0.04 0.6,0.04 0.58,0.04 0.58,0.04 0.55,0.04 0.55,0.04 0.52,0.03 0.52,0.04 0.49,0.03 0.25,0.02 0.23,0.02 0.24,0.01 0.22,0.02 0.23,0.01 0.22,0.02 0.21,0.02 0.21,0.01 0.21,0.01 0.2,0.02 0.2,0.01 0.19,0.01 0.18,0.02 0.19,0.01 0.17,0.01 0.17,0.01 0.17,0.02 0.16,0.01 0.15,0.01 0.15,0.01 0.14,0.01 0.14,0.01 0.13,0.01 0.13,0.01 h 0.12 l 0.11,0.01 0.11,0.01 0.1,0.01 h 0.1 l 0.09,0.01 0.08,0.01 h 0.08 l 0.07,0.01 h 0.06 0.06 l 0.05,0.01 h 0.05 0.03 l 0.03,0.01 h 0.03 0.01 0.01 v 0 -0.01 -0.01 -0.02 -0.03 -0.04 -0.04 l 0.01,-0.05 v -0.06 -0.06 -0.07 -0.08 -0.08 -0.1 -0.09 -0.11 -0.11 -0.12 -0.13 -0.13 -0.14 l 0.01,-0.14 v -0.16 -0.16 -0.16 -0.17 -0.18 -0.18 -0.2 -0.19 l 0.01,-0.21 v -0.21 -0.21 -0.22 -0.23 -0.24 l 0.01,-0.24 v -0.24 -0.26 -0.26 -0.26 -0.27 l 0.01,-0.28 v -0.28 -0.29 -0.29 -0.3 l 0.01,-0.3 v -0.31 -0.32 -0.32 -0.33 l 0.01,-0.33 v -0.34 -0.34 -0.35 l 0.01,-0.36 v -0.36 -0.36 -0.37 l 0.01,-0.38 v -0.38 -0.39 -0.39 l 0.01,-0.39 v -0.4 -0.41 l 0.01,-0.41 v -0.42 -0.42 -0.42 l 0.01,-0.43 v -0.44 -0.44 l 0.01,-0.44 v -0.45 -0.46 l 0.01,-0.46 v -0.46 -0.47 l 0.01,-0.47 v -0.48 -0.48 l 0.01,-0.48 v -0.49 -0.5 l 0.01,-0.5 v -0.5 -0.5 l 0.01,-1.03 0.01,-1.04 v -1.06 l 0.01,-1.08 0.01,-1.09 0.01,-1.1 v -1.12 l 0.01,-1.14 0.01,-1.15 0.01,-1.16 0.01,-1.18 v -1.19 l 0.01,-1.21 0.01,-1.21 0.01,-1.23 0.01,-1.24 0.01,-1.26 v -1.27 l 0.01,-1.27 0.01,-1.29 0.01,-1.3 0.01,-1.31 0.01,-1.32 0.01,-1.34 0.01,-1.34 0.01,-1.35 0.01,-1.36 0.01,-1.37 0.01,-1.37 v -1.39 l 0.01,-1.39 0.01,-1.4 0.01,-1.41 0.01,-1.42 0.01,-1.42 0.01,-1.43 0.01,-1.44 0.01,-1.44 0.01,-1.45 0.01,-1.45 0.01,-1.46 0.01,-1.47 0.01,-1.46 0.02,-2.95 0.02,-2.97 0.02,-2.98 0.02,-2.99 0.02,-2.99 0.03,-3 0.04,-6.02 0.04,-6.01 0.02,-3 0.02,-2.99 0.02,-2.98 0.02,-2.96 0.02,-2.96 0.01,-1.47 0.01,-1.46 0.01,-1.46 0.01,-1.46 0.01,-1.45 0.01,-1.45 0.01,-1.43 0.01,-1.44 0.01,-1.42 0.01,-1.42 0.01,-1.41 0.01,-1.41 0.01,-1.4 0.01,-1.38 0.01,-1.38 0.01,-1.38 0.01,-1.36 v -1.35 l 0.01,-1.35 0.01,-1.33 0.01,-1.33 0.01,-1.31 0.01,-1.31 0.01,-1.29 0.01,-1.28 0.01,-1.28 0.01,-1.25 v -1.25 l 0.01,-1.24 0.01,-1.22 0.01,-1.21 0.01,-1.2 0.01,-1.18 v -1.17 l 0.01,-1.15 0.01,-1.14 0.01,-1.13 v -1.11 l 0.01,-1.1 0.01,-1.08 0.01,-1.06 v -1.05 l 0.01,-1.04 v -0.51 l 0.01,-0.5 v -0.5 -0.5 l 0.01,-0.5 v -0.48 -0.49 l 0.01,-0.48 v -0.48 -0.47 l 0.01,-0.46 v -0.47 -0.45 l 0.01,-0.46 v -0.45 -0.44 l 0.01,-0.44 v -0.43 -0.43 l 0.01,-0.43 v -0.42 -0.41 -0.41 l 0.01,-0.41 v -0.4 -0.39 -0.39 l 0.01,-0.39 v -0.38 -0.37 l 0.01,-0.37 v -0.36 -0.36 -0.36 -0.34 l 0.01,-0.35 v -0.33 -0.34 -0.32 l 0.01,-0.32 v -0.32 -0.31 -0.3 -0.3 l 0.01,-0.29 v -0.29 -0.28 -0.27 -0.27 l 0.01,-0.27 v -0.25 -0.26 -0.24 -0.24 -0.23 l 0.01,-0.23 v -0.22 -0.22 -0.2 -0.21 -0.19 -0.19 l 0.01,-0.19 v -0.17 -0.17 -0.17 -0.15 -0.16 -0.14 -0.14 -0.13 l 0.01,-0.12 v -0.12 -0.11 -0.11 -0.09 -0.09 -0.09 -0.07 -0.07 -0.07 -0.05 -0.05 -0.04 -0.03 -0.03 -0.02 -0.01 -0.01 0 0 h -0.02 -0.02 -0.03 l -0.03,-0.01 h -0.04 -0.05 l -0.05,-0.01 h -0.07 -0.06 l -0.08,-0.01 -0.08,-0.01 h -0.09 l -0.09,-0.01 -0.1,-0.01 h -0.11 l -0.11,-0.01 -0.11,-0.01 -0.13,-0.01 -0.13,-0.01 -0.13,-0.01 -0.14,-0.01 -0.15,-0.01 -0.15,-0.01 -0.16,-0.01 -0.16,-0.01 -0.17,-0.01 -0.18,-0.01 -0.17,-0.01 -0.19,-0.02 -0.19,-0.01 -0.19,-0.01 -0.2,-0.02 -0.2,-0.01 -0.21,-0.02 -0.22,-0.01 -0.21,-0.02 -0.23,-0.01 -0.22,-0.02 -0.24,-0.01 -0.23,-0.02 -0.24,-0.02 -0.49,-0.03 -0.51,-0.04 -0.53,-0.03 -0.54,-0.04 -0.55,-0.04 -0.57,-0.04 -0.58,-0.04 -0.6,-0.04 -0.61,-0.04 -0.62,-0.05 -0.63,-0.04 -0.64,-0.04 -0.65,-0.05 -0.66,-0.05 -0.67,-0.04 -0.68,-0.05 -0.69,-0.05 -0.69,-0.04 -0.7,-0.05 -0.71,-0.05 -0.71,-0.05 -0.72,-0.05 -1.45,-0.1 -1.46,-0.1 -1.47,-0.11 -1.48,-0.1 -1.47,-0.1 -1.47,-0.1 -1.46,-0.11 -1.45,-0.1 -0.72,-0.05 -0.71,-0.05 -0.71,-0.04 -0.7,-0.05 -0.69,-0.05 -0.69,-0.05 -0.68,-0.05 -0.67,-0.04 -0.66,-0.05 -0.65,-0.04 -0.64,-0.05 -0.63,-0.04 -0.62,-0.05 -0.61,-0.04 -0.6,-0.04 -0.58,-0.04 -0.57,-0.04 -0.55,-0.04 -0.54,-0.04 -0.53,-0.03 -0.51,-0.04 -0.49,-0.03 -0.24,-0.02 -0.24,-0.01 -0.23,-0.02 -0.22,-0.02 -0.23,-0.01 -0.21,-0.02 -0.22,-0.01 -0.21,-0.02 -0.2,-0.01 -0.2,-0.01 -0.19,-0.02 -0.19,-0.01 -0.19,-0.01 -0.18,-0.02 -0.17,-0.01 -0.17,-0.01 -0.16,-0.01 -0.16,-0.01 -0.15,-0.01 -0.15,-0.01 -0.14,-0.01 -0.13,-0.01 -0.13,-0.01 -0.13,-0.01 -0.11,-0.01 -0.12,-0.01 h -0.1 l -0.1,-0.01 -0.09,-0.01 h -0.09 l -0.08,-0.01 h -0.08 l -0.06,-0.01 h -0.07 l -0.05,-0.01 h -0.05 -0.04 -0.03 l -0.03,-0.01 h -0.02 -0.02 v 0 0 0.01 0.02 0.02 0.03 0.03 0.05 0.05 0.06 0.06 l -0.01,0.08 v 0.08 0.08 0.09 0.1 0.11 0.12 0.12 0.12 0.14 0.14 0.14 l -0.01,0.16 v 0.16 0.16 0.18 0.18 0.18 0.19 0.2 l -0.01,0.21 v 0.21 0.22 0.22 0.23 0.23 0.25 l -0.01,0.24 v 0.26 0.26 0.26 0.27 l -0.01,0.28 v 0.28 0.29 0.3 0.3 l -0.01,0.3 v 0.32 0.31 0.33 0.33 l -0.01,0.33 v 0.34 0.34 0.35 l -0.01,0.36 v 0.36 0.37 0.37 l -0.01,0.37 v 0.39 0.38 0.39 l -0.01,0.4 v 0.4 0.41 l -0.01,0.41 v 0.42 0.42 0.43 l -0.01,0.43 v 0.44 0.44 l -0.01,0.44 v 0.45 0.46 l -0.01,0.46 v 0.46 0.47 0.47 l -0.01,0.48 v 0.48 0.49 l -0.01,0.49 v 0.5 0.49 l -0.01,0.51 -0.01,1.02 v 1.03 l -0.01,1.06 -0.01,1.06 v 1.09 l -0.01,1.1 -0.01,1.11 -0.01,1.13 -0.01,1.15 v 1.15 l -0.01,1.18 -0.01,1.18 -0.01,1.2 -0.01,1.21 v 1.23 l -0.01,1.24 -0.01,1.25 -0.01,1.26 -0.01,1.27 -0.01,1.28 -0.01,1.3 -0.01,1.31 v 1.31 l -0.01,1.33 -0.01,1.34 -0.01,1.34 -0.01,1.36 -0.01,1.37 -0.01,1.37 -0.01,1.38 -0.01,1.39 -0.01,1.4 -0.01,1.41 -0.01,1.41 -0.01,1.42 -0.01,1.43 -0.01,1.43 -0.01,1.44 -0.01,1.45 -0.01,1.45 -0.01,1.46 -0.01,1.46 -0.01,1.47 -0.01,1.47 -0.01,1.47 -0.02,2.96 -0.02,2.98 -0.02,2.99 -0.02,2.99 -0.04,6.01 -0.04,6.01 -0.02,3.01 -0.02,3 -0.02,2.99 -0.02,2.98 -0.02,2.97 -0.02,2.96 -0.01,1.47 -0.01,1.47 -0.01,1.46 -0.01,1.46 -0.01,1.45 -0.01,1.45 -0.01,1.44 -0.01,1.43 -0.01,1.43 -0.01,1.42 -0.01,1.42 -0.01,1.41 -0.01,1.4 -0.01,1.39 -0.01,1.38 -0.01,1.38 -0.01,1.37 -0.01,1.35 -0.01,1.35 -0.01,1.34 -0.01,1.33 -0.01,1.32 -0.01,1.31 v 1.3 l -0.01,1.28 -0.01,1.28 -0.01,1.26 -0.01,1.25 -0.01,1.24 -0.01,1.23 v 1.22 l -0.01,1.2 -0.01,1.19 -0.01,1.17 -0.01,1.16 v 1.15 l -0.01,1.13 -0.01,1.12 -0.01,1.1 -0.01,1.09 v 1.07 l -0.01,1.06 -0.01,1.03 v 1.03 l -0.01,0.5 v 0.5 0.5 l -0.01,0.49 v 0.49 0.49 l -0.01,0.47 v 0.48 0.47 l -0.01,0.47 v 0.46 0.45 l -0.01,0.46 v 0.44 0.45 l -0.01,0.44 v 0.43 0.43 0.42 l -0.01,0.42 v 0.41 0.41 l -0.01,0.41 v 0.4 0.39 0.39 l -0.01,0.38 v 0.38 0.37 0.37 l -0.01,0.37 v 0.35 0.36 0.34 l -0.01,0.34 v 0.34 0.33 0.33 l -0.01,0.32 v 0.31 0.31 0.3 0.3 l -0.01,0.29 v 0.28 0.28 0.28 0.27 l -0.01,0.26 v 0.25 0.25 0.25 0.24 0.23 0.22 l -0.01,0.22 v 0.22 0.2 0.21 0.19 0.19 0.18 l -0.01,0.18 v 0.17 0.16 0.15 0.15 0.15 0.13 0.13 0.13 0.11 l -0.01,0.11 v 0.1 0.1 0.09 0.08 0.08 0.06 0.07 0.05 0.05 0.04 0.03 0.03 0.01 0.01 0.01"
       style="fill:none;stroke:#000000;stroke-width:0.074;stroke-linecap:round;stroke-linejoin:round;stroke-miterlimit:10;stroke-dasharray:none;stroke-opacity:1"
       id="path178" />
    <path
       d="m 205.01578,316.02889 -1.73,-0.39 -1.39,-1.11 -0.77,-1.6 v -1.77 l 0.77,-1.6 1.39,-1.1 1.73,-0.4 1.72,0.4 1.39,1.1 0.77,1.6 v 1.77 l -0.77,1.6 -1.39,1.11 -1.72,0.39"
       style="fill:none;stroke:#000000;stroke-width:0.074;stroke-linecap:round;stroke-linejoin:round;stroke-miterlimit:10;stroke-dasharray:none;stroke-opacity:1"
       id="path180" />
    <path
       d="m 158.32578,362.69889 -1.72,-0.39 -1.39,-1.11 -0.77,-1.6 v -1.77 l 0.77,-1.6 1.39,-1.1 1.72,-0.4 1.73,0.4 1.39,1.1 0.77,1.6 v 1.77 l -0.77,1.6 -1.39,1.11 -1.73,0.39"
       style="fill:none;stroke:#000000;stroke-width:0.074;stroke-linecap:round;stroke-linejoin:round;stroke-miterlimit:10;stroke-dasharray:none;stroke-opacity:1"
       id="path182" />
    <path
       d="m 179.12578,356.83889 -4.33,-0.38 -4.19,-1.13 -3.93,-1.83 -3.56,-2.49 -3.07,-3.07 -2.49,-3.55 -1.83,-3.94 -1.12,-4.19 -0.38,-4.32 0.38,-4.33 1.12,-4.19 1.83,-3.93 2.49,-3.56 3.07,-3.06 3.56,-2.49 3.93,-1.84 4.19,-1.12 4.33,-0.38 4.32,0.38 4.19,1.12 3.93,1.84 3.56,2.49 3.07,3.06 2.49,3.56 1.83,3.93 1.12,4.19 0.38,4.33 -0.38,4.32 -1.12,4.19 -1.83,3.94 -2.49,3.55 -3.07,3.07 -3.56,2.49 -3.93,1.83 -4.19,1.13 -4.32,0.38"
       style="fill:none;stroke:#000000;stroke-width:0.074;stroke-linecap:round;stroke-linejoin:round;stroke-miterlimit:10;stroke-dasharray:none;stroke-opacity:1"
       id="path184" />
    <path
       d="m 20.585778,296.10889 v 0 h 0.01 v 0 h 0.02 0.01 0.02 0.02 0.02 0.03 0.03 0.03 0.04 0.04 0.04 0.05 0.05 0.05 0.05 0.06 0.06 0.06 0.07 0.07 0.07 0.08 0.08 0.08 0.08 0.09 0.08 0.1 0.09 0.1 0.1 0.1 0.11 0.1 0.11 0.12 0.11 0.12 0.12 0.12 0.13 0.13 0.13 0.13 0.14 0.14 0.14 0.14 0.15 0.14 0.15 0.16 0.15 0.16 0.16 0.16 0.16 0.17 0.17 0.17 0.17 0.17 0.18 0.18 0.18 0.18 0.19 0.19 0.18 0.2 0.19 0.19 0.2 0.2 0.2 0.2 0.21 0.21 0.2 0.21 0.22 0.21 0.22 0.21 0.22 0.22 0.23 0.22 0.23 0.23 0.22 0.24 0.23 0.23 0.24 0.47 0.49 0.48 0.5 0.5 0.5 0.51 0.52 0.52 0.52 0.54 0.53 0.54 0.54 0.55 0.55 0.56 0.56 0.56 0.57 0.57 0.58 0.57 0.58 0.59 0.58 0.59 0.59 0.59 0.6 0.59 0.6 0.6 1.21 1.21 1.21 1.22 1.22 2.44 1.21 1.22 1.21 1.21 0.6 0.6 0.59 0.6 0.59 0.59 0.59 0.59 0.58 0.58 0.58 0.57 0.57 0.57 0.56 0.57 0.55 0.56 0.54 0.55 0.54 0.54 0.53 0.52 0.52 0.52 0.51 0.51 0.5 0.49 0.49 0.49 0.47 0.24 0.23 0.24 0.23 0.23 0.23 0.22 0.23 0.22 0.22 0.22 0.22 0.22 0.21 0.22 0.21 0.21 0.2 0.21 0.2 0.2 0.2 0.2 0.2 0.19 0.19 0.19 0.19 0.19 0.18 0.18 0.18 0.18 0.18 0.17 0.17 0.17 0.17 0.16 0.16 0.16 0.16 0.16 0.15 0.15 0.15 0.14 0.15 0.14 0.14 0.14 0.13 0.13 0.13 0.13 0.12 0.12 0.12 0.12 0.11 0.11 0.11 0.11 0.1 0.1 0.1 0.1 0.09 0.09 0.09 0.08 0.08 0.08 0.08 0.07 0.07 0.07 0.06 0.06 0.06 0.06 0.05 0.05 0.05 0.04 0.04 0.04 0.04 0.03 0.02 0.03 0.02 0.02 0.02 0.01 0.01 v 0 h 0.01 v 0 0 0 0 0 0 0 0 0 0 0 0 h 0.07 l 0.07,0.01 0.07,0.01 0.06,0.02 0.07,0.02 0.06,0.03 0.06,0.03 0.06,0.03 0.05,0.04 0.06,0.04 0.05,0.04 0.02,0.02 v 0 0 0 0 0 0 0.01 0 0 0 0 l 0.02,0.01 0.02,0.03 0.04,0.05 0.04,0.05 0.03,0.05 0.04,0.06 0.02,0.06 0.03,0.07 0.02,0.06 0.01,0.07 0.02,0.06 v 0.07 0.04 0.01 0.01 0 0 0 0 h 0.01 v 0 0 0 0 0 0.01 0.01 0 0.02 0.01 0.01 0.02 0.02 0.02 0.02 0.03 0.02 0.03 0.03 0.03 0.03 0.04 0.04 0.03 0.04 0.05 0.04 0.05 0.04 0.05 0.05 0.06 0.05 0.06 0.05 0.06 0.06 0.07 0.06 0.06 0.07 0.07 0.07 0.07 0.15 0.15 0.17 0.16 0.17 0.18 0.19 0.18 0.2 0.2 0.21 0.21 0.21 0.22 0.23 0.23 0.24 0.24 0.24 0.25 l -0.01,0.25 v 0.26 0.27 0.26 0.27 0.28 0.28 0.28 0.29 0.29 0.29 0.3 0.3 0.31 0.31 0.31 0.31 0.32 0.32 0.32 0.33 0.33 0.33 0.33 0.34 0.34 0.34 0.34 0.34 0.35 0.35 0.35 0.35 0.36 0.71 0.72 0.72 0.73 0.73 0.74 1.47 1.48 1.48 0.73 0.74 l -0.01,0.73 v 0.72 0.73 0.71 0.36 0.35 0.36 0.35 0.35 0.34 0.35 0.34 0.34 0.34 0.34 0.33 0.33 0.33 0.33 0.32 0.32 0.32 0.31 0.32 0.3 0.31 0.3 0.3 0.29 0.29 0.29 0.28 0.28 0.28 0.27 0.27 0.26 0.26 0.26 0.25 0.24 0.24 0.24 0.23 0.23 0.22 0.21 0.22 0.2 0.2 0.2 0.19 0.18 0.18 0.17 0.17 0.16 0.15 0.15 0.08 0.07 0.07 0.06 0.07 0.06 0.07 0.06 0.06 0.05 0.06 0.05 0.06 0.05 0.05 0.04 0.05 0.04 0.05 0.04 0.04 0.03 0.04 0.03 0.03 0.03 0.03 0.03 0.02 0.03 0.02 0.02 0.01 0.02 0.01 0.01 0.01 0.01 0.01 0 0 l -0.01,0.01 v 0.04 l -0.01,0.09 -0.01,0.08 -0.02,0.07 -0.02,0.08 -0.02,0.07 v 0.01 l -0.01,0.02 -0.01,0.02 -0.02,0.06 -0.03,0.05 -0.03,0.04 -0.03,0.04 -0.03,0.04 v 0 0.01 h -0.01 v 0 l -0.01,0.01 v 0.01 h -0.01 l -0.01,0.01 -0.01,0.01 -0.01,0.02 -0.01,0.01 -0.01,0.01 -0.02,0.02 -0.01,0.02 -0.02,0.01 -0.02,0.02 -0.01,0.02 -0.02,0.02 -0.02,0.03 -0.03,0.02 -0.04,0.05 -0.05,0.06 -0.06,0.06 -0.05,0.06 -0.07,0.07 -0.06,0.07 -0.07,0.08 -0.08,0.08 -0.07,0.09 -0.08,0.09 -0.09,0.09 -0.09,0.1 -0.09,0.1 -0.1,0.11 -0.09,0.11 -0.11,0.11 -0.1,0.12 -0.11,0.12 -0.11,0.12 -0.12,0.13 -0.12,0.13 -0.12,0.13 -0.13,0.14 -0.12,0.14 -0.13,0.15 -0.14,0.14 -0.13,0.16 -0.14,0.15 -0.15,0.16 -0.14,0.16 -0.15,0.16 -0.15,0.16 -0.15,0.17 -0.16,0.17 -0.15,0.18 -0.16,0.18 -0.17,0.17 -0.16,0.19 -0.17,0.18 -0.17,0.19 -0.17,0.19 -0.17,0.19 -0.18,0.19 -0.17,0.2 -0.18,0.2 -0.18,0.2 -0.19,0.2 -0.18,0.2 -0.19,0.21 -0.19,0.21 -0.19,0.21 -0.19,0.21 -0.19,0.21 -0.2,0.22 -0.19,0.21 -0.2,0.22 -0.2,0.22 -0.2,0.22 -0.2,0.22 -0.2,0.23 -0.21,0.22 -0.2,0.23 -0.42,0.46 -0.41,0.46 -0.42,0.46 -0.43,0.47 -0.42,0.47 -0.43,0.47 -0.43,0.48 -0.43,0.47 -0.87,0.96 -0.86,0.95 -0.87,0.96 -0.43,0.47 -0.43,0.48 -0.42,0.47 -0.42,0.46 -0.43,0.47 -0.41,0.46 -0.42,0.46 -0.2,0.22 -0.21,0.23 -0.2,0.22 -0.2,0.22 -0.2,0.23 -0.2,0.22 -0.2,0.21 -0.19,0.22 -0.2,0.22 -0.19,0.21 -0.19,0.21 -0.19,0.21 -0.19,0.21 -0.19,0.21 -0.19,0.2 -0.18,0.2 -0.18,0.21 -0.18,0.19 -0.18,0.2 -0.17,0.19 -0.18,0.2 -0.17,0.19 -0.17,0.18 -0.17,0.19 -0.16,0.18 -0.16,0.18 -0.16,0.18 -0.16,0.17 -0.16,0.17 -0.15,0.17 -0.15,0.17 -0.15,0.16 -0.14,0.16 -0.15,0.16 -0.14,0.15 -0.13,0.16 -0.14,0.14 -0.13,0.15 -0.13,0.14 -0.12,0.14 -0.13,0.13 -0.12,0.14 -0.11,0.12 -0.11,0.13 -0.11,0.12 -0.11,0.12 -0.1,0.11 -0.1,0.11 -0.1,0.11 -0.09,0.1 -0.09,0.1 -0.09,0.09 -0.08,0.09 -0.08,0.09 -0.07,0.08 -0.07,0.08 -0.07,0.07 -0.06,0.07 -0.06,0.07 -0.06,0.06 -0.05,0.06 -0.04,0.05 -0.05,0.04 -0.02,0.03 -0.01,0.02 -0.02,0.02 -0.02,0.01 -0.01,0.02 -0.02,0.02 -0.01,0.01 -0.01,0.02 -0.02,0.01 -0.01,0.01 v 0.01 l -0.01,0.01 -0.01,0.01 v 0 l -0.01,0.01 v 0 0 h -0.01 v 0.01 h -0.01 l -0.05,0.06 -0.06,0.05 -0.05,0.04 -0.06,0.04 -0.06,0.04 -0.06,0.02 -0.07,0.03 -0.06,0.01 -0.08,0.02 -0.07,0.01 h -0.08 -0.02 -0.01 v 0 0 h -0.01 v 0 h -0.01 -0.01 -0.01 -0.01 -0.02 -0.01 -0.02 -0.03 -0.02 -0.02 -0.03 -0.03 -0.03 -0.04 -0.03 -0.04 -0.04 -0.04 -0.04 -0.04 -0.05 -0.05 -0.05 -0.05 -0.05 -0.06 -0.06 -0.06 -0.06 -0.06 -0.06 -0.07 -0.07 -0.07 -0.07 -0.07 -0.07 -0.08 -0.08 -0.08 -0.08 -0.08 -0.08 -0.09 -0.09 -0.09 -0.18 -0.19 -0.19 -0.2 -0.21 -0.21 -0.22 -0.22 -0.23 l -0.24,-0.01 h -0.24 -0.24 -0.25 -0.26 -0.26 -0.26 -0.27 -0.28 -0.27 -0.29 -0.29 -0.29 -0.3 -0.3 -0.3 -0.31 -0.31 -0.32 -0.32 l -0.32,-0.01 h -0.33 -0.33 -0.33 -0.34 -0.34 -0.34 -0.35 -0.35 -0.35 -0.36 -0.35 -0.36 -0.36 -0.37 -0.37 l -0.36,-0.01 h -0.37 -0.38 -0.37 -0.38 -0.38 -0.76 -0.76 -0.78 -0.77 l -0.78,-0.01 h -0.78 -0.79 -3.14 l -0.78,-0.01 h -0.78 -0.78 -0.78 -0.77 -0.76 -0.38 -0.38 -0.38 l -0.37,-0.01 h -0.38 -0.37 -0.37 -0.36 -0.37 -0.36 -0.36 -0.36 -0.36 -0.35 -0.35 -0.34 -0.35 -0.34 -0.34 l -0.33,-0.01 h -0.33 -0.33 -0.33 -0.32 -0.31 -0.32 -0.31 -0.3 -0.31 -0.29 -0.3 -0.29 -0.28 -0.28 -0.28 -0.27 -0.26 -0.27 l -0.25,-0.01 h -0.25 -0.25 -0.24 -0.24 -0.23 -0.22 -0.22 -0.22 -0.2 -0.21 -0.19 -0.19 -0.19 -0.09 -0.09 -0.08 -0.09 -0.08 -0.08 -0.08 -0.08 -0.08 -0.07 -0.08 -0.07 -0.07 -0.07 -0.06 -0.07 -0.06 -0.06 -0.06 -0.06 -0.06 -0.05 -0.06 -0.05 -0.05 -0.04 -0.05 -0.04 -0.04 -0.04 -0.04 -0.04 -0.03 -0.04 -0.03 -0.02 -0.03 -0.02 -0.03 -0.02 -0.02 -0.01 -0.02 -0.01 -0.01 -0.01 v 0 h -0.01 l -0.03,-0.01 h -0.07 l -0.07,-0.01 -0.07,-0.01 -0.06,-0.02 -0.06,-0.03 -0.06,-0.02 -0.06,-0.03 -0.06,-0.04 -0.06,-0.04 -0.05,-0.04 -0.05,-0.04 v -0.01 h -0.01 v 0 0 0 0 h 0.01 v 0 0 0 0 0 l -0.01,-0.01 v 0 l -0.05,-0.05 -0.04,-0.05 -0.04,-0.06 -0.03,-0.05 -0.03,-0.06 -0.03,-0.06 -0.02,-0.06 -0.02,-0.07 -0.01,-0.07 -0.01,-0.06 -0.01,-0.07 v -0.04 0 -0.01 -0.02 -0.01 -0.02 -0.02 -0.03 -0.03 -0.03 -0.03 -0.04 -0.04 -0.05 -0.04 -0.05 -0.06 -0.05 -0.06 -0.06 -0.07 -0.07 -0.07 -0.07 -0.08 -0.07 -0.09 -0.08 -0.09 -0.09 -0.09 -0.1 -0.09 -0.11 -0.1 -0.1 -0.11 -0.12 -0.11 -0.12 -0.11 -0.13 -0.12 -0.13 -0.13 -0.13 -0.13 -0.14 -0.14 -0.14 -0.14 -0.15 -0.15 -0.15 -0.15 -0.16 -0.16 -0.16 -0.16 -0.16 -0.17 -0.17 -0.17 -0.17 -0.18 -0.17 -0.18 -0.19 -0.18 -0.18 -0.19 -0.19 -0.19 -0.2 -0.19 -0.2 -0.2 -0.2 -0.21 -0.2 -0.21 -0.21 -0.21 -0.21 -0.21 -0.22 -0.22 -0.22 -0.22 -0.22 -0.23 -0.22 -0.23 -0.23 -0.23 -0.24 -0.23 -0.47 -0.48 -0.49 -0.49 -0.5 -0.5 -0.51 -0.51 -0.52 -0.52 -0.53 -0.53 -0.54 -0.54 -0.55 -0.55 -0.55 -0.56 -0.56 -0.57 -0.57 -0.57 -0.57 -0.58 -0.58 -0.59 -0.58 -0.59 -0.59 -0.59 -0.6 -0.6 -0.6 -0.6 -1.2 -1.21 -1.21 -2.44 -2.43 -1.21 -1.22 -1.2 -1.2 -0.6 -0.6 -0.59 -0.6 -0.59 -0.58 -0.59 -0.58 -0.58 -0.58 -0.57 -0.57 -0.57 -0.57 -0.56 -0.55 -0.56 -0.55 -0.54 -0.54 -0.54 -0.53 -0.53 -0.52 -0.52 -0.51 -0.5 -0.5 -0.5 -0.49 -0.48 -0.48 -0.47 -0.24 -0.23 -0.23 -0.23 -0.23 -0.22 -0.22 -0.23 -0.22 -0.22 -0.21 -0.22 -0.21 -0.21 -0.21 -0.21 -0.21 -0.2 -0.2 -0.2 -0.2 -0.2 -0.19 -0.2 -0.19 -0.19 -0.18 -0.19 -0.18 -0.18 -0.18 -0.17 -0.18 -0.17 -0.17 -0.17 -0.16 -0.17 -0.16 -0.16 -0.15 -0.16 -0.15 -0.15 -0.15 -0.14 -0.14 -0.14 -0.14 -0.14 -0.13 -0.13 -0.13 -0.12 -0.13 -0.12 -0.11 -0.12 -0.11 -0.11 -0.11 -0.1 -0.11 -0.09 -0.1 -0.1 -0.09 -0.09 -0.08 -0.08 -0.08 -0.08 -0.08 -0.07 -0.07 -0.06 -0.07 -0.06 -0.05 -0.06 -0.05 -0.05 -0.04 -0.04 -0.04 -0.04 -0.03 -0.03 -0.03 -0.02 -0.02 -0.02 -0.02 -0.01 0 -0.01 0 -0.01 -0.02 l 0.01,-0.03 v -0.07 l 0.01,-0.07 0.02,-0.07 0.02,-0.06 0.02,-0.06 0.03,-0.06 0.04,-0.06 0.03,-0.06 0.04,-0.05 0.04,-0.05 0.03,-0.02 0.01,-0.01 v -0.01 l 0.03,-0.02 0.05,-0.05 0.05,-0.04 0.06,-0.03 0.05,-0.03 0.06,-0.03 0.06,-0.03 0.07,-0.02 0.06,-0.02 0.07,-0.01 h 0.07 l 0.07,-0.01"
       style="fill:none;stroke:#000000;stroke-width:0.074;stroke-linecap:round;stroke-linejoin:round;stroke-miterlimit:10;stroke-dasharray:none;stroke-opacity:1"
       id="path186" />
    <path
       d="m 55.445778,344.87889 -3.1,-0.37 -2.92,-1.11 -2.57,-1.77 -2.07,-2.34 -1.45,-2.76 -0.74,-3.03 v -3.12 l 0.74,-3.03 1.45,-2.77 2.07,-2.33 2.57,-1.78 2.92,-1.1 3.1,-0.38 3.1,0.38 2.91,1.1 2.57,1.78 2.07,2.33 1.45,2.77 0.75,3.03 v 3.12 l -0.75,3.03 -1.45,2.76 -2.07,2.34 -2.57,1.77 -2.91,1.11 -3.1,0.37"
       style="fill:none;stroke:#000000;stroke-width:0.074;stroke-linecap:round;stroke-linejoin:round;stroke-miterlimit:10;stroke-dasharray:none;stroke-opacity:1"
       id="path188" />
    <path
       d="m 81.335778,316.02889 -1.73,-0.39 -1.39,-1.11 -0.77,-1.6 v -1.77 l 0.77,-1.6 1.39,-1.1 1.73,-0.4 1.73,0.4 1.38,1.1 0.77,1.6 v 1.77 l -0.77,1.6 -1.38,1.11 -1.73,0.39"
       style="fill:none;stroke:#000000;stroke-width:0.074;stroke-linecap:round;stroke-linejoin:round;stroke-miterlimit:10;stroke-dasharray:none;stroke-opacity:1"
       id="path190" />
    <path
       d="m 34.655778,362.69889 -1.73,-0.39 -1.39,-1.11 -0.77,-1.6 v -1.77 l 0.77,-1.6 1.39,-1.1 1.73,-0.4 1.72,0.4 1.39,1.1 0.77,1.6 v 1.77 l -0.77,1.6 -1.39,1.11 -1.72,0.39"
       style="fill:none;stroke:#000000;stroke-width:0.074;stroke-linecap:round;stroke-linejoin:round;stroke-miterlimit:10;stroke-dasharray:none;stroke-opacity:1"
       id="path192" />
  </g>
</svg>
